<svg xmlns="http://www.w3.org/2000/svg" xmlns:xlink="http://www.w3.org/1999/xlink" viewBox="0 0 27.35 27.36"><defs><style>.cls-1,.cls-2,.cls-8{fill:none;}.cls-2,.cls-7{clip-path:url(#clip-path);}.cls-3{clip-path:url(#clip-path-3);}.cls-4{fill:#f1d130;}.cls-5{clip-path:url(#clip-path-4);}.cls-6{fill:#313131;}.cls-8{stroke:#343131;stroke-miterlimit:10;}</style><clipPath id="clip-path"><rect class="cls-1" x="5" y="4" width="18" height="19"/></clipPath><clipPath id="clip-path-3"><path class="cls-2" d="M13.67,22.36A8.68,8.68,0,1,0,5,13.68a8.72,8.72,0,0,0,8.67,8.67Z"/></clipPath><clipPath id="clip-path-4"><path class="cls-2" d="M13.49,17.39a1.11,1.11,0,0,1-.86-.45l-2.38-2.87a1,1,0,0,1-.25-.64.85.85,0,0,1,.85-.85.9.9,0,0,1,.72.37l1.9,2.36,6.66-9.83A.87.87,0,0,1,20.88,5a.85.85,0,0,1,.89.81,1.26,1.26,0,0,1-.22.62L14.33,16.92a1,1,0,0,1-.84.47Z"/></clipPath></defs><title>check</title><g id="Слой_2" data-name="Слой 2"><g id="Слой_1-2" data-name="Слой 1"><g class="cls-3"><rect class="cls-4" width="27.35" height="27.36"/></g><g class="cls-5"><rect class="cls-6" x="5" width="21.77" height="22.39"/></g><g class="cls-7"><path class="cls-8" d="M13.49,17.39a1.11,1.11,0,0,1-.86-.45l-2.38-2.87a1,1,0,0,1-.25-.64.85.85,0,0,1,.85-.85.9.9,0,0,1,.72.37l1.9,2.36,6.66-9.83A.87.87,0,0,1,20.88,5a.85.85,0,0,1,.89.81,1.26,1.26,0,0,1-.22.62L14.33,16.92a1,1,0,0,1-.84.47Z"/></g></g></g></svg>