<?xml version="1.0" encoding="UTF-8"?>
<svg width="62px" height="40px" viewBox="0 0 62 40" version="1.1" xmlns="http://www.w3.org/2000/svg" xmlns:xlink="http://www.w3.org/1999/xlink">
    <!-- Generator: Sketch 59.1 (86144) - https://sketch.com -->
    <title>Mastercard</title>
    <desc>Created with Sketch.</desc>
    <g id="Page-1" stroke="none" stroke-width="1" fill="none" fill-rule="evenodd">
        <g id="iPhone-11-Copy" transform="translate(-117.000000, -246.000000)">
            <g id="Mastercard" transform="translate(117.000000, 246.000000)">
                <rect id="Rectangle" fill="#FFFFFF" x="0" y="0" width="62" height="40" rx="4"></rect>
                <g id="Mastercard-logo" transform="translate(10.000000, 4.000000)" fill-rule="nonzero">
                    <g id="Group" transform="translate(21.561450, 28.865175) scale(-1, 1) rotate(-180.000000) translate(-21.561450, -28.865175) translate(2.061450, 25.865175)" fill="#231F20">
                        <path d="M37.7244034,0.78592507 L37.7244034,0.704974788 L37.7990663,0.704974788 C37.8155707,0.704974788 37.8297173,0.708904413 37.8399344,0.715191814 C37.8493655,0.721479215 37.8548669,0.732482165 37.8548669,0.745842892 C37.8548669,0.759203618 37.8493655,0.769420644 37.8399344,0.775708044 C37.8297173,0.78278137 37.8155707,0.78592507 37.7990663,0.78592507 L37.7244034,0.78592507 Z M37.7998522,0.842511675 C37.8383625,0.842511675 37.8682277,0.8338665 37.8894476,0.816576148 C37.9106676,0.799285796 37.9208846,0.775708044 37.9208846,0.745842892 C37.9208846,0.720693289 37.9130254,0.700259238 37.895735,0.683754811 C37.8792306,0.66803631 37.8556529,0.657819284 37.8242159,0.653889658 L37.9232424,0.539930523 L37.8462218,0.539930523 L37.7542685,0.653103733 L37.7244034,0.653103733 L37.7244034,0.539930523 L37.6599575,0.539930523 L37.6599575,0.842511675 L37.7998522,0.842511675 Z M37.7802041,0.435402489 C37.8155707,0.435402489 37.8485795,0.442475815 37.8784447,0.455836541 C37.9090958,0.469197267 37.9358172,0.487273544 37.958609,0.510065371 C37.9814009,0.532857198 37.9994771,0.55957865 38.0128379,0.591015653 C38.0254127,0.621666731 38.032486,0.654675584 38.032486,0.690042212 C38.032486,0.72540884 38.0254127,0.758417693 38.0128379,0.789068771 C37.9994771,0.819719848 37.9814009,0.847227226 37.958609,0.870019053 C37.9358172,0.89281088 37.9090958,0.910887156 37.8784447,0.924247883 C37.8485795,0.936822684 37.8155707,0.943110084 37.7802041,0.943110084 C37.7448374,0.943110084 37.7110426,0.936822684 37.6803916,0.924247883 C37.6489546,0.910887156 37.6214472,0.89281088 37.5986554,0.870019053 C37.5758635,0.847227226 37.5577873,0.819719848 37.5452125,0.789068771 C37.5318517,0.758417693 37.5255643,0.72540884 37.5255643,0.690042212 C37.5255643,0.654675584 37.5318517,0.621666731 37.5452125,0.591015653 C37.5577873,0.55957865 37.5758635,0.532857198 37.5986554,0.510065371 C37.6214472,0.487273544 37.6489546,0.469197267 37.6803916,0.455836541 C37.7110426,0.442475815 37.7448374,0.435402489 37.7802041,0.435402489 M37.7802041,1.01620112 C37.8265736,1.01620112 37.8690136,1.00755594 37.9098817,0.990265589 C37.9499639,0.973761162 37.9845446,0.95018341 38.0151956,0.920318257 C38.0450608,0.89123903 38.0686386,0.856658327 38.0859289,0.816576148 C38.1032193,0.777279894 38.1118644,0.734839941 38.1118644,0.690042212 C38.1118644,0.645244483 38.1032193,0.602804529 38.0859289,0.563508275 C38.0686386,0.524212022 38.0450608,0.489631319 38.0151956,0.459766166 C37.9845446,0.430686939 37.9499639,0.407109186 37.9098817,0.389818835 C37.8690136,0.372528483 37.8265736,0.363883308 37.7802041,0.363883308 C37.7330485,0.363883308 37.6898227,0.372528483 37.6489546,0.389818835 C37.6080865,0.407109186 37.5727198,0.430686939 37.5428547,0.459766166 C37.5129895,0.489631319 37.4894118,0.524212022 37.4721214,0.563508275 C37.4548311,0.602804529 37.4461859,0.645244483 37.4461859,0.690042212 C37.4461859,0.734839941 37.4548311,0.777279894 37.4721214,0.816576148 C37.4894118,0.856658327 37.5129895,0.89123903 37.5428547,0.920318257 C37.5727198,0.95018341 37.6080865,0.973761162 37.6489546,0.990265589 C37.6898227,1.00755594 37.7330485,1.01620112 37.7802041,1.01620112 M7.15977739,2.181728 C7.15977739,2.758597 7.53780735,3.23250981 8.15554445,3.23250981 C8.74577418,3.23250981 9.14423819,2.77903105 9.14423819,2.181728 C9.14423819,1.58442494 8.74577418,1.13094618 8.15554445,1.13094618 C7.53780735,1.13094618 7.15977739,1.60485899 7.15977739,2.181728 M9.81699005,2.181728 L9.81699005,3.82273954 L9.10337009,3.82273954 L9.10337009,3.42427553 C8.87702367,3.71978336 8.53357441,3.90526167 8.06673492,3.90526167 C7.14641666,3.90526167 6.42493745,3.18378246 6.42493745,2.181728 C6.42493745,1.17888761 7.14641666,0.458194316 8.06673492,0.458194316 C8.53357441,0.458194316 8.87702367,0.643672633 9.10337009,0.939180459 L9.10337009,0.540716448 L9.81699005,0.540716448 L9.81699005,2.181728 Z M33.9323149,2.181728 C33.9323149,2.758597 34.3103449,3.23250981 34.928082,3.23250981 C35.5190976,3.23250981 35.9167757,2.77903105 35.9167757,2.181728 C35.9167757,1.58442494 35.5190976,1.13094618 34.928082,1.13094618 C34.3103449,1.13094618 33.9323149,1.60485899 33.9323149,2.181728 M36.5903135,2.181728 L36.5903135,5.14073588 L35.8759076,5.14073588 L35.8759076,3.42427553 C35.6495612,3.71978336 35.3061119,3.90526167 34.8392724,3.90526167 C33.9189542,3.90526167 33.197475,3.18378246 33.197475,2.181728 C33.197475,1.17888761 33.9189542,0.458194316 34.8392724,0.458194316 C35.3061119,0.458194316 35.6495612,0.643672633 35.8759076,0.939180459 L35.8759076,0.540716448 L36.5903135,0.540716448 L36.5903135,2.181728 Z M18.6751515,3.26630459 C19.1349177,3.26630459 19.4304255,2.97787009 19.5058743,2.4701625 L17.8027747,2.4701625 C17.8790094,2.94407531 18.166658,3.26630459 18.6751515,3.26630459 M18.6892982,3.90526167 C17.7273259,3.90526167 17.054574,3.20500244 17.054574,2.181728 C17.054574,1.1380195 17.7548333,0.458194316 18.7372396,0.458194316 C19.2315865,0.458194316 19.6842793,0.581584552 20.0827433,0.917960482 L19.7330067,1.44688805 C19.4579329,1.22761496 19.1074103,1.1034388 18.7781077,1.1034388 C18.3183415,1.1034388 17.8994435,1.31642449 17.7964873,1.90744015 L20.2336409,1.90744015 C20.2407143,1.99624968 20.2477876,2.08584514 20.2477876,2.181728 C20.2407143,3.20500244 19.6088305,3.90526167 18.6892982,3.90526167 M27.3061806,2.181728 C27.3061806,2.758597 27.6842106,3.23250981 28.3019477,3.23250981 C28.8921774,3.23250981 29.2906414,2.77903105 29.2906414,2.181728 C29.2906414,1.58442494 28.8921774,1.13094618 28.3019477,1.13094618 C27.6842106,1.13094618 27.3061806,1.60485899 27.3061806,2.181728 M29.9633933,2.181728 L29.9633933,3.82273954 L29.2497733,3.82273954 L29.2497733,3.42427553 C29.022641,3.71978336 28.6799777,3.90526167 28.2131382,3.90526167 C27.2928199,3.90526167 26.5713407,3.18378246 26.5713407,2.181728 C26.5713407,1.17888761 27.2928199,0.458194316 28.2131382,0.458194316 C28.6799777,0.458194316 29.022641,0.643672633 29.2497733,0.939180459 L29.2497733,0.540716448 L29.9633933,0.540716448 L29.9633933,2.181728 Z M23.2759569,2.181728 C23.2759569,1.18596093 23.9691428,0.458194316 25.0269979,0.458194316 C25.5213448,0.458194316 25.8506474,0.568223826 26.2074574,0.849585001 L25.8647941,1.426454 C25.5967936,1.23390236 25.3154324,1.13094618 25.005778,1.13094618 C24.4359823,1.1380195 24.0170842,1.54984424 24.0170842,2.181728 C24.0170842,2.81361175 24.4359823,3.22543649 25.005778,3.23250981 C25.3154324,3.23250981 25.5967936,3.12955363 25.8647941,2.93700199 L26.2074574,3.51387099 C25.8506474,3.79523216 25.5213448,3.90526167 25.0269979,3.90526167 C23.9691428,3.90526167 23.2759569,3.17749506 23.2759569,2.181728 M32.4767817,3.90526167 C32.0649569,3.90526167 31.7969565,3.71271003 31.6114782,3.42427553 L31.6114782,3.82273954 L30.9041456,3.82273954 L30.9041456,0.540716448 L31.6185515,0.540716448 L31.6185515,2.38056704 C31.6185515,2.92364126 31.8519712,3.22543649 32.3188107,3.22543649 C32.463421,3.22543649 32.6143186,3.20500244 32.7652162,3.14291436 L32.9852752,3.81566622 C32.8273043,3.8777543 32.6213919,3.90526167 32.4767817,3.90526167 M13.3465795,3.56181242 C13.0031303,3.78815884 12.5300034,3.90526167 12.0081491,3.90526167 C11.1766404,3.90526167 10.6414255,3.50679766 10.6414255,2.85447986 C10.6414255,2.31926488 11.0398895,1.98917635 11.7739435,1.88622017 L12.1111053,1.83827874 C12.502496,1.78326398 12.6871884,1.6803078 12.6871884,1.49482948 C12.6871884,1.24097569 12.4262613,1.09636547 11.9389877,1.09636547 C11.4446409,1.09636547 11.0878309,1.25433641 10.8473378,1.43981473 L10.5109619,0.884165704 C10.9023526,0.595731203 11.3966994,0.458194316 11.9319144,0.458194316 C12.8797401,0.458194316 13.4291017,0.904599756 13.4291017,1.52941019 C13.4291017,2.10627919 12.9968429,2.40807442 12.282437,2.5110306 L11.9460611,2.55975795 C11.6371925,2.60062606 11.3896261,2.66192821 11.3896261,2.88198723 C11.3896261,3.1224803 11.6230459,3.26630459 12.0144365,3.26630459 C12.4333346,3.26630459 12.8388719,3.10833365 13.037711,2.98494342 L13.3465795,3.56181242 Z M22.5544777,3.90526167 C22.1426529,3.90526167 21.8746525,3.71271003 21.6899601,3.42427553 L21.6899601,3.82273954 L20.9826275,3.82273954 L20.9826275,0.540716448 L21.6962475,0.540716448 L21.6962475,2.38056704 C21.6962475,2.92364126 21.9296672,3.22543649 22.3965067,3.22543649 C22.5411169,3.22543649 22.6920146,3.20500244 22.8429122,3.14291436 L23.0629712,3.81566622 C22.9050002,3.8777543 22.6990879,3.90526167 22.5544777,3.90526167 M16.4643443,3.82273954 L15.2972456,3.82273954 L15.2972456,4.81850661 L14.5757664,4.81850661 L14.5757664,3.82273954 L13.9100878,3.82273954 L13.9100878,3.17042173 L14.5757664,3.17042173 L14.5757664,1.67323447 C14.5757664,0.911673082 14.8712742,0.458194316 15.7153577,0.458194316 C16.0250122,0.458194316 16.3818222,0.554077175 16.6081686,0.712048114 L16.4022562,1.32349782 C16.1892705,1.20010758 15.9558508,1.1380195 15.7703725,1.1380195 C15.4135625,1.1380195 15.2972456,1.35807852 15.2972456,1.68738113 L15.2972456,3.17042173 L16.4643443,3.17042173 L16.4643443,3.82273954 Z M5.79383962,0.540716448 L5.79383962,2.60062606 C5.79383962,3.3763341 5.29949275,3.89818835 4.50256473,3.90526167 C4.08366667,3.912335 3.65140788,3.78187144 3.34882672,3.32131935 C3.1224803,3.68520265 2.76567032,3.90526167 2.26425013,3.90526167 C1.91372755,3.90526167 1.57106422,3.80230549 1.30306377,3.41798813 L1.30306377,3.82273954 L0.588657878,3.82273954 L0.588657878,0.540716448 L1.30935117,0.540716448 L1.30935117,2.36013299 C1.30935117,2.92992866 1.62529305,3.23250981 2.11335251,3.23250981 C2.58726533,3.23250981 2.82697248,2.92364126 2.82697248,2.36720631 L2.82697248,0.540716448 L3.54845169,0.540716448 L3.54845169,2.36013299 C3.54845169,2.92992866 3.8777543,3.23250981 4.35166711,3.23250981 C4.83894066,3.23250981 5.0723604,2.92364126 5.0723604,2.36720631 L5.0723604,0.540716448 L5.79383962,0.540716448 Z" id="Shape"></path>
                    </g>
                    <g id="Group" transform="translate(39.654121, 19.909532) scale(-1, 1) rotate(-180.000000) translate(-39.654121, -19.909532) translate(38.654121, 19.409532)" fill="#F79410">
                        <path d="M1.57185014,-5.55111512e-17 L1.57185014,0.479414293 L1.44688805,0.479414293 L1.30227784,0.150111688 L1.15845355,0.479414293 L1.03270554,0.479414293 L1.03270554,-5.55111512e-17 L1.12151508,-5.55111512e-17 L1.12151508,0.361525532 L1.25669419,0.0495132794 L1.34864742,0.0495132794 L1.48382653,0.362311457 L1.48382653,-5.55111512e-17 L1.57185014,-5.55111512e-17 Z M0.778851745,2.77555756e-17 L0.778851745,0.397678086 L0.939180459,0.397678086 L0.939180459,0.478628368 L0.530499422,0.478628368 L0.530499422,0.397678086 L0.690828137,0.397678086 L0.690828137,2.77555756e-17 L0.778851745,2.77555756e-17 Z" id="Shape"></path>
                    </g>
                    <polygon id="Path" fill="#FF5F00" points="26.0164463 22.471799 15.2008599 22.471799 15.2008599 3.03430017 26.0164463 3.03430017"></polygon>
                    <g id="Group" transform="translate(10.675230, 12.826279) scale(-1, 1) rotate(-180.000000) translate(-10.675230, -12.826279) translate(0.175230, 0.326279)" fill="#EB001B">
                        <path d="M15.7185014,12.5748011 C15.7185014,16.5177872 17.5646394,20.0300863 20.4395533,22.2935505 C18.3372037,23.9487087 15.6839207,24.9366166 12.8003616,24.9366166 C5.97381646,24.9366166 0.440118039,19.4021322 0.440118039,12.5748011 C0.440118039,5.74747004 5.97381646,0.212985694 12.8003616,0.212985694 C15.6839207,0.212985694 18.3372037,1.20089351 20.4395533,2.85605171 C17.5646394,5.11951591 15.7185014,8.63181505 15.7185014,12.5748011" id="Path"></path>
                    </g>
                    <g id="Group" transform="translate(30.669164, 12.826279) scale(-1, 1) rotate(-180.000000) translate(-30.669164, -12.826279) translate(20.169164, 0.326279)" fill="#F79E1B">
                        <path d="M20.4340518,12.5748011 C20.4340518,5.74747004 14.9003534,0.212985694 8.07380825,0.212985694 C5.19024916,0.212985694 2.53696613,1.20089351 0.433830639,2.85605171 C3.30953047,5.11951591 5.15566846,8.63181505 5.15566846,12.5748011 C5.15566846,16.5177872 3.30953047,20.0300863 0.433830639,22.2935505 C2.53696613,23.9487087 5.19024916,24.9366166 8.07380825,24.9366166 C14.9003534,24.9366166 20.4340518,19.4021322 20.4340518,12.5748011" id="Path"></path>
                    </g>
                </g>
            </g>
        </g>
    </g>
</svg>