<?xml version="1.0" encoding="UTF-8"?>
<svg width="129px" height="40px" viewBox="0 0 129 40" version="1.1" xmlns="http://www.w3.org/2000/svg" xmlns:xlink="http://www.w3.org/1999/xlink">
    <!-- Generator: Sketch 59.1 (86144) - https://sketch.com -->
    <title>PayPal</title>
    <desc>Created with Sketch.</desc>
    <g id="Page-1" stroke="none" stroke-width="1" fill="none" fill-rule="evenodd">
        <g id="iPhone-11-Copy" transform="translate(-82.000000, -186.000000)">
            <g id="PayPal" transform="translate(82.000000, 186.000000)">
                <rect id="Rectangle" fill="#FFFFFF" x="0" y="0" width="129" height="40" rx="4"></rect>
                <g id="PayPal_2014_logo" transform="translate(10.000000, 6.000000)" fill-rule="nonzero">
                    <path d="M19.8473922,2.07413043 C18.5736965,0.622391304 16.2713052,0 13.3259791,0 L4.77760956,0 C4.17500087,0 3.66293565,0.43826087 3.56858783,1.0325 L0.00924000558,23.6067391 C-0.061520864,24.0518478 0.283153049,24.4551087 0.734348695,24.4551087 L6.01174,24.4551087 L7.33717478,16.0482609 L7.29608783,16.3115217 C7.39043565,15.7172826 7.89869652,15.2790217 8.50054435,15.2790217 L11.0083704,15.2790217 C15.9350009,15.2790217 19.7926096,13.2779348 20.9194574,7.48923913 C20.9529357,7.31804348 20.9818487,7.15141304 21.0069574,6.98858696 C20.8646748,6.91326087 20.8646748,6.91326087 21.0069574,6.98858696 C21.3425009,4.84902174 21.0045226,3.39271739 19.8473922,2.07413043" id="path14499" fill="#003087"></path>
                    <path d="M74.3719139,12.7486009 L71.5315878,12.7486009 C71.2599574,12.7486009 71.005827,12.8832748 70.853653,13.1084922 L66.9351748,18.878927 L65.2749574,13.3337096 C65.1707183,12.986753 64.851153,12.7486009 64.4889791,12.7486009 L61.6973487,12.7486009 C61.3602835,12.7486009 61.1228922,13.08034 61.2316965,13.3991443 L64.3588704,22.5797965 L61.4173487,26.73034 C61.1868052,27.0559922 61.4197835,27.506427 61.8190878,27.506427 L64.6563704,27.506427 C64.9249574,27.506427 65.1768052,27.3747965 65.3305009,27.1541443 L74.7759357,13.5208835 C75.0019139,13.1944704 74.7690574,12.7486009 74.3719139,12.7486009 M55.3831235,18.2488478 C55.1099713,19.863413 53.828667,20.9476522 52.1935583,20.9476522 C51.3741017,20.9476522 50.7174713,20.6836304 50.2959496,20.1845 C49.8782322,19.6899348 49.7207322,18.9846087 49.8531235,18.2001522 C50.1072539,16.5992826 51.4098626,15.4808043 53.0198626,15.4808043 C53.82258,15.4808043 54.4738843,15.7471087 54.9037757,16.2508043 C55.3367104,16.7583043 55.5071452,17.4674348 55.3831235,18.2488478 M59.3213843,12.7485217 L56.4955148,12.7485217 C56.2535583,12.7485217 56.0473626,12.9242826 56.0093191,13.1639565 L55.8852974,13.9537391 L55.6882322,13.6676522 C55.0757322,12.7797174 53.711493,12.4822174 52.3495365,12.4822174 C49.2276887,12.4822174 46.5608409,14.8485217 46.0419278,18.1666739 C45.7718191,19.8223261 46.1552974,21.4041739 47.0942104,22.5081957 C47.9562757,23.5224348 49.1866017,23.9447174 50.6527974,23.9447174 C53.1697539,23.9447174 54.5651887,22.3286304 54.5651887,22.3286304 L54.4388843,23.1138478 C54.3917104,23.4121087 54.6222539,23.6822174 54.92508,23.6822174 L57.4694278,23.6822174 C57.8734496,23.6822174 58.2166017,23.3892826 58.2797539,22.990587 L59.80758,13.3168913 C59.8547539,13.0186304 59.6234496,12.7485217 59.3213843,12.7485217 M42.363653,12.8163913 C42.0410443,14.9346522 40.4234357,14.9346522 38.858327,14.9346522 L37.9681096,14.9346522 L38.5927835,10.9796522 C38.6300357,10.7407391 38.8362617,10.5649783 39.0782183,10.5649783 L39.4868052,10.5649783 C40.5520226,10.5649783 41.5578922,10.5649783 42.0768052,11.1713913 C42.38724,11.5343261 42.480827,12.0730217 42.363653,12.8163913 M41.6826748,7.28943478 L35.7813704,7.28943478 C35.3773487,7.28943478 35.0341965,7.58313043 34.9710443,7.98182609 L32.5849574,23.114 C32.5377835,23.4122609 32.768327,23.6823696 33.0703922,23.6823696 L35.888653,23.6823696 C36.2919139,23.6823696 36.6350661,23.3886739 36.6982183,22.9907391 L37.3426748,18.907913 C37.4050661,18.5092174 37.7489791,18.2155217 38.15224,18.2155217 L40.0194139,18.2155217 C43.9066965,18.2155217 46.1505009,16.3346522 46.7363704,12.6056304 C47.0003922,10.9758478 46.7470226,9.69454348 45.9838704,8.79747826 C45.1446313,7.8113913 43.6571313,7.28943478 41.6826748,7.28943478" id="path14519" fill="#002F86"></path>
                    <path d="M104.743167,7.70525304 L102.321319,23.1143835 C102.274145,23.4126443 102.504689,23.682753 102.806754,23.682753 L105.243058,23.682753 C105.646319,23.682753 105.990232,23.3890574 106.052623,22.9903617 L108.440993,7.85818783 C108.488167,7.55992696 108.257623,7.28981826 107.954797,7.28981826 L105.229363,7.28981826 C104.986645,7.28981826 104.78045,7.46557913 104.743167,7.70525304 M97.4742757,18.2488478 C97.2011235,19.863413 95.9198191,20.9476522 94.2847104,20.9476522 C93.4652539,20.9476522 92.8086235,20.6836304 92.3871017,20.1845 C91.9686235,19.6899348 91.8118843,18.9846087 91.9442757,18.2001522 C92.1984061,16.5992826 93.5010148,15.4808043 95.1110148,15.4808043 C95.9137322,15.4808043 96.5650365,15.7471087 96.9949278,16.2508043 C97.4278626,16.7583043 97.5982974,17.4674348 97.4742757,18.2488478 M101.412537,12.7485217 L98.586667,12.7485217 C98.3447104,12.7485217 98.1385148,12.9242826 98.1004713,13.1639565 L97.9764496,13.9537391 L97.7786235,13.6676522 C97.1668843,12.7797174 95.8026452,12.4822174 94.4406887,12.4822174 C91.3188409,12.4822174 88.651993,14.8485217 88.13308,18.1666739 C87.8629713,19.8223261 88.2464496,21.4041739 89.1853626,22.5081957 C90.0474278,23.5224348 91.2777539,23.9447174 92.7439496,23.9447174 C95.2609061,23.9447174 96.6563409,22.3286304 96.6563409,22.3286304 L96.5300365,23.1138478 C96.4828626,23.4121087 96.7134061,23.6822174 97.0162322,23.6822174 L99.56058,23.6822174 C99.9646017,23.6822174 100.307754,23.3892826 100.370906,22.990587 L101.898732,13.3168913 C101.945906,13.0186304 101.714602,12.7485217 101.412537,12.7485217 M84.4547322,12.8163913 C84.1321235,14.9346522 82.5145148,14.9346522 80.9494061,14.9346522 L80.0591887,14.9346522 L80.6838626,10.9796522 C80.7211757,10.7407391 80.9273409,10.5649783 81.1692974,10.5649783 L81.5778843,10.5649783 C82.6431017,10.5649783 83.6489713,10.5649783 84.1678843,11.1713913 C84.4783191,11.5343261 84.5719061,12.0730217 84.4547322,12.8163913 M83.7737539,7.28943478 L77.8724496,7.28943478 C77.4684278,7.28943478 77.1252757,7.58313043 77.0621235,7.98182609 L74.6760365,23.114 C74.6288626,23.4122609 74.860167,23.6823696 75.1614713,23.6823696 L78.1897322,23.6823696 C78.4720148,23.6823696 78.7124496,23.4769348 78.75658,23.1984565 L79.4337539,18.907913 C79.4961452,18.5092174 79.8400583,18.2155217 80.2433191,18.2155217 L82.110493,18.2155217 C85.9977757,18.2155217 88.24158,16.3346522 88.8274496,12.6056304 C89.0914713,10.9758478 88.8381017,9.69454348 88.0749496,8.79747826 C87.2357104,7.8113913 85.7482104,7.28943478 83.7737539,7.28943478" id="path14523" fill="#009CDE"></path>
                    <path d="M19.8473922,2.07413043 C18.5736965,0.622391304 16.2713052,0 13.3259791,0 L4.77760956,0 C4.17500087,0 3.66293565,0.43826087 3.56858783,1.0325 L0.00924000558,23.6067391 C-0.061520864,24.0518478 0.283153049,24.4551087 0.734348695,24.4551087 L6.01174,24.4551087 L7.33717478,16.0482609 L7.29608783,16.3115217 C7.39043565,15.7172826 7.89869652,15.2790217 8.50054435,15.2790217 L11.0083704,15.2790217 C15.9350009,15.2790217 19.7926096,13.2779348 20.9194574,7.48923913 C20.9529357,7.31804348 20.9818487,7.15141304 21.0069574,6.98858696 C20.8646748,6.91326087 20.8646748,6.91326087 21.0069574,6.98858696 C21.3425009,4.84902174 21.0045226,3.39271739 19.8473922,2.07413043" id="path14527" fill="#003087"></path>
                    <path d="M8.76167478,7.01697043 C8.81797913,6.65936174 9.04776174,6.36642696 9.35667478,6.21805739 C9.49743565,6.15110087 9.65417478,6.11381826 9.81852261,6.11381826 L16.5202617,6.11381826 C17.3138487,6.11381826 18.0541748,6.16555739 18.7305878,6.27436174 C18.9246096,6.30552696 19.1125443,6.34131826 19.295153,6.38240522 C19.4777617,6.42270087 19.6550443,6.46838348 19.8270009,6.51860087 C19.9129791,6.54367913 19.9974357,6.56960957 20.0803704,6.59697043 C20.4128704,6.70805739 20.7225443,6.83740522 21.0071096,6.98881826 C21.342653,4.84849217 21.0046748,3.3929487 19.8475443,2.07436174 C18.5730878,0.622622609 16.2714574,0.000231304348 13.3261313,0.000231304348 L4.77700087,0.000231304348 C4.17515304,0.000231304348 3.66308783,0.438492174 3.56874,1.0327313 L0.00939218,23.6062096 C-0.0613686896,24.0520791 0.283305223,24.4545791 0.73374,24.4545791 L6.01189217,24.4545791 L7.33732696,16.0477313 L8.76167478,7.01697043 Z" id="path14531" fill="#002F86"></path>
                    <path d="M21.0071096,6.98858696 L21.0071096,6.98858696 C20.98124,7.15217391 20.9530574,7.31804348 20.9196096,7.48923913 C19.7927617,13.2771739 15.935153,15.2790217 11.0085226,15.2790217 L8.49993565,15.2790217 C7.89808783,15.2790217 7.38982696,15.7172826 7.29624,16.3115217 L6.01189217,24.4543478 L5.64743565,26.7643478 C5.58580522,27.153913 5.88710957,27.5069565 6.28124,27.5069565 L10.7300443,27.5069565 C11.2565661,27.5069565 11.7047183,27.1234783 11.7868922,26.6038043 L11.8302922,26.3770652 L12.6687704,21.0631522 L12.7228226,20.7694565 C12.8049965,20.2497826 13.2531487,19.8663043 13.7796704,19.8663043 L14.4454313,19.8663043 C18.7549965,19.8663043 22.129453,18.1155435 23.11554,13.0519565 C23.5271704,10.9359783 23.314127,9.16923913 22.2253226,7.92826087 C21.8951052,7.5523913 21.4849965,7.24195652 21.0071704,6.98858696" id="path14535" fill="#009CDE"></path>
                    <path d="M19.8272322,6.51829652 C19.6552757,6.46807913 19.477993,6.42242696 19.2953843,6.38210087 C19.1127757,6.34174435 18.92408,6.30601391 18.7308191,6.27481826 C18.0536452,6.16525304 17.31408,6.11351391 16.5197322,6.11351391 L9.81875391,6.11351391 C9.65364522,6.11351391 9.49690609,6.15082696 9.35690609,6.21851391 C9.04723217,6.36688348 8.81821043,6.65905739 8.76190609,7.01742696 L7.33755826,16.0481878 L7.2964713,16.3114487 C7.39005826,15.7172096 7.89831913,15.2789487 8.50016696,15.2789487 L11.0087539,15.2789487 C15.9353843,15.2789487 19.792993,13.2778617 20.9198409,7.48916609 C20.9533191,7.31797043 20.9814713,7.15210087 21.0073409,6.98851391 C20.7220148,6.83786174 20.4131017,6.70775304 20.0806017,6.59742696 C19.997667,6.57003565 19.9132104,6.54337478 19.8272322,6.51829652" id="path14539" fill="#012069"></path>
                </g>
            </g>
        </g>
    </g>
</svg>