<?xml version="1.0" encoding="UTF-8"?>
<svg width="460px" height="320px" viewBox="0 0 460 320" version="1.1" xmlns="http://www.w3.org/2000/svg" xmlns:xlink="http://www.w3.org/1999/xlink">
    <!-- Generator: Sketch 59.1 (86144) - https://sketch.com -->
    <title>Shape</title>
    <desc>Created with Sketch.</desc>
    <g id="Page-1" stroke="none" stroke-width="1" fill="none" fill-rule="evenodd">
        <path d="M116.231,31.42 C164.302,1.588 211.83,-1.194 243.372,1.785 C274.457159,4.724167 296.144028,13.4992358 300.882742,15.5548015 L301.654,15.896 C304.453,14.34 307.71,13.639 311.249,13.858 C320.402,14.44 330.316,21.104 336.561,27.807 C345.903,23.129 358.419,19.637 374.982,19.637 C390.472,19.637 404.01,22.696 414.99,28.57 C421.175,21.618 431.491,14.462 440.992,13.858 C445.809,13.561 450.126,14.955 453.449,17.92 C468.893,31.693 453.311,63.643 444.743,73.54 C444.886,75.093 444.984,76.657 445.007,78.236 C445.483,110.657 435.325,130.48 410.269,171.24 C384.27508,213.52704 408.750741,246.7824 411.805874,250.646535 L412.071,250.975 C413.917,253.2 414.32,256.302 413.091,258.919 C411.902613,261.450613 409.408711,263.107512 406.628897,263.211774 L406.35,263.217 L404.096,263.217 C411.942,282.973 405.011,305.907 387.04,317.887 C385.769,318.735 384.332,319.141 382.91,319.141 C380.5,319.141 378.135,317.975 376.698,315.819 C374.413,312.392 375.339,307.762 378.766,305.477 C391.45483,297.01745 395.963745,280.433851 389.367295,266.733275 L389.164,266.319 L387.614,263.217 L382.012,263.217 C379.23071,263.217 376.690106,261.670798 375.406167,259.221877 L364.088283,235.657852 C360.57745,228.368945 356.49505,219.9148 352.224,211.113 L347.694126,234.060522 C346.101909,242.0958 344.55832,249.84016 343.068,257.233 C342.382714,260.631119 339.45133,263.097255 336.009711,263.212764 L335.757,263.217 L298.286,263.217 C295.128222,263.217 292.323955,261.230156 291.265424,258.274675 L289.446153,252.692758 C287.446595,246.625278 283.9351,236.1984 280.078,225.788 C262.845,179.27 243.593,174.688 227.035,176.346 C217.714,177.277 197.292,182.532 187.487,185.15 C186.859549,196.044118 182.708453,205.040888 176.955108,212.390027 L176.608,212.829 L169.448,256.96 C168.872386,260.486 165.883331,263.097051 162.335413,263.213913 L162.087,263.218 L162.087,263.216 L106.271,263.216 C103.678,263.216 101.272,261.869 99.915,259.66 L99.3998799,258.806015 C95.794113,252.754671 75.29217,217.10075 65.835,173.693 C64.329,166.781 63.21,160.054 62.43,153.495 C49.346,166.55 35.375,189.303 27.662,204.807 C26.471,207.201 24.09,208.775 21.421,208.931 C21.274,208.94 21.128,208.944 20.983,208.944 C18.475,208.944 16.122,207.682 14.74,205.567 C-6.195,173.523 0.625,144.278 2.866,134.668 C14.53,84.651 45.219,59.171 68.911,46.602 L70.2068496,45.9233748 C91.3292392,35.003566 110.26378,32.10012 116.231,31.42 Z M155.746,248.304 L159.003,228.333 C152.212412,232.707588 145.518377,235.76763 140.594145,237.709879 L139.692,238.061 L142.158,248.304 L155.746,248.304 L159.003,228.333 L155.746,248.304 Z M241.393,16.581 C199.03882,12.69921 159.476945,22.0125063 123.782466,44.2676409 L122.65,44.979 L122.65,44.979 C82.147,70.604 67.909,112.73 80.334,170.188 C87.95529,205.43295 103.768996,236.097599 110.011764,247.319067 L110.563,248.304 L126.815,248.304 L123.601,234.948 C122.681563,231.126312 124.88483,227.264357 128.606406,226.091204 L129.238304,225.902232 C133.661787,224.539547 173.669299,211.33724 172.625348,180.891533 L172.578,179.914 C172.363366,176.484732 174.517798,173.364803 177.773757,172.338054 L179.535302,171.846941 C186.306219,169.992076 213.34821,162.7243 225.551,161.505 C256.218,158.445 277.991,177.222 294.064,220.608 L294.807183,222.625952 C298.088583,231.584946 301.063646,240.34789 303.018252,246.235964 L303.702,248.304 L309.593,248.304 L309.954,174.813 C309.9736,170.78912 313.176926,167.524916 317.165821,167.395958 L317.449,167.392 C321.486255,167.412588 324.759381,170.637713 324.86734,174.645606 L324.87,174.887 L324.509,248.304 L329.648,248.304 L341.394,188.901 L336.236216,178.412308 C332.033573,169.898016 328.122619,162.062612 324.900188,155.754918 L324.265,154.514 C307.98064,122.75523 305.627245,99.5624136 305.008767,80.3238141 L304.956,78.55 L304.939531,77.6831413 C304.91563,75.3693086 305.051333,73.0597778 305.334,70.77 C298.586,61.373 289.819,42.366 292.879,28.393 L291.281197,27.771611 C283.421867,24.7797033 265.26982,18.77022 241.393,16.581 Z M374.98,34.556 C356.035,34.556 340.857,39.865 331.085,49.91 C323.802053,57.3972982 319.727497,67.4607689 319.857033,77.5997806 L319.868,78.143 L319.936938,80.4059898 C320.543535,98.4068421 322.743117,118.523732 337.08311,146.814871 L338.821068,150.218743 C349.499546,171.197492 366.996341,207.320927 378.185241,230.55882 L386.709,248.304 L392.87,248.304 C390.622,243.905 388.304,238.437 386.545,232.084 C382.127,216.127 380.452,191.263 397.56,163.432 L399.811571,159.757614 C423.555266,120.873277 430.479,104.842 430.091,78.458 C429.779,57.235 415.138,34.556 374.98,34.556 Z M89.264,53.681 C84.839,55.399 80.158,57.494 75.383,60.056 C45.193,76.258 25.682,102.501 17.39,138.058 L17.1159598,139.25982 C14.521417,150.909682 12.7235056,167.28309 20.908,185.833 C29.405,170.847 44.749,146.734 61.17,135.127 C60.707,102.486 70.184,75.007 89.264,53.681 Z M355.756,128.063 C357.725,128.063 359.644,128.859 361.036,130.251 C362.419,131.643 363.224,133.562 363.224,135.521 C363.224,137.49 362.419,139.409 361.036,140.792 C359.644,142.184 357.725,142.979 355.756,142.979 C353.797,142.979 351.878,142.184 350.486,140.792 C349.103,139.409 348.308,137.49 348.308,135.521 C348.308,133.562 349.103,131.634 350.486,130.251 C351.877,128.859 353.797,128.063 355.756,128.063 Z M394.905,128.063 C396.874,128.063 398.794,128.859 400.175,130.251 C401.568,131.634 402.363,133.562 402.363,135.521 C402.363,137.49 401.568,139.409 400.175,140.792 C398.793,142.184 396.873,142.979 394.905,142.979 C392.946,142.979 391.027,142.184 389.635,140.792 C388.242,139.409 387.447,137.49 387.447,135.521 C387.447,133.562 388.242,131.634 389.635,130.251 C391.017,128.859 392.946,128.063 394.905,128.063 Z M444.844,27.571 C444.355,27.135 443.567,26.645 441.81,26.763 C436.946,27.072 430.214,31.461 425.768,35.969 C426.845,36.904 427.897,37.864 428.894,38.877 C433.885,43.947 437.797,49.899 440.521,56.423 L441.056043,55.3562057 C446.060541,45.1644304 449.604966,31.8161705 444.844,27.571 Z M310.427,26.763 C308.659,26.646 307.881,27.136 307.393,27.569 C302.88,31.595 305.832,43.8 310.415,53.743 C312.943,48.554 316.291,43.726 320.393,39.509 C321.847,38.015 323.517,36.474 325.416,34.942 C321.117225,30.918175 315.223301,27.236575 310.766913,26.790855 L310.427,26.763 L310.427,26.763 Z" id="Shape" fill="#000000" fill-rule="nonzero"></path>
    </g>
</svg>