<?xml version="1.0" encoding="UTF-8"?>
<svg width="87px" height="40px" viewBox="0 0 87 40" version="1.1" xmlns="http://www.w3.org/2000/svg" xmlns:xlink="http://www.w3.org/1999/xlink">
    <!-- Generator: Sketch 59.1 (86144) - https://sketch.com -->
    <title>VISA</title>
    <desc>Created with Sketch.</desc>
    <defs>
        <path d="M35.2623306,15.2895208 C35.223485,12.2268462 37.9917503,10.5176365 40.0771497,9.50151547 C42.2197952,8.45881581 42.9394625,7.79026132 42.9312844,6.85796516 C42.9149283,5.43089778 41.2220748,4.80118896 39.6375802,4.77665485 C36.8734038,4.73372016 35.2664197,5.52290069 33.9886014,6.11989736 L32.9929255,1.46046103 C34.2748327,0.869597887 36.6485078,0.354381584 39.1100968,0.331891984 C44.8878797,0.331891984 48.6681771,3.18398223 48.6886222,7.6062555 C48.7111118,13.2184331 40.9256209,13.5291985 40.9787782,16.0378112 C40.9971788,16.7983686 41.7229795,17.6100387 43.3136076,17.8165341 C44.1007436,17.9208041 46.2740569,18.00054 48.7376904,16.8658374 L49.7047432,21.37398 C48.3799013,21.8564842 46.6768252,22.3185433 44.5566692,22.3185433 C39.1182749,22.3185433 35.2929983,19.4276073 35.2623306,15.2895208 M58.9970372,21.9300865 C57.9420705,21.9300865 57.052709,21.3146893 56.6560743,20.3701261 L48.4023909,0.663102464 L54.1760847,0.663102464 L55.3250988,3.83822516 L62.3806999,3.83822516 L63.0472098,0.663102464 L68.1359931,0.663102464 L63.6953192,21.9300865 L58.9970372,21.9300865 M59.8046183,16.1850159 L61.4708933,8.19916315 L56.9075489,8.19916315 L59.8046183,16.1850159 M28.2619313,21.9300865 L23.710854,0.663102464 L29.2126281,0.663102464 L33.7616609,21.9300865 L28.2619313,21.9300865 M20.1227405,21.9300865 L14.3960704,7.45496183 L12.0796415,19.7629068 C11.8077218,21.136817 10.7343545,21.9300865 9.54240566,21.9300865 L0.180598307,21.9300865 L0.0497497224,21.3126448 C1.97158831,20.8955649 4.15512407,20.2229214 5.47792149,19.5032542 C6.28754711,19.0636847 6.51857664,18.679317 6.78436283,17.6345728 L11.1718794,0.663102464 L16.9864634,0.663102464 L25.9005233,21.9300865 L20.1227405,21.9300865" id="path-1"></path>
        <linearGradient x1="16.1481739%" y1="39.9345319%" x2="85.8318643%" y2="60.5490403%" id="linearGradient-3">
            <stop stop-color="#222357" offset="0%"></stop>
            <stop stop-color="#254AA5" offset="100%"></stop>
        </linearGradient>
    </defs>
    <g id="Page-1" stroke="none" stroke-width="1" fill="none" fill-rule="evenodd">
        <g id="iPhone-11-Copy" transform="translate(-103.000000, -109.000000)">
            <g id="VISA" transform="translate(103.000000, 109.000000)">
                <rect id="Rectangle" fill="#FFFFFF" x="0" y="0" width="87" height="40" rx="4"></rect>
                <g id="Visa_2014_logo_detail" transform="translate(8.000000, 8.000000)">
                    <g id="g10267" transform="translate(34.586970, 12.464782) scale(-1, 1) rotate(-180.000000) translate(-34.586970, -12.464782) translate(0.086970, 0.964782)">
                        <g id="g10269-Clipped">
                            <mask id="mask-2" fill="white">
                                <use xlink:href="#path-1"></use>
                            </mask>
                            <g id="path10273"></g>
                            <g id="g10269" mask="url(#mask-2)">
                                <g transform="translate(-7.083734, -22.076801)" id="g10275">
                                    <g transform="translate(0.003598, 0.197827)">
                                        <polyline id="path10283" fill="url(#linearGradient-3)" fill-rule="nonzero" points="0 41.5716858 67.0851154 66.2775343 82.3466946 24.8360155 15.2622607 0.130167082"></polyline>
                                    </g>
                                </g>
                            </g>
                        </g>
                    </g>
                </g>
            </g>
        </g>
    </g>
</svg>