<svg xmlns="http://www.w3.org/2000/svg" viewBox="0 0 117.76 71.12"><defs><style>.cls-1{fill:none;stroke:#30e3ca;stroke-linecap:round;stroke-linejoin:round;stroke-width:3.68px;}</style></defs><title>Asset 17</title><g id="Layer_2" data-name="Layer 2"><g id="Objects"><path class="cls-1" d="M60.76,42.28C62.6,56.38,71.58,65.34,75.46,68c4.45,3.06,19.93,0,29.42-3,11.87-3.68,11-10.34,11-11.72,0-1.84-1.84-3.83-1.84-3.83-3,2.3-15.47,9.46-25.74,9.46,0,0-1.84-22.52,8.25-32.63,0,0-8.25-17.12-23-17.12-9.88,0-12.87,5.52-12.87,5.52"/><path class="cls-1" d="M71.79,66.18c-1.07.77-3.53,2.14-7.35-1.84S36.86,36.61,36.86,33.09c0-5.67,3.68-7.35,3.68-7.35"/><path class="cls-1" d="M60.76,34.93c-2.45-2.15-11-3.1-14.71-3.68-2.87-.45-3.83-7.89-3.67-9.19.32-2.74,18.72-8.16,20.22-5.51,4.06,7.18-1.84,11.72-1.84,18.38"/><path class="cls-1" d="M40.26,38.44S9,33.9,1.93,33.09C1.48,33,2.23,17,14.8,16.55c4.44-.16,23.9,9.19,23.9,9.19"/><path class="cls-1" d="M47.89,47.8H36.63c-3.56,0-7.81-6.09-3.53-10.08"/><path class="cls-1" d="M36.86,31.25s-12.69-3.61-21-4.94"/><path class="cls-1" d="M55.35,16.12c-.59-1.23-1.14-5.05-7.46-5.05S29.1,18.94,29.59,21.59"/><path class="cls-1" d="M60.76,33.55S57.18,27.17,54.32,24"/><line class="cls-1" x1="96.58" y1="26.31" x2="99.98" y2="32.25"/><line class="cls-1" x1="92.14" y1="33.35" x2="95.69" y2="37"/><line class="cls-1" x1="89.74" y1="40.94" x2="93.31" y2="43.36"/><path class="cls-1" d="M114.07,49.48c-1.76-2.63-3.71-5.66-6-8.54"/><path class="cls-1" d="M108.4,52.93a73.71,73.71,0,0,0-4.6-6.82"/><path class="cls-1" d="M101.9,55.92a32.64,32.64,0,0,0-3.27-5.52"/><path class="cls-1" d="M82.82,31.25A1.84,1.84,0,1,1,81,29.41,1.84,1.84,0,0,1,82.82,31.25Z"/><path class="cls-1" d="M99.36,3.68a1.84,1.84,0,1,1-1.84-1.84A1.84,1.84,0,0,1,99.36,3.68Z"/><path class="cls-1" d="M97.52,3.68s-5.38,7.92-5.38,15.84"/></g></g></svg>