<svg xmlns="http://www.w3.org/2000/svg" viewBox="0 0 117.76 112.42"><defs><style>.cls-1{fill:none;stroke:#30e3ca;stroke-linecap:round;stroke-linejoin:round;stroke-width:3.68px;}</style></defs><title>Asset 21</title><g id="Layer_2" data-name="Layer 2"><g id="Objects"><path class="cls-1" d="M113.34,41.5,80.8,43.2a10.92,10.92,0,0,1-11.11-8.08L61.25,3.66a2.45,2.45,0,0,0-4.74,0L48.07,35.12A10.92,10.92,0,0,1,37,43.2L4.42,41.5A2.45,2.45,0,0,0,3,46L30.28,63.75a10.92,10.92,0,0,1,4.24,13.07L22.86,107.24A2.45,2.45,0,0,0,26.69,110L52,89.53a10.9,10.9,0,0,1,13.74,0L91.07,110a2.45,2.45,0,0,0,3.83-2.78L83.24,76.82a10.92,10.92,0,0,1,4.24-13.07L114.8,46A2.45,2.45,0,0,0,113.34,41.5Z"/><circle class="cls-1" cx="58.88" cy="62.22" r="7.36"/><line class="cls-1" x1="23.92" y1="110.06" x2="53.36" y2="69.77"/><line class="cls-1" x1="64.4" y1="69.77" x2="93.84" y2="110.06"/><line class="cls-1" x1="51.52" y1="59.76" x2="3.68" y2="43.82"/><line class="cls-1" x1="66.24" y1="59.76" x2="114.08" y2="43.82"/><line class="cls-1" x1="58.88" y1="54.86" x2="58.88" y2="3.34"/><line class="cls-1" x1="42.32" y1="68.59" x2="51.52" y2="65.05"/><line class="cls-1" x1="53.53" y1="54.86" x2="47.84" y2="47.04"/><line class="cls-1" x1="75.44" y1="68.59" x2="66.24" y2="65.05"/><line class="cls-1" x1="64.4" y1="54.63" x2="69.92" y2="47.04"/><line class="cls-1" x1="58.88" y1="69.58" x2="58.88" y2="78.78"/></g></g></svg>