<svg xmlns="http://www.w3.org/2000/svg" viewBox="0 0 117.76 116.16"><defs><style>.cls-1{fill:none;stroke:#30e3ca;stroke-linecap:round;stroke-linejoin:round;stroke-width:3.68px;}</style></defs><title>Asset 22</title><g id="Layer_2" data-name="Layer 2"><g id="Objects"><circle class="cls-1" cx="58.88" cy="58.12" r="16.56"/><line class="cls-1" x1="42.32" y1="58.12" x2="1.84" y2="58.12"/><line class="cls-1" x1="115.92" y1="58.12" x2="75.44" y2="58.12"/><line class="cls-1" x1="58.88" y1="67.32" x2="58.88" y2="107.8"/><line class="cls-1" x1="58.88" y1="6.6" x2="58.88" y2="47.08"/><line class="cls-1" x1="62.56" y1="61.8" x2="94.2" y2="93.44"/><line class="cls-1" x1="23.92" y1="23.06" x2="55.3" y2="54.44"/><line class="cls-1" x1="46.56" y1="69.52" x2="17.94" y2="98.14"/><line class="cls-1" x1="99" y1="17.08" x2="70.38" y2="45.7"/><line class="cls-1" x1="53.64" y1="69.28" x2="36.54" y2="110.57"/><line class="cls-1" x1="80.18" y1="5.2" x2="65.01" y2="41.82"/><line class="cls-1" x1="74.93" y1="64.87" x2="104.99" y2="77.32"/><line class="cls-1" x1="9.31" y1="37.61" x2="42.76" y2="51.46"/><line class="cls-1" x1="47.91" y1="61.98" x2="16.01" y2="75.2"/><line class="cls-1" x1="100.62" y1="40.15" x2="66.22" y2="54.4"/><line class="cls-1" x1="65.24" y1="73.26" x2="82.24" y2="114.32"/><line class="cls-1" x1="35.73" y1="1.84" x2="52.09" y2="41.33"/></g></g></svg>