<svg xmlns="http://www.w3.org/2000/svg" viewBox="0 0 117.76 88.2"><defs><style>.cls-1{fill:none;stroke:#30e3ca;stroke-linecap:round;stroke-linejoin:round;stroke-width:3.68px;}</style></defs><title>Asset 23</title><g id="Layer_2" data-name="Layer 2"><g id="Objects"><ellipse class="cls-1" cx="58.88" cy="44.53" rx="26.62" ry="17.11"/><line class="cls-1" x1="45.57" y1="27.42" x2="45.57" y2="31.22"/><line class="cls-1" x1="72.19" y1="27.42" x2="72.19" y2="31.22"/><path class="cls-1" d="M34.16,35c.07-2.61-1.9-4.63-5.7-5.7S20,28.13,19,31.22s4.83,13.31,7.61,13.31C29.65,44.53,34,39.78,34.16,35Z"/><path class="cls-1" d="M23.23,28.64a7.24,7.24,0,0,1-.48-6.92c1.3-3.22,15.93-24.37,26.62-19"/><path class="cls-1" d="M53.18,10.31c-1.51,3-15.85,17.11-22.82,19.7"/><path class="cls-1" d="M53.18,10.31S43.67,15.38,38,14.11A18.58,18.58,0,0,1,49.37,2.7"/><path class="cls-1" d="M64.58,10.31s9.51,5.07,15.21,3.8A18.58,18.58,0,0,0,68.39,2.7"/><path class="cls-1" d="M51.27,59.74A53.29,53.29,0,0,1,46.11,65a1.88,1.88,0,0,1-1.25.48H27.34A1.93,1.93,0,0,0,26,66L15.71,76.3a1.88,1.88,0,0,0-.56,1.34v8.72"/><path class="cls-1" d="M45.57,57.84l-1.21,1.21a1.91,1.91,0,0,1-1.66.53L21.38,56a1.86,1.86,0,0,0-1,.11l-8.55,3.42a2,2,0,0,0-.78.57l-7,8.71a1.9,1.9,0,0,0-.4.92L1.84,82.56"/><path class="cls-1" d="M36.06,52.14l-12.9-1.85a1.83,1.83,0,0,1-.75-.27L1.84,36.93"/><path class="cls-1" d="M32.26,48.33,21.13,42.77a1.72,1.72,0,0,1-.49-.36l-8.89-8.88a2,2,0,0,1-.52-1L9.45,23.62"/><path class="cls-1" d="M83.6,35c-.07-2.61,1.9-4.63,5.7-5.7s8.44-1.19,9.51,1.9S94,44.53,91.2,44.53C88.11,44.53,83.72,39.78,83.6,35Z"/><path class="cls-1" d="M94.53,28.64A7.24,7.24,0,0,0,95,21.72c-1.3-3.22-15.93-24.37-26.62-19"/><path class="cls-1" d="M64.58,10.31c1.51,3,15.85,17.11,22.82,19.7"/><path class="cls-1" d="M66.49,59.74A53.29,53.29,0,0,0,71.65,65a1.88,1.88,0,0,0,1.25.48H90.42a1.93,1.93,0,0,1,1.34.55l10.29,10.3a1.88,1.88,0,0,1,.56,1.34v8.72"/><path class="cls-1" d="M72.19,57.84l1.21,1.21a1.91,1.91,0,0,0,1.66.53L96.38,56a1.86,1.86,0,0,1,1,.11L106,59.56a2,2,0,0,1,.78.57l7,8.71a1.9,1.9,0,0,1,.4.92l1.83,12.8"/><path class="cls-1" d="M81.7,52.14l12.9-1.85a1.83,1.83,0,0,0,.75-.27l20.57-13.09"/><path class="cls-1" d="M85.5,48.33l11.13-5.56a1.72,1.72,0,0,0,.49-.36L106,33.53a2,2,0,0,0,.52-1l1.78-8.94"/></g></g></svg>