<svg xmlns="http://www.w3.org/2000/svg" viewBox="0 0 117.76 88.99"><defs><style>.cls-1{fill:none;stroke:#30e3ca;stroke-linecap:round;stroke-linejoin:round;stroke-width:3.68px;}</style></defs><title>Asset 24</title><g id="Layer_2" data-name="Layer 2"><g id="Objects"><path class="cls-1" d="M35,14.72c.77-2.91,1.71-5,7.36-5.52,12.76-1.27,22.88-3.57,31.28,0C79.29,11.61,95.68,11,95.68,11S66.55,16.56,57.05,23.92c-4.29,3.31-18.71-1.54-20.24-3.68C35.73,18.73,35,14.72,35,14.72Z"/><line class="cls-1" x1="68.09" y1="12.88" x2="68.09" y2="12.88"/><path class="cls-1" d="M35,14.72c-.69-2.07-.56-5.52-5.52-5.52-3.45,0-19.2-.69-22.07,3.68a21.91,21.91,0,0,0-3.68,9.2s5.84.29,7.36,5.52c1.84,6.32,12,4.14,18.39,1.84,7.71-2.76,8.86-5,7.36-9.2"/><path class="cls-1" d="M25.77,9.2c0,10.23,5.52,7.7,5.52,18.4"/><path class="cls-1" d="M17,9.72c1.92,1.69,1,5.46-.47,8.68C14,24.12,16.23,30,20.25,31.28"/><path class="cls-1" d="M5.54,23.92s-4,26.21-3.68,29.43,2.3,3.84,3.68,1.84S12.9,31.28,12.9,31.28"/><path class="cls-1" d="M5.54,31.28c2.87,1.15,1.61,8.85,3.68,9.19"/><line class="cls-1" x1="3.7" y1="44.15" x2="7.38" y2="49.67"/><path class="cls-1" d="M3.7,57c0,4.83,3.56,15.06,7.36,18.4"/><path class="cls-1" d="M81,14.72c5.67,0,25,2.41,31.27,11,4.91,6.74-1.84,46.3-11,55.19-7,6.79-45.07,8-71.75,3.68"/><path class="cls-1" d="M115.92,1.84c-6.78,2.87-25.53,5.52-49.67,5.52"/><path class="cls-1" d="M95.68,11c9,0,18.09.46,20.24,7.36"/><path class="cls-1" d="M33.13,27.6s7.21,1.53,9.2,7.36"/><path class="cls-1" d="M27.61,30.05s5.77,1.3,7.36,8.58"/><path class="cls-1" d="M20.94,31.75s6.67,4.35,6.67,10.56"/><path class="cls-1" d="M12.44,35s6.89,2.22,7.81,9.19"/><path class="cls-1" d="M37.18,21.49c5.46,6.09,18.26,11.63,29.07,11.63,3.3,0,5.52,3.91,4.44,7.35L66.25,58.26s-5.75,3.37-7.25,0"/><path class="cls-1" d="M90.32,47.83c-.31,0-9.51-16.55-9.51-16.55L71.92,27.6s-22.6,3.88-29.59-3.68"/><path class="cls-1" d="M97.69,32.77C96.3,32.35,90,25.94,90,25.94L71.61,22.38S60.19,30.43,49,27.6"/></g></g></svg>