<svg xmlns="http://www.w3.org/2000/svg" viewBox="0 0 117.76 36.8"><defs><style>.cls-1{fill:none;stroke:#30e3ca;stroke-linecap:round;stroke-linejoin:round;stroke-width:3.68px;}</style></defs><title>Asset 7</title><g id="Layer_2" data-name="Layer 2"><g id="Objects"><path class="cls-1" d="M44.16,9.2s-8.62-7.36-11-7.36-11,2.3-11,3.68,3.68,7.36,3.68,7.36"/><path class="cls-1" d="M27,20.79c-2.07,1.84-3.08,3.24-3.08,5s5.18,5.06,7.36,3.68,7.36-5.52,7.36-5.52"/><path class="cls-1" d="M64.4,25.76c0,1.92-1.69,7.21-3.68,9.2A15.15,15.15,0,0,1,57,25.76"/><path class="cls-1" d="M92,22.08l-7.36,11s-4.37-3-2.89-7.36a5.92,5.92,0,0,1,1-1.84C86.25,19.66,92,22.08,92,22.08Z"/><path class="cls-1" d="M81,25.76H55.2c-7.36,0-24.69-5.52-29.44-5.52S5.37,25.76,3.68,25.76s-1.84-.31-1.84-1.84S9.2,18.09,9.2,16.56,1.84,10.73,1.84,9.2,2,7.36,3.68,7.36,21,12.88,25.76,12.88,47.84,7.36,55.2,7.36H88.32c5.3,0,20.72,5.22,25.9,6.87a2.45,2.45,0,0,1,1.7,2.33h0a2.45,2.45,0,0,1-1.7,2.33c-4.67,1.48-17.66,5.88-24.06,6.73"/><path class="cls-1" d="M18.23,21.52a5.25,5.25,0,0,1,0-9.91"/><path class="cls-1" d="M91.62,7.74c-.54.77-4,5.69-1.69,13.66"/><polygon class="cls-1" points="101.2 14.72 101.2 14.72 101.2 14.72 101.2 14.72 101.2 14.72"/><line class="cls-1" x1="28.12" y1="2.76" x2="33.12" y2="11.04"/></g></g></svg>