<svg xmlns="http://www.w3.org/2000/svg" viewBox="0 0 117.76 57.33"><defs><style>.cls-1{fill:none;stroke:#30e3ca;stroke-linecap:round;stroke-linejoin:round;stroke-width:3.68px;}</style></defs><title>Asset 25</title><g id="Layer_2" data-name="Layer 2"><g id="Objects"><path class="cls-1" d="M49.68,18.69s-.69-1.84-5.52-1.84c-9,0-19.78,3.68-25.76,3.68"/><path class="cls-1" d="M49.68,27.89c-.61-.92-3.45-6.09,0-9.2,4.84-4.35,14.41,3.68,18.4,3.68"/><path class="cls-1" d="M16.56,26s-3.57,3-9.2.24C5,25.1,1.84,23.09,1.84,23.09"/><path class="cls-1" d="M18.4,20.53s-5.41-3.38-11-.61C5,21.07,1.84,23.09,1.84,23.09"/><line class="cls-1" x1="53.36" y1="22.37" x2="53.36" y2="22.37"/><path class="cls-1" d="M68.08,22.37c5.4,0,8.74-7.36,16.56-7.36,12,0,14.87,18.4,31.28,18.4"/><path class="cls-1" d="M86.48,55.49c6.21,0,8.22-7.57,0-11C73.75,39.09,70.23,32,64.4,27.89c0,0-.64-1.49-5.52,0-6.79,2.07-9.66,1.84-16.56,1.84C32.05,29.73,18.4,26,16.56,26"/><path class="cls-1" d="M64.4,27.89c13.22-.8,16.44,12.08,35,11,13.8-.77,16.56,5.52,16.56,5.52"/><path class="cls-1" d="M104.88,48.13c-9,0-13.23-22.08-36.8-22.08"/><path class="cls-1" d="M68.08,26.05c18.17-8.51,35.65,7.25,47.84-3.68"/><path class="cls-1" d="M71.76,24.21C96.29,16.7,86.17,3.82,38.64,9.49"/><path class="cls-1" d="M71.87,24.21C103.19,14.13,93.53-6.91,23.92,5.81"/></g></g></svg>