<svg xmlns="http://www.w3.org/2000/svg" viewBox="0 0 117.76 42.5"><defs><style>.cls-1{fill:none;stroke:#30e3ca;stroke-linecap:round;stroke-linejoin:round;stroke-width:3.68px;}</style></defs><title>Asset 8</title><g id="Layer_2" data-name="Layer 2"><g id="Objects"><polygon class="cls-1" points="103.05 20.43 103.05 20.43 103.05 20.43 103.05 20.43 103.05 20.43"/><path class="cls-1" d="M27.66,29.63c16.55,0,19.31,5.1,31.26,5.51,33.56,1.15,57-12.87,57-12.87,0-1.07-27.12-12.87-33.1-12.87-15.32,0-41.37,9.19-55.16,9.19-9.65,0-18.54-5.51-25.74-5.51,0,0-.93,4.07,3.67,7.35,1.61,1.15,3.68,2.42,3.68,3.68"/><path class="cls-1" d="M27.66,29.63c-9.65,0-18.54,5.51-25.74,5.51,0,0-.93-4.06,3.67-7.35,1.61-1.15,3.68-2.42,3.68-3.68"/><path class="cls-1" d="M20.11,18.59a20.92,20.92,0,0,0,0,11"/><path class="cls-1" d="M55.24,13.08s-3.9-5.37-9.19-7.36C44.21,5,34.32,11.81,29.5,13.08l3.09,5.21"/><path class="cls-1" d="M82.82,9.4c0-1.38-3.68-7.35-3.68-7.35S66.27-.6,58.92,13.08"/><path class="cls-1" d="M51.56,35.14c-2.91,2.15-6.5,5.64-11,3.68C36.62,37.14,35,36.52,35,31.47"/><path class="cls-1" d="M84.66,33.3c-.34,1.27-3.45,5.29-9.19,7.36a15.32,15.32,0,0,1-1.84-5.52"/><path class="cls-1" d="M82.82,22.27h-11c0,4.6,5.52,5.52,5.52,5.52"/><path class="cls-1" d="M99.37,14.92s-9.19,4.36-9.19,7.35,5.51,7.36,5.51,7.36"/><line class="cls-1" x1="86.5" y1="11.24" x2="86.5" y2="14.92"/><line class="cls-1" x1="79.14" y1="11.24" x2="79.14" y2="14.92"/><line class="cls-1" x1="71.79" y1="12.24" x2="71.79" y2="15.91"/><line class="cls-1" x1="64.43" y1="13.69" x2="64.43" y2="17.37"/><line class="cls-1" x1="57.08" y1="14.92" x2="57.08" y2="18.59"/><line class="cls-1" x1="49.72" y1="16.76" x2="49.72" y2="20.43"/><line class="cls-1" x1="42.37" y1="18.59" x2="42.37" y2="22.27"/><line class="cls-1" x1="35.01" y1="19.9" x2="35.01" y2="23.57"/><line class="cls-1" x1="27.66" y1="20.43" x2="27.66" y2="24.11"/></g></g></svg>