<svg xmlns="http://www.w3.org/2000/svg" viewBox="0 0 117.76 53.36"><defs><style>.cls-1{fill:none;stroke:#30e3ca;stroke-linecap:round;stroke-linejoin:round;stroke-width:3.68px;}</style></defs><title>Asset 9</title><g id="Layer_2" data-name="Layer 2"><g id="Objects"><path class="cls-1" d="M5.52,27.6c0-5.29-3.68-14.72-3.68-14.72,15,0,14.49,13.34,27.6,7.36S74.75,12.88,81,12.88s29,8,35,11"/><path class="cls-1" d="M5.52,27.6c0,5.29-3.68,14.72-3.68,14.72,15,0,14.76-13.9,27.6-7.36C46.31,43.55,62,42.32,79.12,42.32s32.51-7.51,36.8-11h-7.36s2.76-6,7.36-7.36"/><line class="cls-1" x1="104.88" y1="25.76" x2="104.88" y2="25.76"/><path class="cls-1" d="M97.52,38.64c-1.23-2.15-3.68-8-3.68-11,0,0,3.83-6.29,11-8.12"/><path class="cls-1" d="M66.24,12.88s.34-5.41-5.52-11l-11,9.2,3.68,3.68"/><path class="cls-1" d="M27.6,35l3.68,11s4.71-.58,9.2-5.52"/><path class="cls-1" d="M93.84,25.76c-6.9-4.75-27.45-8-58.88,0-14.82,3.76-20.24,0-20.24,0"/><path class="cls-1" d="M18.4,35s-5.52-2.53-5.52-7.36,5.52-7.36,5.52-7.36"/><path class="cls-1" d="M53.36,42.32v9.2s8-1.5,9.2-9.2"/><path class="cls-1" d="M95.68,35S87.63,29.44,81,29.44s.39,8.07,1.84,9.2c1,.8,11,1.84,11,1.84"/></g></g></svg>