<svg xmlns="http://www.w3.org/2000/svg" viewBox="0 0 117.76 36.81"><defs><style>.cls-1{fill:none;stroke:#30e3ca;stroke-linecap:round;stroke-linejoin:round;stroke-width:3.68px;}</style></defs><title>Asset 11</title><g id="Layer_2" data-name="Layer 2"><g id="Objects"><path class="cls-1" d="M35,27.6c-.92,3.22-1.84,5.52-1.84,5.52s5.64-.92,7.36-5.52"/><line class="cls-1" x1="75.44" y1="22.08" x2="75.44" y2="22.08"/><path class="cls-1" d="M14.72,20.24S34,21.84,54.37,22.06a4.27,4.27,0,0,1,4.2,4.87c-.4,2.73-1.32,6-3.37,8a14,14,0,0,0,11-9.2"/><path class="cls-1" d="M14.72,18.4s25.15-4.91,40.48-5.52c5.22-.21,3.53-11.07,3.68-11,7.36,1.61,7.95,8.65,11,11,12.8,9.89,24.84,9.2,46,9.2"/><path class="cls-1" d="M57,29.21a219.91,219.91,0,0,1-42.32-7.13"/><path class="cls-1" d="M99.36,22.08c-16.13,0-20.13,6.73-33.12,7.32"/><path class="cls-1" d="M1.84,33.12c8.28-4.48,11-11,11-11V18.4s-2.76-6.55-11-11"/><path class="cls-1" d="M1.84,33.12C6,28.64,7.36,20.24,7.36,20.24h0S6,11.85,1.84,7.36"/></g></g></svg>