<svg xmlns="http://www.w3.org/2000/svg" viewBox="0 0 117.76 70.85"><defs><style>.cls-1{fill:none;stroke:#30e3ca;stroke-linecap:round;stroke-linejoin:round;stroke-width:3.68px;}</style></defs><title>Asset 12</title><g id="Layer_2" data-name="Layer 2"><g id="Objects"><path class="cls-1" d="M34.34,21.75c-3.78.74-23,9.7-30.86,17.73,0,0,11.14-4,18.93-4,7.6,0,12.77,2.44,15,5.61,4.44,6.43,3.91,20.14-.15,27.9,0,0,13.09-10,13.09-22.29,0-8.88,1.25-20.41,5.45-20.41,0,0,10.74,10.71,17.15,12.93,11.45,4,33.07,1.76,43-15,0,0-14-16.83-33.66-16.83-15.43,0-12.68,7.12-31.8,11.22-21.81,4.68-40,5.3-48.62,13.09H13.06"/><path class="cls-1" d="M76.65,7.45c-1-1-7.33-5.61-13.09-5.61a11.5,11.5,0,0,0,3.74,9.35"/><path class="cls-1" d="M82.26,43,72.91,54.2a12,12,0,0,0-7.48-7.48c-.12,0,7.48-7.48,7.48-7.48"/><path class="cls-1" d="M37.37,43C35.81,50.46,31.76,56.39,28,61.69c-.12.18,7.17.93,11.22-3.75"/><path class="cls-1" d="M93.48,26.15C91.14,27.87,87.24,28,84.13,28,83.91,28,86,25.57,86,22.41s-2.09-5.61-1.87-5.61a20.48,20.48,0,0,1,9.35,1.87"/><circle class="cls-1" cx="102.84" cy="22.4" r="0.01"/><path class="cls-1" d="M115.92,24.28c-2.57,3.63-14.91,4.52-20.57,7.48-7.6,4-5.73,9.35-13.09,9.35"/></g></g></svg>