<svg xmlns="http://www.w3.org/2000/svg" viewBox="0 0 117.76 64.34"><defs><style>.cls-1{fill:none;stroke:#30e3ca;stroke-linecap:round;stroke-linejoin:round;stroke-width:3.68px;}</style></defs><title>Asset 13</title><g id="Layer_2" data-name="Layer 2"><g id="Objects"><path class="cls-1" d="M104.78,38.6a5.19,5.19,0,0,1,3.67-1.84s4.75.77,5.52,0,4-2.6,0-5.51-12-8.63-16.55-12.87c-5.2-4.9-14.7-5.51-23.89-5.51-8.89,0-10.11,3.83-20.22,5.51-9.37,1.56-14.9,8.32-22.06,11C19.92,33.7,6.74,29,1.84,34.93c0,0,11,5.36,11,7.35S11,55,11,55.15c0,1.45,7.83-4.75,12.87-12.87,2.76-4.44,8.88-6.74,16.54-3.68,4.87,1.95,9,4.88,16.54,7.36,15,4.9,33.86,3.48,40.44,1.83C103.55,46.26,114.58,42,114,38.6"/><path class="cls-1" d="M20.22,33.09c-.3,2-.61,5,3.68,7.35"/><path class="cls-1" d="M91.91,14.71c2.6-3.37,2-9.14,1.84-9.19C92.22,4.9,89,4.44,84.56,1.84c0,0-12,2.45-20.22,3.68L57,16.55"/><path class="cls-1" d="M53.31,18.38S44.12,11,42.28,11c-2.91,0-11.49,4.29-12.87,11H42.28"/><path class="cls-1" d="M47.79,42.28H38.6s1.08,11,1.84,11c5.21,0,12-5.06,12.87-7.35"/><path class="cls-1" d="M82.72,49.63c0,3.37-5.82,12.87-11,12.87-.15,0-1.84-12.87-1.84-12.87"/><path class="cls-1" d="M88.64,34.8s-10.4-3.55-15.11-3.55c0,0-.55,6,1.92,8.42s6,2.61,10.94,2.61"/><line class="cls-1" x1="104.78" y1="31.25" x2="104.78" y2="31.25"/><path class="cls-1" d="M95.59,25.85a19.27,19.27,0,0,0-7.36,5.4s0,15.29,13.41,15.29"/></g></g></svg>