<svg xmlns="http://www.w3.org/2000/svg" viewBox="0 0 117.76 74.98"><defs><style>.cls-1{fill:none;stroke:#30e3ca;stroke-linecap:round;stroke-linejoin:round;stroke-width:3.68px;}</style></defs><title>Asset 14</title><g id="Layer_2" data-name="Layer 2"><g id="Objects"><path class="cls-1" d="M97.52,44.85s-5.52.92-7.36-5.52"/><path class="cls-1" d="M92,50.37a7,7,0,0,1-5.52-3.68"/><path class="cls-1" d="M1.84,37.49A17.58,17.58,0,0,0,7.36,50.37S11.73,43,25.76,43s13.57,22.08,36.8,22.08c29.44,0,49.45-20.7,53.36-25.76,0,0-5.52-1.6-5.52-1.84,0-4,5.52-7.36,5.52-7.36C112.93,28.29,92,9.89,62.56,9.89,39.33,9.89,39.79,32,25.76,32s-18.4-7.36-18.4-7.36A17.58,17.58,0,0,0,1.84,37.49"/><path class="cls-1" d="M105.71,23.06c-.6-2.59-16.77-21.22-49.36-21.22-24.15,0-21.91,30-28.55,30"/><path class="cls-1" d="M104.88,50.37c-.6,2.59-13.8,22.77-48.53,22.77-24.15,0-21.91-29.95-28.55-29.95"/><polygon class="cls-1" points="103.04 28.29 103.04 28.29 103.04 28.29 103.04 28.29 103.04 28.29"/><polygon class="cls-1" points="104.88 35.65 104.88 35.65 104.88 35.65 104.88 35.65 104.88 35.65"/><line class="cls-1" x1="90.16" y1="13.57" x2="90.16" y2="9.89"/><line class="cls-1" x1="82.8" y1="11.73" x2="82.8" y2="8.05"/><line class="cls-1" x1="75.44" y1="9.89" x2="75.44" y2="4.37"/><line class="cls-1" x1="68.08" y1="9.89" x2="68.08" y2="4.37"/><line class="cls-1" x1="60.72" y1="9.89" x2="60.72" y2="2.53"/><line class="cls-1" x1="53.36" y1="9.89" x2="53.36" y2="2.53"/><line class="cls-1" x1="46" y1="15.41" x2="46" y2="4.37"/><line class="cls-1" x1="38.64" y1="22.77" x2="38.64" y2="11.73"/><line class="cls-1" x1="90.16" y1="59.57" x2="90.16" y2="63.25"/><line class="cls-1" x1="82.8" y1="63.25" x2="82.8" y2="66.93"/><line class="cls-1" x1="75.44" y1="65.09" x2="75.44" y2="70.61"/><line class="cls-1" x1="68.08" y1="65.09" x2="68.08" y2="70.61"/><line class="cls-1" x1="60.72" y1="65.09" x2="60.72" y2="72.45"/><line class="cls-1" x1="53.36" y1="65.09" x2="53.36" y2="72.45"/><line class="cls-1" x1="46" y1="59.57" x2="46" y2="70.61"/><line class="cls-1" x1="38.64" y1="52.21" x2="38.64" y2="63.25"/><line class="cls-1" x1="23.92" y1="33.81" x2="23.92" y2="43.01"/></g></g></svg>