<?xml version="1.0" encoding="utf-8"?>
<!-- Generator: Adobe Illustrator 21.1.0, SVG Export Plug-In . SVG Version: 6.00 Build 0)  -->
<svg version="1.1" id="Layer_1" xmlns="http://www.w3.org/2000/svg" xmlns:xlink="http://www.w3.org/1999/xlink" x="0px" y="0px"
	 width="488.147px" height="512px" viewBox="0 0 488.147 512" style="enable-background:new 0 0 488.147 512;" xml:space="preserve"
	>
<g>
	<path style="fill:#575B6E;" d="M195.158,313.802c-4.247-1.762-8.031-0.014-10.889,5.176c-5.845,10.617-14.613,16.669-26.881,16.933
		c-14.445,0.311-24.873-5.948-30.818-19.357c-2.512-5.666-6.885-7.609-11.486-5.41c-4.237,2.025-5.489,6.7-3.077,12.047
		c2.134,4.73,4.853,9.099,8.814,12.918c2.162,2.667,4.999,4.978,8.017,7.068c27.96,19.362,59.177,3.654,69.801-17.197
		C201.35,320.66,199.917,315.776,195.158,313.802z"/>
	<path style="fill:#575B6E;" d="M445.354,35.474c-15.775-16.53-34.422-28.201-56.885-33.369c-1.257-0.289-3.266,0.268-3.26-2.105
		c-11.333,0-22.667,0-34,0c0.123,2.09-1.616,1.768-2.766,2.024c-24.323,5.419-44.031,18.46-60.427,36.82
		c-2.322,2.6-4.404,3.156-7.767,2.571c-20.15-3.505-39.495-0.586-57.919,8.197c-23.308,11.111-40.695,28.657-53.955,50.493
		c-1.806,2.974-3.743,4.025-7.131,3.965c-10.996-0.194-21.998,0.019-32.996-0.088c-22.414-0.219-42.407,6.766-59.465,21.1
		c-23.425,19.684-35.757,44.772-34.265,75.819c0.455,9.476,1.569,18.924,2.543,28.369c0.322,3.122-0.325,5.033-3.341,6.811
		c-11.643,6.865-18.778,16.968-17.201,30.84c1.619,14.242,10.445,23.448,23.965,27.868c2.813,0.92,4.035,2.286,4.713,4.965
		c3.287,12.996,8.492,25.241,15.036,36.909c10.212,18.209,22.761,34.467,42.57,42.756c8.154,3.412,10.466,7.914,9.586,16.039
		c-0.415,3.837-1.539,4.703-5.059,4.605c-7.827-0.216-15.667-0.207-23.495-0.031c-11.479,0.258-22.998-0.935-34.434,0.912
		c-24.801,4.005-45.779,23.719-48.604,47.247c-1.402,11.673-0.505,23.626-0.573,35.452c-0.059,10.262,2.04,12.352,12.162,12.352
		c95.992,0.002,191.985,0.002,287.977,0.002c0.833,0,1.667,0.015,2.5-0.006c6.269-0.159,9.199-2.991,9.327-9.169
		c0.087-4.165,0.052-8.333,0.014-12.499c-0.094-10.327,0.782-20.783-0.535-30.954c-3.104-23.974-26.468-43.049-52.007-43.33
		c-15.83-0.175-31.664-0.036-47.496-0.039c-13.348-0.003-13.299,0.002-11.992-13.49c0.191-1.974,0.97-2.985,2.712-3.656
		c21.563-8.313,36.528-23.879,47.823-43.501c0.927-1.609,1.44-4.031,4.168-3.571c2.808,0.473,2.208,3,2.621,4.789
		c6.109,26.443,27.506,46.806,54.358,50.674c14.204,2.046,28.622,0.62,42.939,0.628c4.499,0.003,5.536,1.34,5.511,5.65
		c-0.178,30.497-0.143,60.995-0.062,91.492c0.02,7.761-1.384,15.76,2.967,22.984c3.333,0,6.667,0,10,0
		c4.354-7.215,2.945-15.207,2.966-22.96c0.082-29.635,0.027-59.271,0.038-88.906c0.002-5.74,0.307-6.003,5.36-3.5
		c17.542,8.689,26.092,23.235,26.549,42.461c0.392,16.473,0,32.964,0.127,49.446c0.061,7.914-1.466,16.078,2.96,23.46
		c3.333,0,6.667,0,10,0c4.423-7.385,2.898-15.551,2.961-23.467c0.126-15.653,0.042-31.308,0.036-46.963
		c-0.009-27.33-16.689-51.727-42.376-61.336c-4.271-1.598-5.802-3.451-5.748-8.118c0.271-23.812,0.149-47.628,0.097-71.442
		c-0.006-2.858-0.003-5.029,3.812-5.534c31.977-4.227,56.172-21.387,75.312-46.359C502.768,186.852,498.214,90.867,445.354,35.474z
		 M40.287,277.569c-2.037,0.88-3.468-1.385-4.69-2.857c-4.452-5.362-4.604-15.471-0.371-20.96c0.768-0.996,1.478-2.569,2.99-2.129
		c1.35,0.393,0.856,1.982,0.954,3.064c0.447,4.948,0.815,9.904,1.211,14.857c-0.046,0.004-0.092,0.008-0.138,0.011
		c0.087,1.157,0.264,2.315,0.24,3.47C40.451,274.595,41.889,276.876,40.287,277.569z M52.229,178.55
		c4.49-19.761,15.077-35.383,32.116-46.438c11.732-7.612,24.731-11.539,38.674-11.964c10.156-0.309,20.329-0.051,30.493-0.175
		c3.335-0.041,4.066,1.046,2.831,4.162c-9.285,23.429-13.11,47.784-11.952,72.922c0.154,3.337-0.99,4.773-4.306,5.274
		c-6.925,1.047-13.86,1.897-20.85,2.301c-17.163,0.526-32.915-4.039-47.476-13.04c-5.64-3.486-10.97-7.676-17.901-8.481
		C50.355,182.705,51.845,180.239,52.229,178.55z M204.218,415.955c18.824,0.124,37.653-0.18,56.472,0.145
		c17.61,0.304,31.686,10.643,34.573,25.569c2.256,11.665,0.651,23.586,0.844,35.392c0.035,2.125-1.34,2.875-3.265,2.877
		c-11.661,0.008-23.322-0.016-34.982,0.039c-2.93,0.014-3.659-1.589-3.643-4.129c0.038-6.33,0.045-12.661-0.035-18.991
		c-0.076-5.994-3.001-9.595-7.748-9.74c-4.933-0.151-8.117,3.586-8.197,9.798c-0.074,5.83-0.262,11.674,0.048,17.488
		c0.238,4.463-1.492,5.695-5.782,5.673c-28.486-0.147-56.974-0.076-85.461-0.076c-28.154-0.004-56.308-0.122-84.46,0.104
		c-5.093,0.041-6.961-1.52-6.435-6.538c0.31-2.962,0.201-6.008-0.076-8.982c-0.413-4.434-3.833-7.502-7.922-7.477
		c-4.09,0.025-7.48,3.128-7.813,7.581c-0.273,3.646-0.192,7.326-0.119,10.989c0.056,2.82-0.864,4.389-3.984,4.326
		c-5.495-0.111-10.994-0.059-16.491-0.046c-2.197,0.005-3.492-0.889-3.465-3.228c0.113-9.485-1.021-19.054,0.503-28.44
		c3.038-18.707,19.168-31.669,40.19-32.168c17.149-0.407,34.316-0.041,51.474-0.148c3.009-0.019,4.337,1.169,5.347,3.955
		c6.778,18.702,20.343,27.716,40.291,28.201c13.626,0.331,25.796-2.17,35.429-12.6c4.144-4.487,7.375-9.489,9.049-15.349
		C199.431,417.119,200.984,415.934,204.218,415.955z M128.179,391.963c-0.044-2.52,0.76-3.07,3.221-2.547
		c16.489,3.503,33.024,3.513,49.508,0.027c2.961-0.626,3.43,0.404,3.331,2.911c-0.125,3.156-0.03,6.32-0.03,9.481
		c-0.011,0-0.022,0-0.034,0c0,3.327,0.153,6.662-0.028,9.979c-0.625,11.49-8.667,19.569-20.156,20.115
		c-5.145,0.244-10.319,0.23-15.466,0.005c-11.514-0.504-19.657-8.489-20.221-20.013C127.98,405.282,128.297,398.614,128.179,391.963
		z M234.306,335.594c-16.19,27.214-41.347,38.413-71.68,40.26c-14.773,0.9-29.204-1.132-43.263-5.949
		c-25.329-8.678-39.626-28.247-50.454-51.096c-8.902-18.786-13.175-38.665-12.727-59.52c0.15-6.994,0.024-13.993,0.024-20.99
		c0.041,0,0.082,0,0.122,0c0-10.828,0.041-21.656-0.023-32.484c-0.021-3.517,0.816-4.69,4.202-2.405
		c24.744,16.705,51.945,20.396,80.761,14.826c4.213-0.814,5.68,0.243,6.545,4.52c6.185,30.566,19.361,57.607,41.421,79.977
		c12.342,12.515,26.659,22.07,43.324,27.816C235.973,331.728,236.039,332.681,234.306,335.594z M206.755,298.513
		c-28.239-23.81-41.398-55.494-45.309-91.552c-4.2-39.12,2.806-75.703,25.682-108.274c15.636-22.263,36.481-37.424,63.914-41.593
		c29.975-4.555,55.566,5.228,76.964,26.062c22.088,21.506,33.458,48.482,38.18,78.524c2.364,15.036,2.931,30.147,0.782,45.282
		c-3.923,36.25-17.187,68.071-45.69,91.872C286.96,327.488,240.942,327.338,206.755,298.513z M360.209,336.049
		c-0.004,11.984-0.006,23.967-0.002,35.951c0.001,2.056,0.163,4.091-2.93,3.998c-15.619-0.469-31.331,1.377-46.854-1.023
		c-18.18-2.811-32.567-16.715-36.748-34.479c-0.628-2.667-1.101-4.859,2.743-5.369c27.567-3.657,49.453-17.594,67.876-37.734
		c2.593-2.835,11.969-3.717,14.937-1.439c1.479,1.135,0.941,2.74,0.947,4.144C360.231,312.082,360.209,324.066,360.209,336.049z
		 M417.605,264.551c-15.85,11.193-33.826,16.13-53.281,15.385c-5.821-0.223-6.146-0.693-3.285-5.47
		c5.063-8.454,8.909-17.485,12.801-26.499c7.012-20.839,11.198-42.179,10.303-64.236c-1.853-45.677-17.23-85.492-51.698-116.754
		c-8.192-7.43-17.412-13.448-27.548-17.873c-3.889-1.698-3.807-2.827-0.979-5.675c35.478-35.725,89.446-36.74,126.294-2.047
		c23.151,21.797,35.085,49.357,39.973,80.289c2.376,15.034,2.943,30.151,0.78,45.289
		C466.418,206.733,451.235,240.802,417.605,264.551z"/>
	<path style="fill:#575B6E;" d="M219.68,88.959c-3.841-1.839-7.064-0.523-10.01,2.141c-14.584,13.187-25.413,28.922-32.141,47.419
		c-2.177,5.985-0.649,10.556,3.848,12.177c4.754,1.715,8.84-0.482,11.035-6.454c5.914-16.089,15.019-29.955,27.998-41.224
		c2.065-1.793,3.582-3.937,3.712-7.459C223.99,92.954,222.673,90.392,219.68,88.959z"/>
	<path style="fill:#575B6E;" d="M124.132,258.1c0.552-5.486-2.455-9.658-7.252-10.061c-4.633-0.389-8.032,2.831-8.678,8.224
		c-0.686,5.716-2.94,7.822-8.264,7.719c-5.079-0.098-7.05-2.077-7.714-7.745c-0.627-5.351-4.081-8.604-8.708-8.201
		c-4.66,0.405-7.631,4.319-7.268,9.573c0.786,11.365,12.328,22.259,23.72,22.388C111.357,280.125,122.975,269.598,124.132,258.1z"/>
</g>
</svg>
