<?xml version="1.0" encoding="utf-8"?>
<!-- Generator: Adobe Illustrator 21.1.0, SVG Export Plug-In . SVG Version: 6.00 Build 0)  -->
<svg version="1.1" id="Layer_1" xmlns="http://www.w3.org/2000/svg" xmlns:xlink="http://www.w3.org/1999/xlink" x="0px" y="0px"
	 width="464.892px" height="464.983px" viewBox="0 0 464.892 464.983" style="enable-background:new 0 0 464.892 464.983;"
	 xml:space="preserve">
<g>
	<path style="fill:#555A6E;" d="M463.268,143.307C460.254,119.536,452,97.445,439.07,77.211c-1.781-2.787-1.595-4.595,0.826-6.788
		c3.578-3.239,6.976-6.696,10.253-10.243c3.482-3.769,3.408-8.427,0.096-11.594c-3.141-3.004-7.67-3.013-11.249,0.236
		c-2.958,2.685-5.601,5.717-8.569,8.391c-1.121,1.01-2.088,3.904-4.145,1.873c-1.57-1.55-4.044-2.879-3.102-6.19
		c2.681-9.419-1.309-13.267-11.117-10.86c-3.184,0.781-4.573-1.677-6.134-3.315c-1.834-1.925,0.848-2.809,1.799-3.788
		c6.153-6.334,12.471-12.508,18.677-18.792c4.339-4.393,4.745-9.264,1.186-12.711c-3.424-3.317-8.122-2.907-12.338,1.244
		c-6.411,6.314-12.927,12.539-19.028,19.143c-3.245,3.513-5.619,4.001-9.957,1.316C320.835-15.374,235.047-6.243,180.133,47.657
		C135.659,91.311,91.714,135.51,47.917,179.845C15.796,212.362,0.881,252.219,0,297.372c0.332,9.919,0.984,19.537,2.607,29.092
		c14.811,87.241,93.284,146.757,182.805,137.589c40.421-4.14,74.822-21.246,103.509-50.169
		c40.013-40.342,80.32-80.393,120.492-120.577c3.888-3.889,7.88-7.69,11.54-11.786C456.291,241.966,469.902,195.631,463.268,143.307
		z M150.156,449.143C80.809,441.11,24.042,384.743,16.073,315.178c-5.242-45.76,8.14-86.185,39.39-119.882
		c21.507-23.191,44.52-44.984,66.872-67.39c0.556-0.558,1.25-0.978,2.539-1.97c-30.683,113.683-22.034,221.796,40.208,323.959
		C159.789,450.596,154.915,449.695,150.156,449.143z M300.577,379.307c-20.506,20.639-39.774,42.725-66.882,55.468
		c-14.721,6.92-29.962,11.85-46.09,14.027c-1.829,0.247-3.42,0.739-4.77-1.325c-13.05-19.949-24.149-40.905-33.538-64.04
		c51.595,14.511,101.614,10.442,151.191-5.489C300.551,378.746,300.711,379.173,300.577,379.307z M433.252,236.584
		c-7.674,14.947-17.767,28.104-29.654,39.945c-19.715,19.64-39.668,39.056-58.911,59.149c-8.875,9.267-18.922,15.787-30.775,20.404
		c-35.304,13.752-71.602,21.773-109.669,20.283c-19.735-0.772-39.04-3.985-57.662-10.844c-3.04-1.12-4.886-2.7-5.914-5.951
		c-14.237-45.001-19.231-91.054-16.214-138.079c2.488-38.778,10.206-76.448,23.253-113.058c2.287-6.417,5.562-11.834,10.525-16.595
		c12.145-11.647,23.837-23.765,35.896-35.503c9.966-9.7,21.318-17.562,33.627-24.022c1.695-0.889,3.289-2.405,6.326-1.429
		c-37.401,26.64-58.709,62.438-62.21,107.828c-3.489,45.237,10.657,84.608,43.686,116.052
		c32.035,30.497,71.035,42.693,114.707,38.172c43.747-4.529,78.395-25.669,103.898-61.918
		C435.694,233.68,434.009,235.109,433.252,236.584z M367.172,267.351c-78.486,35.864-169.125-15.458-180.204-101.337
		c-8.77-67.983,42.075-133.985,109.935-142.807c5.969-0.776,11.939-1.062,16.185-1.188c23.363-0.06,43.544,5.42,62.531,15.632
		c2.851,1.534,4.215,2.556,1.247,5.619c-3.377,3.486-2.974,8.144,0.174,11.161c3.236,3.102,7.949,3.008,11.61-0.568
		c2.678-2.615,4.85-5.558,8.62-1.266c1.501,1.709,1.472,2.642-0.065,4.034c-1.355,1.228-2.697,2.511-3.821,3.945
		c-2.699,3.445-2.433,8.099,0.673,10.849c3.331,2.948,6.936,2.871,10.501,0.372c0.943-0.661,1.597-1.751,2.562-2.364
		c1.599-1.017,2.441-4.791,5.375-1.518c2.163,2.412,3.856,4.477,0.223,7.175c-2.754,2.045-4.563,4.811-4.093,8.589
		c0.741,5.956,7.947,9.382,12.412,5.188c4.481-4.208,5.378-1.309,7.142,2.021C463.416,157.422,434.119,236.759,367.172,267.351z"/>
	<path style="fill:#555A6E;" d="M332.76,168.864c-11.523,3.756-22.06,2.182-31.196-6.009c-10.758-9.645-14.093-21.341-9.269-35.193
		c2.038-5.853,0.174-10.26-4.688-11.799c-4.477-1.418-8.586,1.14-10.479,6.692c-1.675,4.912-2.676,9.959-2.394,15.454
		c-0.245,3.425,0.247,7.05,1.022,10.638c7.179,33.243,40.704,43.11,62.71,35.148c5.614-2.031,7.905-6.575,5.78-11.269
		C342.35,168.338,338.393,167.028,332.76,168.864z"/>
	<path style="fill:#555A6E;" d="M403.283,138.093c-3.696-1.881-7.047-1.015-10.039,1.775c-2.912,2.716-5.986,3.276-9.39,0.669
		c-4.854-3.718-5.363-7.299-1.554-12.262c3.521-4.588,3.257-9.314-0.684-12.256c-3.922-2.928-8.624-1.923-12.097,2.661
		c-3.334,4.402-4.721,9.452-4.808,15.923c0.35,8.258,3.449,16.023,12.392,20.074c9.184,4.161,18.201,3.472,26.382-2.606
		C409.031,147.952,408.815,140.907,403.283,138.093z"/>
	<path style="fill:#555A6E;" d="M331.764,76.562c-3.907,2.563-7.07,2.071-10.23-1.086c-3.223-3.22-3.374-6.409-0.847-10.243
		c3.223-4.888,2.284-9.572-1.939-12.064c-4.181-2.466-9.021-0.979-11.752,3.969c-4.517,8.185-4.469,16.616-0.212,24.837
		c4.193,8.097,11.599,10.954,20.212,11.453c4.444,0.114,8.61-0.864,12.482-2.993c5.28-2.904,7.119-7.618,4.717-11.928
		C341.725,74.077,336.954,73.158,331.764,76.562z"/>
	<path style="fill:#555A6E;" d="M263.018,74.418c-8.797-0.131-16.028,6.818-16.227,15.596c-0.204,8.989,7,16.366,15.968,16.352
		c8.807-0.014,15.898-7.047,15.98-15.85C278.821,81.736,271.802,74.549,263.018,74.418z"/>
	<path style="fill:#555A6E;" d="M374.722,170.408c-8.769,0.02-15.899,7.132-15.941,15.9c-0.042,8.789,6.99,15.945,15.777,16.055
		c8.999,0.113,16.27-7.139,16.179-16.138C390.647,177.437,383.51,170.388,374.722,170.408z"/>
</g>
</svg>
