<?xml version="1.0" standalone="no"?>
<!DOCTYPE svg PUBLIC "-//W3C//DTD SVG 20010904//EN"
 "http://www.w3.org/TR/2001/REC-SVG-20010904/DTD/svg10.dtd">
<svg version="1.0" xmlns="http://www.w3.org/2000/svg"
 width="215.000000pt" height="180.000000pt" viewBox="0 0 215.000000 180.000000"
 preserveAspectRatio="xMidYMid meet">

<g transform="translate(0.000000,180.000000) scale(0.100000,-0.100000)"
fill="#000000" stroke="none">
<path d="M1585 1730 c25 -33 48 -60 51 -60 3 0 -16 27 -41 60 -25 33 -48 60
-51 60 -3 0 16 -27 41 -60z"/>
<path d="M1485 1710 c-25 -33 -44 -60 -41 -60 3 0 26 27 51 60 25 33 44 60 41
60 -3 0 -26 -27 -51 -60z"/>
<path d="M1640 1656 c0 -2 8 -10 18 -17 15 -13 16 -12 3 4 -13 16 -21 21 -21
13z"/>
<path d="M1419 1623 c-13 -16 -12 -17 4 -4 16 13 21 21 13 21 -2 0 -10 -8 -17
-17z"/>
<path d="M1670 1616 c0 -2 8 -10 18 -17 15 -13 16 -12 3 4 -13 16 -21 21 -21
13z"/>
<path d="M1389 1583 c-13 -16 -12 -17 4 -4 9 7 17 15 17 17 0 8 -8 3 -21 -13z"/>
<path d="M1715 1560 c10 -11 20 -20 23 -20 3 0 -3 9 -13 20 -10 11 -20 20 -23
20 -3 0 3 -9 13 -20z"/>
<path d="M1359 1543 c-13 -16 -12 -17 4 -4 9 7 17 15 17 17 0 8 -8 3 -21 -13z"/>
<path d="M1740 1526 c0 -2 8 -10 18 -17 15 -13 16 -12 3 4 -13 16 -21 21 -21
13z"/>
<path d="M1293 1457 c-3 -6 -1 -7 5 -3 29 18 1 -44 -42 -92 -17 -19 -20 -36
-19 -108 1 -47 6 -91 11 -96 6 -6 8 -16 5 -23 -2 -8 5 -18 16 -25 12 -6 21
-17 21 -25 0 -12 13 -13 68 -8 37 3 73 10 79 16 16 12 64 11 169 -2 88 -11
170 -7 191 10 7 6 25 13 40 14 49 5 64 15 53 35 -6 10 -10 41 -10 69 0 40 4
52 20 61 29 16 24 25 -12 24 -18 0 -39 4 -45 9 -7 5 -24 7 -38 5 -22 -5 -25
-1 -32 36 -8 40 -9 41 -58 46 -28 3 -56 9 -62 13 -9 6 -13 2 -13 -12 0 -12 7
-21 15 -21 9 0 21 -12 27 -27 16 -38 18 -39 27 -24 13 20 34 2 28 -25 -2 -13
0 -21 5 -18 6 4 8 17 5 31 -3 15 0 22 7 20 18 -6 19 -40 2 -53 -18 -13 -57 -7
-67 9 -4 5 -12 -1 -19 -14 -10 -17 -10 -24 -1 -27 21 -7 41 -33 41 -53 0 -10
5 -19 11 -19 6 0 9 -8 7 -18 -4 -15 0 -17 29 -14 27 3 33 9 33 27 0 13 -4 35
-10 49 -5 15 -6 28 0 31 5 3 12 -10 16 -29 5 -30 11 -36 40 -42 32 -6 33 -7
17 -30 -9 -14 -25 -24 -39 -24 -13 0 -24 -6 -24 -12 0 -9 -3 -9 -9 1 -8 13
-15 13 -49 2 -27 -9 -55 -11 -89 -5 -26 4 -64 8 -83 9 -20 1 -41 5 -48 9 -7 4
-12 2 -12 -4 0 -6 -5 -8 -12 -4 -7 4 -28 11 -48 15 -20 4 2 6 53 3 52 -2 87 0
87 6 0 6 -19 10 -42 11 -42 1 -138 26 -108 28 21 2 -38 31 -61 31 -11 0 -19 5
-19 11 0 6 7 9 15 5 9 -3 15 0 15 9 0 11 -12 15 -45 15 -25 0 -45 4 -45 9 0 5
35 7 78 4 42 -3 88 -1 101 5 22 8 17 10 -38 23 -58 12 -62 15 -56 37 5 21 3
24 -17 20 -18 -3 -24 0 -24 14 0 10 4 18 8 18 4 0 8 -4 8 -10 0 -5 8 -10 18
-10 14 0 15 2 2 10 -10 6 8 8 55 5 42 -4 65 -2 57 3 -8 5 -13 12 -13 16 3 21
-2 28 -26 37 -42 17 -143 27 -150 16z m136 -38 c13 -8 12 -9 -5 -4 -12 3 -36
8 -54 10 -18 2 -35 7 -39 11 -9 10 79 -5 98 -17z m-99 -184 c14 -16 10 -18
-14 -9 -9 3 -16 10 -16 15 0 14 16 11 30 -6z"/>
<path d="M1830 1406 c0 -2 8 -10 18 -17 15 -13 16 -12 3 4 -13 16 -21 21 -21
13z"/>
<path d="M1505 1380 c-3 -5 -1 -10 4 -10 6 0 11 5 11 10 0 6 -2 10 -4 10 -3 0
-8 -4 -11 -10z"/>
<path d="M1408 1363 c7 -3 16 -2 19 1 4 3 -2 6 -13 5 -11 0 -14 -3 -6 -6z"/>
<path d="M1530 1359 c0 -5 4 -9 9 -9 5 0 17 -3 27 -7 11 -4 15 -3 11 4 -9 14
-47 24 -47 12z"/>
<path d="M1465 1330 c-16 -7 -17 -9 -3 -9 9 -1 20 4 23 9 7 11 7 11 -20 0z"/>
<path d="M1530 1279 c0 -5 5 -7 10 -4 6 3 10 8 10 11 0 2 -4 4 -10 4 -5 0 -10
-5 -10 -11z"/>
<path d="M1575 1260 c19 -21 45 -27 45 -10 0 6 -9 10 -20 10 -11 0 -20 5 -20
10 0 6 -5 10 -12 10 -6 0 -3 -9 7 -20z"/>
<path d="M1399 1249 c-9 -6 5 -9 40 -9 30 0 51 3 48 6 -10 11 -73 13 -88 3z"/>
<path d="M1500 1240 c0 -5 7 -7 15 -4 8 4 15 8 15 10 0 2 -7 4 -15 4 -8 0 -15
-4 -15 -10z"/>
<path d="M1565 1230 c-3 -5 -2 -10 4 -10 6 0 8 -8 5 -17 -5 -15 -4 -15 4 -4 9
13 13 11 29 -7 11 -14 34 -25 58 -29 28 -4 37 -2 30 5 -5 6 -26 12 -45 14 -19
2 -34 8 -33 13 2 12 -26 45 -38 45 -4 0 -11 -4 -14 -10z"/>
<path d="M1510 1191 c0 -10 26 -9 36 2 4 4 -2 7 -14 7 -12 0 -22 -4 -22 -9z"/>
<path d="M1070 1086 c0 -2 8 -10 18 -17 15 -13 16 -12 3 4 -13 16 -21 21 -21
13z"/>
<path d="M1380 1055 c0 -9 5 -15 11 -13 6 2 11 8 11 13 0 5 -5 11 -11 13 -6 2
-11 -4 -11 -13z"/>
<path d="M1506 1054 c-3 -8 -10 -12 -16 -9 -5 3 -10 1 -10 -4 0 -6 9 -11 20
-11 13 0 20 7 20 20 0 24 -6 26 -14 4z"/>
<path d="M1416 1043 c-3 -7 1 -13 9 -13 8 0 15 5 15 11 0 8 4 8 13 0 10 -8 14
-7 14 2 0 17 -45 17 -51 0z"/>
<path d="M1549 1047 c18 -22 41 -22 40 1 0 10 -3 12 -6 5 -3 -10 -10 -10 -26
-1 -20 10 -21 10 -8 -5z"/>
<path d="M1681 1044 c0 -11 3 -14 6 -6 3 7 2 16 -1 19 -3 4 -6 -2 -5 -13z"/>
<path d="M1410 975 c0 -36 5 -41 28 -27 9 7 10 15 3 35 -15 38 -31 33 -31 -8z
m30 -9 c0 -3 -4 -8 -10 -11 -5 -3 -10 -1 -10 4 0 6 5 11 10 11 6 0 10 -2 10
-4z"/>
<path d="M1521 991 c-13 -24 12 -63 28 -44 6 7 8 11 5 8 -4 -3 -13 0 -21 7
-11 9 -11 14 3 29 10 11 12 19 6 19 -6 0 -16 -8 -21 -19z"/>
<path d="M1574 996 c-9 -22 -1 -49 16 -54 13 -4 13 -3 2 10 -10 13 -10 17 0
21 10 4 10 6 1 6 -19 1 -16 19 5 24 16 4 16 5 -1 6 -10 0 -20 -5 -23 -13z"/>
<path d="M1627 1003 c-23 -22 7 -74 34 -57 13 7 11 34 -2 34 -5 0 -8 -4 -4 -9
3 -5 1 -12 -5 -16 -19 -12 -24 27 -5 41 15 11 16 14 4 14 -9 0 -19 -3 -22 -7z"/>
<path d="M1463 975 c1 -19 7 -30 17 -30 10 0 16 11 17 30 l2 30 -8 -30 c-8
-29 -9 -29 -25 15 -3 8 -4 2 -3 -15z"/>
<path d="M1682 975 c0 -16 2 -22 5 -12 2 9 2 23 0 30 -3 6 -5 -1 -5 -18z"/>
</g>
</svg>
