<?xml version="1.0" encoding="utf-8"?>
<!-- Generator: Adobe Illustrator 21.1.0, SVG Export Plug-In . SVG Version: 6.00 Build 0)  -->
<svg version="1.1" id="Слой_1" xmlns="http://www.w3.org/2000/svg" xmlns:xlink="http://www.w3.org/1999/xlink" x="0px" y="0px"
	 width="135.236px" height="60px" viewBox="0 0 135.236 60" style="enable-background:new 0 0 135.236 60;" xml:space="preserve">
<g>
	<path d="M135.048,23.327c-1.65-3.973-3.212-7.984-4.892-11.944c-0.297-0.699-0.902-1.395-1.548-1.798
		c-4.775-2.977-9.595-5.882-14.405-8.804c-0.386-0.235-0.795-0.432-1.442-0.781c0.563,1.747,1.034,3.21,1.543,4.791
		c-0.715,0.101-1.287,0.208-1.864,0.259c-3.852,0.337-7.702,0.702-11.558,0.985c-11.983,0.878-23.923,1.073-35.8-1.396
		c-8.821-1.834-17.747-3.031-26.801-2.756c-0.636,0.019-1.399,0.15-1.872,0.522c-2.732,2.148-5.401,4.378-8.075,6.599
		c-0.285,0.236-0.641,0.574-0.675,0.895c-0.332,3.179-1.497,6.314-0.462,9.574c0.383,1.207,0.655,2.465,0.819,3.721
		c0.094,0.72,0.06,1.574-0.245,2.211c-2.555,5.337-5.042,10.716-7.848,15.921c-1.755,3.256-2.621,6.526-2.356,10.214
		c0.198,2.761,0.039,5.548,0.039,8.391c3.04,0,5.901,0,9.143,0c-1.963-1.451-3.656-2.62-5.239-3.923
		c-0.481-0.396-0.889-1.149-0.929-1.765c-0.121-1.853,0.004-3.721-0.064-5.579c-0.032-0.867,0.316-1.299,1.036-1.7
		c8.979-4.993,17.936-10.025,26.924-15.001c0.582-0.322,1.417-0.469,2.066-0.344c14.022,2.701,28.033,5.461,42.051,8.178
		c1.121,0.217,1.917,0.714,2.637,1.612c4.748,5.921,9.54,11.807,14.354,17.674c0.352,0.429,0.993,0.869,1.506,0.878
		c4.211,0.068,8.423,0.037,12.635,0.025c0.097,0,0.195-0.12,0.39-0.248c-2.464-1.326-4.842-2.579-7.188-3.889
		c-0.534-0.298-1.069-0.717-1.412-1.213c-2.282-3.302-4.533-6.625-6.735-9.981c-0.314-0.479-0.464-1.176-0.428-1.756
		c0.186-2.98,0.446-5.955,0.704-8.93c0.273-3.159,0.572-6.315,0.873-9.615c3.912,0,7.717-0.016,11.522,0.023
		c0.4,0.004,0.818,0.294,1.19,0.515c2.188,1.299,4.374,2.601,6.538,3.939c0.622,0.385,1.06,0.463,1.641-0.129
		c1.234-1.257,2.526-2.463,3.86-3.613C135.318,24.537,135.356,24.069,135.048,23.327z"/>
	<path d="M55.849,53.659c-1.236-0.776-1.3-1.455-0.769-2.708c1.408-3.324,2.659-6.715,3.965-10.082
		c0.238-0.614,0.443-1.241,0.72-2.021c-4.607-0.677-9.031-1.327-13.433-1.973c-0.074,0.184-0.142,0.274-0.141,0.363
		c0.086,4.496,0.165,8.992,0.293,13.486c0.011,0.38,0.278,0.822,0.554,1.114c2.382,2.524,4.786,5.028,7.208,7.513
		c0.28,0.288,0.717,0.613,1.075,0.605c2.903-0.06,5.804-0.195,9.016-0.32c-0.632-0.48-0.998-0.778-1.383-1.049
		C60.596,56.929,58.288,55.19,55.849,53.659z"/>
	<path d="M24.027,21.947c-0.393-1.961-0.908-3.898-1.456-6.159c-0.436,0.657-0.737,1.038-0.962,1.459
		c-4.492,8.409-10.334,15.768-17.295,22.259C4.028,39.772,3.771,40.07,3.5,40.353c-0.983,1.025-2.142,1.937-2.888,3.112
		c-0.497,0.784-0.799,2.099-0.483,2.895c0.459,1.157,1.743,0.76,2.495,0.134c3.3-2.746,6.877-5.273,9.694-8.461
		c4.074-4.61,7.588-9.716,11.305-14.637C23.91,23.017,24.116,22.391,24.027,21.947z"/>
	<path d="M90.381,44.242c-2.74-0.536-5.225-1.066-7.731-1.467c-0.375-0.06-1.077,0.382-1.235,0.758
		c-0.988,2.339-1.878,4.721-2.764,7.102c-0.127,0.34-0.181,0.8-0.06,1.126c1.021,2.744,2.092,5.469,3.12,8.129
		c3.892,0,7.666,0,11.798,0c-2.889-1.745-5.468-3.302-8.126-4.907C87.069,51.36,88.699,47.856,90.381,44.242z"/>
</g>
</svg>
