<?xml version="1.0" encoding="utf-8"?>
<!-- Generator: Adobe Illustrator 21.1.0, SVG Export Plug-In . SVG Version: 6.00 Build 0)  -->
<svg version="1.1" id="Layer_1" xmlns="http://www.w3.org/2000/svg" xmlns:xlink="http://www.w3.org/1999/xlink" x="0px" y="0px"
	 width="464.167px" height="479.957px" viewBox="0 0 464.167 479.957" style="enable-background:new 0 0 464.167 479.957;"
	 xml:space="preserve">
<g>
	<path style="fill:#565B6E;" d="M464.061,377.615c-0.24-35.626-16.11-62.861-45.436-82.506c-3.25-2.177-4.388-3.551-0.795-6.329
		c2.224-1.719,4.1-3.901,6.067-5.939c43.37-44.928,52.779-111.741,22.811-166.419c-19.844-36.205-49.958-60.11-89.791-71.396
		c-3.72-1.054-5.207-2.495-4.893-6.414c0.359-4.47,0.142-8.993,0.059-13.49c-0.102-5.519-3.176-9.03-7.829-9.12
		c-4.833-0.093-8.026,3.529-8.126,9.328c-0.066,3.831,0.069,7.668-0.067,11.496c-0.051,1.433,0.859,3.878-1.837,3.735
		c-2.122-0.112-4.639,0.601-6.203-1.992c-5.427-8.997-10.74-9.066-15.761-0.188c-1.618,2.86-4.329,2.198-6.56,2.142
		c-2.461-0.061-1.535-2.539-1.55-3.993c-0.091-8.831-0.021-17.663-0.057-26.494C304.068,3.717,301.13,0.045,296.169,0
		c-4.97-0.045-8.021,3.652-8.046,9.91c-0.04,9.831-0.157,19.666,0.069,29.492c0.076,3.323-1.137,4.63-4.215,5.415
		c-15.81,4.036-30.361,10.904-43.858,20.039c-2.328,1.576-4.621,3.204-8.016,5.562c0-2.948,0-4.731,0-6.515
		c0-16.996,0.008-33.993-0.002-50.99c-0.006-10.727-4.521-13.676-14.577-9.53c-23.555,9.71-47.118,19.399-70.642,29.182
		c-2.917,1.213-5.479,1.602-8.56,0.247C115.457,22.755,92.507,12.895,69.617,2.897c-8.119-3.546-13.473-0.213-13.492,8.678
		c-0.038,17.996-0.115,35.994,0.072,53.988c0.039,3.703-1.173,5.994-3.967,8.412C17.761,103.808-0.576,141.398,0.281,187.199
		c0.74,39.536,16.589,72.904,44.828,100.445c5.436,5.301,5.017,4.2-0.632,8.104C16.288,315.232,0.6,341.788,0.188,376.398
		c-0.368,30.989-0.085,61.986-0.069,92.98c0.004,7.882,2.645,10.573,10.424,10.573c147.636,0.009,295.273,0.008,442.909-0.002
		c8.11-0.001,10.642-2.594,10.646-10.854C464.113,438.602,464.267,408.107,464.061,377.615z M287.572,60.267
		c0.919,1.346,0.369,2.893,0.569,4.336c0.607,4.37,3.93,7.393,8.09,7.336c4.165-0.056,7.41-3.154,7.83-7.569
		c0.126-1.322,0.194-2.686,0.019-3.994c-0.593-4.426,2.843-3.531,5.195-3.991c3.403-0.666,2.764,1.852,2.82,3.746
		c0.244,8.239,2.776,11.916,8.164,11.811c5.248-0.102,7.644-3.704,7.885-11.609c0.053-1.737-0.965-4.485,2.594-3.968
		c2.597,0.378,6.106-0.295,5.394,4.332c-0.175,1.138-0.087,2.336,0.014,3.494c0.389,4.452,3.536,7.6,7.672,7.744
		c4.333,0.151,7.746-3.002,8.26-7.672c0.143-1.303,0.187-2.618,0.278-3.958c49.404,10.764,99.644,59.705,95.513,131.777
		c-3.825,66.72-57.828,118.46-123.698,119.923c-68.711,1.526-123.152-47.113-131.001-111.346
		C184.372,128.66,232.06,73.009,287.572,60.267z M319.977,415.952c-52.321-0.641-77.346-53.073-56.65-94.471
		c1.648-3.297,3.416-4.068,7.056-2.713c33.022,12.295,66.152,12.338,99.196,0.091c3.8-1.408,5.672-0.712,7.436,2.852
		C397.505,363.099,372.423,415.491,319.977,415.952z M165.483,42.154c15.371-6.388,30.791-12.661,46.135-19.111
		c3.302-1.388,4.643-1.299,4.57,2.877c-0.213,12.16-0.1,24.326-0.06,36.489c0.008,2.518,0.013,4.313-3.487,2.841
		c-16.263-6.843-32.597-13.515-48.897-20.268c-0.401-0.166-0.702-0.573-1.035-0.855C163.145,42.612,164.502,42.562,165.483,42.154z
		 M75.02,22.76c15.824,6.901,31.679,13.732,48.95,21.202c-17.309,7.482-33.179,14.312-49.014,21.22
		c-2.362,1.031-2.873,0.213-2.865-2.019c0.044-12.825,0.048-25.651-0.004-38.476C72.077,22.306,72.799,21.791,75.02,22.76z
		 M39.184,257.83C1.988,205.944,10.261,132.703,57.06,89.351c1.935-1.793,3.626-3.719,6.897-2.844
		c2.087,0.559,4.156-0.913,6.135-1.77c20.311-8.793,40.62-17.59,60.918-26.411c7.557-3.284,15.031-3.365,22.697-0.157
		c19.342,8.092,38.757,16.01,58.136,24.012c1.498,0.618,2.946,1.356,4.981,2.299c-8.809,9.129-15.748,19.047-22.227,29.331
		c-2.067,3.28-3.487,6.812-4.965,10.296c-1.495,3.522-3.882,4.176-7.152,3.771c-3.365-0.417-5.514-2.185-6.175-5.558
		c-0.191-0.973-0.106-1.996-0.246-2.982c-0.658-4.631-4.22-7.671-8.547-7.335c-4.328,0.336-7.361,3.841-7.387,8.533
		c-0.05,8.95,7.555,19.043,17.476,22.172c3.777,1.191,4.049,2.714,3.099,6.018c-2.892,10.058-3.898,20.46-4.811,31.023
		c-2.565-0.546-3.936-2.342-5.668-3.511c-20.938-14.143-47.553-9.658-63.732,10.789c-15.533,19.63-13.288,46.793,5.282,63.589
		c0.974,0.881,2.154,1.533,3.238,2.292c-1.795-4.887-2.399-9.807-2.164-14.75c-0.234,4.943,0.37,9.862,2.165,14.747
		c5.747,12.572,15.756,18.394,29.351,18.326c13.407-0.067,23.205-5.966,28.851-18.326c5.948-3.471,9.367-9.278,13.417-14.963
		c2.162,4.342,4.073,8.372,6.149,12.314c6.406,12.16,14.213,23.37,24.06,32.958c3.706,3.609,2.708,5.073-0.983,7.459
		c-16.192,10.47-33.699,17.669-52.829,19.9C111.83,316.544,69.498,300.115,39.184,257.83z M173.891,228.268
		c-1.678-2.851-3.249-5.772-5.063-8.535c-2.029-3.09-4.93-4.864-8.737-4.905c0,0,0,0,0,0c-1.679-9.293-7.659-14.852-15.979-14.854
		c-8.324-0.002-14.256,5.511-15.983,14.853c-5.894,0.07-8.643,4.259-11.229,8.621c-0.927,1.564-1.721,3.206-2.575,4.814
		c0,0,0,0.001,0,0.001c-4.16-12.408-3.08-24.156,5.776-34.124c8.658-9.745,20.04-11.883,32.399-9.166
		C171.163,189.076,180.722,208.582,173.891,228.268z M128.567,244.902c-2.13-6.7-0.504-12.219,5.177-16.461
		c6.909,4.695,13.817,4.659,20.727,0.001c-0.646-1.988-1.064-3.641-1.216-5.05c0.152,1.409,0.57,3.061,1.216,5.049
		c5.722,4.229,7.291,9.762,5.169,16.454c-0.789,1.766-1.714,3.392-2.779,4.838c1.065-1.447,1.99-3.072,2.779-4.838
		C149.283,248.903,138.926,248.876,128.567,244.902z M153.191,222.38c0.002,0.116,0.017,0.244,0.023,0.363
		C153.208,222.623,153.193,222.496,153.191,222.38z M154.413,218.504c0.205-0.26,0.43-0.514,0.691-0.757
		C154.843,217.99,154.618,218.244,154.413,218.504z M112.99,236.008c-0.011,0.121-0.018,0.242-0.028,0.362
		C112.972,236.25,112.979,236.129,112.99,236.008z M26.924,464.058c-10.795-0.179-10.805,0.022-10.811-10.692
		c-0.007-12.664-0.002-25.328-0.002-37.992c0.015-13.997-0.507-28.018,0.122-41.987c1.354-30.06,14.896-53.03,41.33-68.001
		c0.868-0.491,1.763-0.96,2.695-1.306c1.323-0.491,2.986-2.029,4.017-0.381c1.041,1.666-1.165,2.453-2.127,3.405
		c-19.944,19.715-30.247,43.404-30.076,71.614c0.162,26.66-0.049,53.323,0.122,79.983C32.219,462.803,31.136,464.128,26.924,464.058
		z M176.192,429.508c-0.256,10.16-0.184,20.332-0.03,30.496c0.045,3.004-0.789,4.021-3.922,4.013
		c-39.999-0.096-79.998-0.098-119.997,0.002c-3.313,0.008-4.204-1.061-4.191-4.271c0.112-28.999-0.244-58.003,0.204-86.996
		c0.276-17.828,6.406-33.901,17.632-47.896c0.728-0.908,1.535-1.757,2.354-2.585c0.335-0.339,0.799-0.552,2.31-1.561
		c-4.05,11.193-6.578,21.447-6.469,32.244c0.379,37.778,31.004,72.616,68.364,78.064c13.563,1.978,26.572,0.511,39.234-4.383
		C174.995,425.357,176.298,425.309,176.192,429.508z M176.079,378.397c0.127,8.491-0.072,16.987,0.088,25.476
		c0.053,2.849-0.79,4.472-3.461,5.795c-24.21,11.985-56.367,6.595-74.863-12.701c-19.133-19.961-23.411-52.193-10.189-76.085
		c1.421-2.568,2.746-3.619,5.869-2.434c32.569,12.356,65.328,12.68,98.211,1.195c0.622-0.217,1.267-0.399,1.916-0.496
		c0.29-0.043,0.617,0.165,1.233,0.351c-4.378,6.939-8.718,13.802-11.786,21.376C178.217,352.923,175.885,365.401,176.079,378.397z
		 M201.764,464.071c-9.636-0.34-9.651-0.079-9.655-9.959c-0.006-13.15-0.001-26.3-0.001-39.451c0.01-13.65-0.47-27.32,0.108-40.945
		c1.284-30.244,14.854-53.341,41.465-68.324c1.898-1.068,4.722-3.603,6.16-1.757c1.85,2.377-1.928,3.55-3.325,5.002
		c-18.494,19.214-28.445,41.889-28.412,68.745c0.034,26.8-0.143,53.601,0.136,80.398
		C208.294,462.999,206.681,464.245,201.764,464.071z M410.524,464.04c-60.32-0.13-120.64-0.137-180.96,0.008
		c-4.535,0.011-5.567-1.475-5.542-5.731c0.166-27.993-0.107-55.989,0.159-83.98c0.175-18.403,6.162-34.96,17.669-49.414
		c0.993-1.247,1.83-2.806,3.818-3.157c-13.446,42.334-1.882,76.314,35.837,99.32c28.145,17.166,57.637,15.141,84.036-4.344
		c32.409-23.922,41.859-56.152,28.791-95.033c2.163,0.439,3.092,2.02,4.118,3.312c11.379,14.326,17.368,30.731,17.566,48.946
		c0.306,28.157-0.012,56.32,0.182,84.48C416.228,462.905,414.866,464.05,410.524,464.04z M448.191,459.005
		c0.023,4.022-1.32,5.06-5.151,5.038c-10.923-0.064-10.929,0.087-10.933-10.654c-0.005-12.983-0.001-25.967-0.001-42.01
		c-0.581-13.565,1.182-30.249-0.828-46.824c-2.684-22.137-12.611-40.781-28.267-56.494c-0.235-0.236-0.538-0.426-0.708-0.7
		c-0.781-1.257-3.606-1.853-2.116-3.746c1.246-1.584,3.076,0.191,4.476,0.847c5.451,2.555,10.482,5.833,15.058,9.725
		c18.149,15.438,27.716,35.308,28.225,58.932C448.563,401.735,448.029,430.376,448.191,459.005z"/>
	<path style="fill:#565B6E;" d="M276.038,197.737c-8.582,19.611-1.922,44.158,14.97,55.171
		c5.661,12.338,15.433,18.245,28.852,18.313c13.605,0.069,23.6-5.743,29.346-18.316c11.773-8.612,18.001-20.448,18.776-34.773
		c1.214-22.455-15.596-43.899-37.731-49.024C308.588,164.093,285.404,176.336,276.038,197.737z M289.369,246.797
		c-0.452-2.545-0.63-5.098-0.571-7.657C288.739,241.699,288.916,244.252,289.369,246.797c0.181,1.021,0.407,2.041,0.68,3.059
		C289.776,248.838,289.55,247.818,289.369,246.797z M288.895,237.154c0.062-0.887,0.145-1.774,0.259-2.663
		C289.04,235.38,288.956,236.267,288.895,237.154z M289.158,234.466c0.132-1.021,0.297-2.042,0.493-3.065
		C289.455,232.423,289.29,233.445,289.158,234.466z M289.806,230.655c0.055-0.267,0.107-0.535,0.166-0.802
		C289.913,230.12,289.861,230.387,289.806,230.655z M301.68,189.237c12.056-7.9,29.24-6.864,40.034,2.414
		c9.617,8.266,12.788,22.504,8.164,36.656c-1.667-2.856-3.22-5.786-5.031-8.547c-2.026-3.089-4.924-4.881-8.739-4.913
		c-7.012,2.924-8.322,5.92-5.698,13.029c5.131,4.645,7.803,10.036,5.173,17.037c-1.319,2.999-3.016,5.593-5.148,7.556
		c2.131-1.963,3.828-4.557,5.147-7.555c-10.322,3.885-20.643,3.983-30.964,0c-2.566-6.989,0.057-12.396,5.191-17.039
		c6.821,5.544,13.779,5.544,20.601,0.001c-2.624-7.108-1.314-10.104,5.698-13.028c-1.831-9.426-7.677-14.857-15.997-14.861
		c-8.34-0.003-14.201,5.442-15.983,14.85c-5.912,0.062-8.642,4.286-11.236,8.643c-0.929,1.561-1.705,3.213-2.551,4.824
		c0,0,0,0.001,0,0.001C285.187,212.598,289.688,197.094,301.68,189.237z M328.072,254.252c0.257-0.159,0.51-0.325,0.757-0.499
		C328.582,253.927,328.33,254.093,328.072,254.252z"/>
	<path style="fill:#565B6E;" d="M272.197,143.957c11.408-0.067,22.959-10.834,23.858-22.238c0.414-5.253-2.483-9.205-7.117-9.706
		c-4.629-0.5-8.198,2.751-8.833,8.047c-0.706,5.892-2.785,7.919-8.086,7.881c-5.244-0.037-7.155-1.985-7.915-8.068
		c-0.629-5.033-4.038-8.191-8.512-7.885c-4.668,0.319-7.742,4.2-7.462,9.421C248.747,132.894,260.629,144.026,272.197,143.957z"/>
	<path style="fill:#565B6E;" d="M359.867,143.957c11.39,0.129,23.007-10.399,24.165-21.897c0.552-5.486-2.455-9.658-7.252-10.061
		c-4.633-0.389-8.032,2.831-8.678,8.224c-0.686,5.716-2.94,7.822-8.264,7.719c-5.079-0.098-7.05-2.077-7.714-7.745
		c-0.627-5.351-4.081-8.604-8.708-8.201c-4.66,0.405-7.631,4.319-7.268,9.573C336.932,132.934,348.475,143.828,359.867,143.957z"/>
	<path style="fill:#565B6E;" d="M94.543,143.917c11.269,0.856,23.104-8.759,25.303-20.557c1.124-6.034-1.64-10.676-6.748-11.333
		c-4.902-0.63-8.245,2.657-9.025,8.873c-0.624,4.972-2.915,7.015-7.895,7.042c-5.363,0.029-7.156-1.837-8.082-8.407
		c-0.66-4.687-4.054-7.762-8.346-7.564c-4.488,0.207-7.687,3.883-7.638,8.776C72.218,131.611,83.306,143.063,94.543,143.917z"/>
</g>
</svg>
