<svg height="480pt" viewBox="-56 0 480 480" width="480pt" xmlns="http://www.w3.org/2000/svg"><path d="m366.066406 250.792969-48-56c-1.523437-1.773438-3.738281-2.792969-6.074218-2.792969h-104v-32h136c4.417968 0 8-3.582031 8-8v-112c0-4.417969-3.582032-8-8-8h-136v-8c-.066407-13.226562-10.773438-23.9335938-24-24-13.253907 0-24 10.746094-24 24v8h-104c-2.335938 0-4.550782 1.019531-6.070313 2.792969l-48 56c-2.5625 2.992187-2.5625 7.40625 0 10.398437l48 56c1.515625 1.777344 3.734375 2.804688 6.070313 2.808594h104v32h-136c-4.417969 0-8 3.582031-8 8v112c0 4.417969 3.582031 8 8 8h136v152c0 4.417969 3.582031 8 8 8h32c4.417968 0 8-3.582031 8-8v-152h104c2.335937 0 4.550781-1.019531 6.074218-2.792969l48-56c2.566406-2.996093 2.566406-7.417969 0-10.414062zm-190.074218-226.792969c0-4.417969 3.582031-8 8-8 2.15625-.007812 4.21875.878906 5.695312 2.449219 1.492188 1.457031 2.324219 3.464843 2.304688 5.550781v8h-16zm-157.464844 72 41.144531-48h276.320313v96h-276.320313zm157.464844 64h16v32h-16zm16 304h-16v-144h16zm116.320312-160h-276.320312v-96h276.320312l41.144531 48zm0 0"/><path d="m87.992188 88h192c4.417968 0 8-3.582031 8-8s-3.582032-8-8-8h-192c-4.417969 0-8 3.582031-8 8s3.582031 8 8 8zm0 0"/><path d="m287.992188 112c0-4.417969-3.582032-8-8-8h-192c-4.417969 0-8 3.582031-8 8s3.582031 8 8 8h192c4.417968 0 8-3.582031 8-8zm0 0"/><path d="m279.992188 232h-192c-4.417969 0-8 3.582031-8 8s3.582031 8 8 8h192c4.417968 0 8-3.582031 8-8s-3.582032-8-8-8zm0 0"/><path d="m279.992188 264h-192c-4.417969 0-8 3.582031-8 8s3.582031 8 8 8h192c4.417968 0 8-3.582031 8-8s-3.582032-8-8-8zm0 0"/></svg>