<svg height="512" viewBox="0 0 60 42" width="512" xmlns="http://www.w3.org/2000/svg"><g id="001---Jungle-Truck"><path id="Shape" d="m15 32c-1.6568542 0-3 1.3431458-3 3s1.3431458 3 3 3 3-1.3431458 3-3-1.3431458-3-3-3zm0 4c-.5522847 0-1-.4477153-1-1s.4477153-1 1-1 1 .4477153 1 1-.4477153 1-1 1z"/><path id="Shape" d="m47 32c-1.2133867 0-2.3072956.7309265-2.7716386 1.8519497s-.2076757 2.4113767.6503183 3.2693706c.8579939.857994 2.1483474 1.1146613 3.2693706.6503183s1.8519497-1.5582519 1.8519497-2.7716386c0-1.6568542-1.3431458-3-3-3zm0 4c-.5522847 0-1-.4477153-1-1s.4477153-1 1-1 1 .4477153 1 1-.4477153 1-1 1z"/><path id="Shape" d="m56 18h-8.382l-6.171-12.342c-.5051529-1.01893035-1.5457301-1.66197063-2.683-1.658h-.764v-2c0-1.1045695-.8954305-2-2-2h-27c-1.1045695 0-2 .8954305-2 2v2c-1.65685425 0-3 1.34314575-3 3v13h-2c-1.1045695 0-2 .8954305-2 2v8c0 1.1045695.8954305 2 2 2h2v1c0 1.6568542 1.34314575 3 3 3h1.08c.49429504 3.441787 3.4428998 5.9971786 6.92 5.9971786s6.425705-2.5553916 6.92-5.9971786h18.16c.494295 3.441787 3.4428998 5.9971786 6.92 5.9971786s6.425705-2.5553916 6.92-5.9971786h4.08c1.1045695 0 2-.8954305 2-2v-12c0-2.209139-1.790861-4-4-4zm-4.11 12c-2.7146639-2.6666801-7.0653361-2.6666801-9.78 0h-13.11v-10h22v2c0 1.6568542 1.3431458 3 3 3h4v5zm-11.81 4h-18.16c-.0995303-.6933892-.3035104-1.3677035-.605-2h19.37c-.3014896.6322965-.5054697 1.3066108-.605 2zm-29.97-4h-4.11v-10h21v10h-7.11c-2.7146639-2.6666801-7.0653361-2.6666801-9.78 0zm5.89-26v-2h13v2zm13 7.9999997 1.438.0000003c.4593433-.0003324.859839.31231.971.758l1.31 5.242h-3.719zm29 10.0000003v1h-4c-.5522847 0-1-.4477153-1-1v-2h3c1.1045695 0 2 .8954305 2 2zm-15.586-4 1.979-1.979.989 1.979zm-2.756-11.447 3.792 7.583-1.158 1.158-1.784-1.388.2-.2c.3789722-.3923789.3735524-1.0160848-.0121814-1.4018186s-1.0094397-.3911536-1.4018186-.0121814l-2 2c-.3789722.3923789-.3735524 1.0160848.0121814 1.4018186s1.0094397.3911536 1.4018186.0121814l.376-.376 1.784 1.388-1.282 1.282h-4.8l-1.432-5.728c-.33453-1.3373627-1.5374346-2.27460525-2.916-2.272h-1.438v-4.00000512l9.764.00000512c.379067-.00121288.7258235.21327966.894.553zm-3.658-2.553h-5v-2h5zm-27-2h5v2h-5zm-2 4h20v12h-21v-11c0-.55228475.44771525-1 1-1zm-5 16h2v8h-2zm4 11v-1h2.685c-.30148965.6322965-.50546974 1.3066108-.605 2h-1.08c-.55228475 0-1-.4477153-1-1zm9 7c-2.7614237 0-5-2.2385763-5-5s2.2385763-5 5-5 5 2.2385763 5 5c-.0033061 2.7600532-2.2399468 4.9966939-5 5zm32 0c-2.7614237 0-5-2.2385763-5-5s2.2385763-5 5-5 5 2.2385763 5 5c-.0033061 2.7600532-2.2399468 4.9966939-5 5zm6.92-6c-.0995303-.6933892-.3035104-1.3677035-.605-2h4.685v2z"/><path id="Shape" d="m36 22h-4c-.5522847 0-1 .4477153-1 1s.4477153 1 1 1h4c.5522847 0 1-.4477153 1-1s-.4477153-1-1-1z"/></g></svg>