<svg width="178" height="123" viewBox="0 0 178 123" fill="none" xmlns="http://www.w3.org/2000/svg">
<g clip-path="url(#clip0_524207_178)">
<path d="M13.8267 55.8966H20.433C21.6089 55.812 22.7723 56.1835 23.6815 56.934C24.051 57.321 24.3363 57.7803 24.5195 58.283C24.7028 58.7857 24.7799 59.3209 24.7462 59.8549C24.78 60.4188 24.6928 60.9834 24.4903 61.5108C24.2879 62.0381 23.9749 62.516 23.5724 62.9124C22.5639 63.7205 21.2841 64.1113 19.9962 64.0044H17.8123V68.7817H13.8267V55.8966ZM17.8123 61.3564H18.7951C19.3411 61.4706 19.9098 61.3935 20.4057 61.138C20.5545 61.0097 20.6732 60.8503 20.7534 60.671C20.8336 60.4918 20.8733 60.297 20.8698 60.1006C20.873 59.9134 20.8383 59.7274 20.768 59.5539C20.6976 59.3803 20.593 59.2227 20.4603 59.0906C20.271 58.8789 20.0398 58.709 19.7813 58.5915C19.5228 58.474 19.2428 58.4115 18.9588 58.4081H17.8123V61.3564Z" fill="white"/>
<path d="M39.5149 66.598H35.0106L34.3827 68.7273H30.3152L35.1471 55.8423H39.4876L44.3195 68.7819H40.2247L39.5149 66.598ZM38.6959 63.8681L37.2764 59.2546L35.8569 63.8681H38.6959Z" fill="white"/>
<path d="M49.0696 55.8965H53.492L56.2219 60.2643L58.9518 55.8965H63.3469L58.3512 63.4037V68.8634H54.0926V63.4037L49.0696 55.8965Z" fill="white"/>
<path d="M70.6084 55.8965H75.8498L77.8699 63.8677L79.8627 56.0057H85.1041V68.7815H81.8282V58.954L79.3167 68.7815H76.3685L73.8843 58.954V68.7815H70.6084V55.8965Z" fill="white"/>
<path d="M93.9215 55.8965H104.595V58.6264H97.9072V60.6738H104.104V63.4037H97.9072V65.9425H104.786V68.7815H93.8669L93.9215 55.8965Z" fill="white"/>
<path d="M113.249 55.8965H116.962L121.821 63.0215V55.8965H125.561V68.7815H121.821L116.989 61.7111V68.7815H113.249V55.8965Z" fill="white"/>
<path d="M133.614 55.8965H145.707V59.0904H141.64V68.7815H137.654V59.0904H133.614V55.8965Z" fill="white"/>
<path d="M153.105 64.5232L156.9 64.2775C156.94 64.7849 157.109 65.2737 157.391 65.697C157.605 65.9586 157.876 66.1665 158.184 66.304C158.493 66.4415 158.829 66.5048 159.166 66.4887C159.637 66.5117 160.102 66.3666 160.476 66.0792C160.617 65.9677 160.731 65.8269 160.811 65.6666C160.891 65.5062 160.935 65.3303 160.94 65.1511C160.932 64.9793 160.888 64.811 160.813 64.6563C160.738 64.5015 160.633 64.3634 160.503 64.2502C159.88 63.8647 159.182 63.6137 158.456 63.5131C157.109 63.2797 155.831 62.748 154.716 61.9571C154.357 61.6458 154.071 61.2595 153.878 60.8256C153.684 60.3917 153.588 59.9206 153.597 59.4456C153.598 58.7833 153.797 58.1366 154.17 57.5893C154.587 56.96 155.188 56.474 155.89 56.197C156.901 55.817 157.977 55.6407 159.057 55.6784C160.378 55.5968 161.692 55.9207 162.824 56.6065C163.28 56.951 163.656 57.3908 163.924 57.8953C164.193 58.3998 164.348 58.9568 164.38 59.5275L160.613 59.7459C160.576 59.2613 160.35 58.8104 159.985 58.4901C159.615 58.1937 159.147 58.0475 158.674 58.0807C158.291 58.0547 157.912 58.1714 157.61 58.4082C157.499 58.4901 157.409 58.5971 157.347 58.7205C157.285 58.8439 157.254 58.9801 157.255 59.118C157.253 59.2282 157.276 59.3374 157.324 59.4369C157.371 59.5364 157.441 59.6235 157.528 59.6913C157.936 59.9378 158.392 60.0959 158.866 60.1554C160.153 60.3898 161.408 60.7746 162.605 61.3019C163.281 61.6017 163.851 62.0959 164.243 62.7215C164.596 63.2957 164.776 63.9589 164.762 64.6324C164.771 65.4396 164.533 66.2302 164.08 66.8982C163.611 67.6076 162.947 68.1668 162.169 68.5088C161.177 68.8895 160.118 69.0659 159.057 69.0275C157.441 69.206 155.818 68.7564 154.525 67.7718C153.668 66.9003 153.163 65.7438 153.105 64.5232Z" fill="white"/>
<path d="M21.6887 17.2691L16.3381 13.1196H12.9258V42.7662H16.5838V17.4874L21.6887 21.2547V42.7662H25.2103V13.1196H21.6887V17.2691Z" fill="white"/>
<path d="M46.0665 23.6297L44.5651 20.2173H39.4602V16.3136H44.8926V13.1196H36.1024V20.5176H33.6455L34.874 23.4659H36.1024V42.7662H45.0564V39.4084H39.5421V23.6297H46.0665Z" fill="white"/>
<path d="M54.9114 16.6139H59.3884V42.7662H62.8826V16.6139H66.9502V13.1196H54.9114V16.6139Z" fill="white"/>
<path d="M141.613 13.1196H137.955V42.7662H141.613V13.1196Z" fill="white"/>
<path d="M158.62 13.1196C153.433 13.1196 153.16 17.0234 153.16 17.0234V20.19H150.785L151.904 23.6024H153.023V42.7116H156.627V23.6024H160.913V42.7116H164.189V17.0234C164.189 17.0234 163.779 13.1196 158.62 13.1196ZM160.995 20.19H156.627V17.6512C156.627 17.6512 156.381 16.2317 158.456 16.2317C160.531 16.2317 160.995 17.4874 160.995 17.4874V20.19Z" fill="white"/>
<path d="M89.0349 12.0004C84.8185 11.9641 80.7601 13.6023 77.7505 16.5556C74.741 19.5088 73.0264 23.5356 72.9832 27.7519C72.9832 32.0235 74.6801 36.1202 77.7006 39.1408C80.7211 42.1613 84.8178 43.8582 89.0895 43.8582C93.3611 43.8582 97.4578 42.1613 100.478 39.1408C103.499 36.1202 105.196 32.0235 105.196 27.7519C105.174 25.6548 104.739 23.5827 103.914 21.6546C103.089 19.7264 101.892 17.9803 100.39 16.5165C98.888 15.0528 97.1117 13.9003 95.1631 13.1252C93.2144 12.3502 91.1318 11.968 89.0349 12.0004ZM89.0349 39.8999C87.4216 39.9179 85.8206 39.618 84.3233 39.0172C82.826 38.4164 81.4617 37.5266 80.3082 36.3986C79.1548 35.2705 78.2349 33.9263 77.601 32.4427C76.9672 30.9591 76.6317 29.3651 76.6139 27.7519C76.6139 24.4576 77.9225 21.2983 80.2519 18.9689C82.5813 16.6395 85.7406 15.3309 89.0349 15.3309C92.3291 15.3309 95.4885 16.6395 97.8178 18.9689C100.147 21.2983 101.456 24.4576 101.456 27.7519C101.413 31.0077 100.081 34.1138 97.7536 36.3905C95.4258 38.6672 92.2908 39.929 89.0349 39.8999Z" fill="white"/>
<path d="M117.562 13.1196H114.15V42.7662H117.89V37.3064C117.89 37.3064 129.437 36.7058 129.437 25.6498C129.437 14.5938 117.562 13.1196 117.562 13.1196ZM117.699 34.4127V16.6958C120.002 16.8076 122.175 17.7984 123.769 19.4641C125.364 21.1299 126.259 23.3438 126.271 25.6498C126.271 32.884 117.699 34.4127 117.699 34.4127Z" fill="white"/>
</g>
<path d="M108.084 81.2803L95.9208 110.296H87.9851L81.9995 87.1401C81.6361 85.7139 81.3201 85.1914 80.2149 84.5905C78.4105 83.6117 75.4308 82.6935 72.8091 82.1235L72.9872 81.2803H85.7612C87.3895 81.2803 88.8532 82.364 89.2229 84.2387L92.3841 101.029L100.197 81.2798H108.084V81.2803ZM139.178 100.823C139.21 93.1645 128.586 92.7426 128.659 89.3216C128.682 88.2805 129.674 87.1735 131.844 86.891C132.92 86.7502 135.883 86.6428 139.245 88.1895L140.564 82.0364C138.757 81.3809 136.433 80.75 133.541 80.75C126.121 80.75 120.899 84.694 120.855 90.3415C120.807 94.5187 124.582 96.8497 127.427 98.2377C130.353 99.6592 131.334 100.573 131.323 101.844C131.302 103.79 128.989 104.65 126.828 104.684C123.055 104.742 120.865 103.663 119.12 102.851L117.759 109.208C119.513 110.013 122.751 110.715 126.107 110.75C133.994 110.75 139.153 106.855 139.178 100.823ZM158.772 110.296H165.715L159.655 81.2803H153.246C151.805 81.2803 150.59 82.1192 150.052 83.409L138.786 110.296H146.669L148.234 105.962H157.866L158.772 110.296ZM150.396 100.015L154.347 89.1209L156.621 100.015H150.396ZM118.81 81.2803L112.603 110.296H105.096L111.306 81.2803H118.81V81.2803Z" fill="white"/>
<path d="M42.905 83.957H29.749V107.543H42.905V83.957Z" fill="#FF5F00"/>
<path d="M30.5843 95.75C30.5822 93.4785 31.0981 91.2363 32.0931 89.1931C33.088 87.15 34.5358 85.3594 36.3269 83.957C34.1089 82.2177 31.4451 81.136 28.64 80.8357C25.8349 80.5353 23.0017 81.0283 20.4642 82.2584C17.9267 83.4886 15.7873 85.4061 14.2905 87.7919C12.7937 90.1777 12 92.9354 12 95.75C12 98.5646 12.7937 101.322 14.2905 103.708C15.7873 106.094 17.9267 108.011 20.4642 109.242C23.0017 110.472 25.8349 110.965 28.64 110.664C31.4451 110.364 34.1089 109.282 36.3269 107.543C34.5358 106.141 33.088 104.35 32.0931 102.307C31.0982 100.264 30.5822 98.0215 30.5843 95.75V95.75Z" fill="#EB001B"/>
<path d="M60.6528 95.75C60.6529 98.5645 59.8593 101.322 58.3626 103.708C56.8659 106.094 54.7266 108.011 52.1891 109.242C49.6517 110.472 46.8185 110.965 44.0135 110.664C41.2084 110.364 38.5446 109.282 36.3267 107.543C38.1162 106.139 39.5629 104.348 40.5576 102.305C41.5524 100.263 42.0693 98.0211 42.0693 95.75C42.0693 93.4789 41.5524 91.2374 40.5576 89.1945C39.5629 87.1517 38.1162 85.3608 36.3267 83.957C38.5446 82.2177 41.2084 81.136 44.0135 80.8357C46.8185 80.5353 49.6517 81.0284 52.1891 82.2585C54.7266 83.4886 56.8659 85.4061 58.3626 87.7919C59.8593 90.1777 60.6529 92.9355 60.6528 95.75V95.75Z" fill="#F79E1B"/>
<path d="M59.2189 105.045V104.562H59.414V104.463H58.917V104.562H59.1122V105.045H59.2189ZM60.1839 105.045V104.462H60.0315L59.8563 104.863L59.681 104.462H59.5285V105.045H59.6361V104.605L59.8004 104.984H59.912L60.0764 104.604V105.045H60.1839Z" fill="#F79E1B"/>
<defs>
<clipPath id="clip0_524207_178">
<rect width="151.864" height="57" fill="white" transform="translate(12.9258 12)"/>
</clipPath>
</defs>
</svg>
