<?xml version="1.0" encoding="utf-8"?>
<!-- Generator: Adobe Illustrator 21.1.0, SVG Export Plug-In . SVG Version: 6.00 Build 0)  -->
<svg version="1.1" id="Forma_1_1_" xmlns="http://www.w3.org/2000/svg" xmlns:xlink="http://www.w3.org/1999/xlink" x="0px" y="0px"
	 width="612px" height="464px" viewBox="0 0 612 464" style="enable-background:new 0 0 612 464;" xml:space="preserve">
<g id="Forma_1">
	<g>
		<path style="fill-rule:evenodd;clip-rule:evenodd;" d="M110.8,73.032V47.494H85.88v25.539H110.8z M277.65,366.881
			c-17.471-25.164-51.823-70.147-85.574-88.674c-30.035-16.488-48.341-5.176-56.583,3.033l18.026,18.091
			c3.198-3.188,7.836-5.975,17.965-2.492c19.934,6.849,48.224,33.815,77.617,73.985c21.01,28.712,35.231,54.116,41.071,67.322
			c-14.956,2.178-36.363-0.214-59.13-6.868c-31.715-9.271-60.616-25.039-79.295-43.263c-21.271-20.753-27.643-42.513-18.941-64.677
			l3.299-8.399l-6.817-5.913c-23.399-20.296-35.337-43.53-35.481-69.058l-0.581-104.894H80.527
			c-30.044-0.003-54.488-24.447-54.488-54.492c0-30.045,24.445-54.49,54.489-54.49h33.628c12.549,0,20.014,11.016,20.903,21.902
			c0.158,1.938,0.173,5.232,0.189,8.719c0.074,16.163,0.174,38.298,11.284,50.816l19.102-16.952
			c-4.716-5.313-4.809-25.401-4.847-33.979c-0.018-4.168-0.034-7.766-0.274-10.684c-2.11-25.859-22.039-45.359-46.357-45.359H80.528
			C36.401,0.554,0.5,36.454,0.5,80.582c0,39.805,29.213,72.916,67.324,79.021l0.445,80.506c0.17,30.242,13.25,58.576,37.939,82.405
			c-7.893,29.012,1.751,58.459,27.704,83.779c21.575,21.048,54.363,39.09,89.963,49.495c19.682,5.753,38.218,8.656,54.208,8.656
			c12.736,0,23.857-1.842,32.655-5.549l6.09-2.566l1.422-6.453c1.047-4.756,1.144-11.773-11.047-34.995
			C299.656,400.504,289.16,383.456,277.65,366.881z M450.477,318.896c-13.66-5.636-33.799-8.625-49.348-0.126
			c-9.567,5.229-15.693,13.894-17.714,25.06l25.129,4.552c0.634-3.5,2.125-5.721,4.832-7.201c6.019-3.291,17.528-2.733,27.363,1.325
			c33.84,13.958,70.898,67.655,83.306,92.699c-31.016-0.854-80.435-13.058-105.447-34.112c-9.282-7.814-14.079-15.934-14.261-24.136
			l-0.215-9.672l-9.368-2.412c-15.228-3.922-61.451-9.806-92.042,9.782l13.77,21.508c17.566-11.246,46.673-10.725,63.691-8.166
			c2.878,11.81,10.236,22.75,21.978,32.634c31.652,26.643,90.204,40.084,125.983,40.083c5.511,0,10.486-0.319,14.734-0.958
			l8.682-1.306l1.89-8.573c3.637-16.497-22.961-54.635-31.198-65.931C508.433,365.011,480.746,331.381,450.477,318.896z
			 M586.427,188.512c-2.152-1.098-5.275-2.693-6.607-3.724C558.691,102.162,463.451,42.317,352.782,42.317
			c-61.134,0-118.748,17.959-162.229,50.571c-44.581,33.435-69.133,78.233-69.133,126.143c0,4.384,0.219,8.859,0.651,13.297
			l0.877,8.999l8.78,2.162c66.342,16.339,142.78,24.974,221.055,24.974c33.914,0,142.826-1.304,224.255-16.756
			c-14.232,28.573-39.233,53.204-77.102,76.291l13.293,21.806c52.557-32.043,83.262-67.572,96.612-111.797
			C620.267,205.78,597.417,194.121,586.427,188.512z M146.974,220.876c-0.01-0.617-0.016-1.232-0.016-1.845
			c0-58.078,44.828-108.614,110.396-133.923v22.086c-19.089,10.152-38.105,27.752-53.162,49.416
			c-15.547,22.368-25.184,46.882-27.878,70.445C166.349,225.159,156.555,223.097,146.974,220.876z M201.509,231.437
			c4.326-45.178,40.28-87.485,69.034-102.305l69.467,40.11l0.003,73.601C292.243,242.256,245.411,238.379,201.509,231.437z
			 M352.779,147.126l-69.886-40.351V76.828c21.829-5.806,45.368-8.973,69.889-8.973c23.995,0,47.636,3.103,69.887,9.027v29.892
			L352.779,147.126z M365.552,242.87l-0.003-73.628l70.458-40.68c30.616,16.276,70.417,62.86,75.857,106.585
			C463.761,240.22,410.674,242.508,365.552,242.87z M587.016,223.572c-14.957,3.341-31.813,6.18-49.786,8.569
			c-6.587-53.716-52.543-106.287-89.023-125.987V85.162c13.619,5.252,26.482,11.644,38.314,19.101
			c35.982,22.678,60.412,53.85,68.79,87.775c2.618,10.602,11.982,15.381,19.507,19.222
			C583.689,215.788,587.348,217.937,587.016,223.572z"/>
	</g>
</g>
</svg>