<?xml version="1.0" encoding="utf-8"?>
<!-- Generator: Adobe Illustrator 21.1.0, SVG Export Plug-In . SVG Version: 6.00 Build 0)  -->
<svg version="1.1" id="Forma_1_1_" xmlns="http://www.w3.org/2000/svg" xmlns:xlink="http://www.w3.org/1999/xlink" x="0px" y="0px"
	 width="612px" height="510px" viewBox="0 0 612 510" style="enable-background:new 0 0 612 510;" xml:space="preserve">
<g id="Forma_1">
	<g>
		<path style="fill-rule:evenodd;clip-rule:evenodd;" d="M487.724,137.544l22.579-11.491c-3.921-7.708-8.201-15.23-12.813-22.539
			l0.01-0.005c-22.769-36.188-53.928-67.346-90.107-90.108l-0.006,0.01c-7.31-4.614-14.828-8.891-22.539-12.814L373.36,23.177
			C422.234,48.045,462.852,88.66,487.724,137.544z M546.899,301.995c-0.846-54.65-1.801-116.421-76.784-144.165
			c-11.557-25.374-27.702-48.732-48.008-69.036c-44.527-44.529-103.73-69.053-166.705-69.053
			c-62.974,0-122.178,24.523-166.706,69.053C44.166,133.322,19.642,192.527,19.642,255.5c0,62.935,24.495,122.108,68.971,166.625
			c0.027,0.027,0.052,0.053,0.081,0.08c0.027,0.027,0.052,0.053,0.08,0.081c25.914,25.888,56.418,44.482,88.9,55.771l-0.022,0.064
			c0.742,0.249,1.492,0.482,2.247,0.696c24.44,8.219,49.973,12.329,75.502,12.329c60.371,0,120.744-22.981,166.705-68.94
			c44.529-44.528,69.053-103.734,69.053-166.707c0-21.767-2.929-43.08-8.602-63.494c37.68,24.259,38.302,64.704,39.009,110.381
			c0.869,56.191,1.855,119.882,82.943,146.832l7.99-24.043C548.477,403.898,547.746,356.674,546.899,301.995z M45.158,246.676
			c2.166-52.896,23.794-102.311,61.452-139.968c37.556-37.555,86.802-59.168,139.536-61.434
			c-36.514,17.369-77.391,47.054-115.622,85.284c-34.429,34.43-62.304,71.263-80.61,106.518
			C48.328,240.131,46.73,243.343,45.158,246.676z M75.246,364.392c-8.467-13.951-15.243-28.805-20.219-44.295l0.049-0.014
			c-8.43-29.5,21.425-99.67,93.36-171.607c68.358-68.357,135.921-99.345,167.389-94.639c16.997,5.067,33.267,12.285,48.465,21.51
			c-13.665,2.207-28.853,6.97-45.259,14.282c-42.595,18.99-89.849,53.242-133.054,96.447
			c-43.206,43.205-77.458,90.458-96.449,133.056C82.216,335.537,77.453,350.722,75.246,364.392z M106.611,404.293
			c-11.827-11.827-9.561-39.806,6.06-74.845c17.758-39.835,50.155-84.389,91.223-125.456
			c41.067-41.068,85.622-73.465,125.456-91.224c20.171-8.993,38.002-13.559,51.759-13.559c10.14,0,18.068,2.482,23.086,7.5
			c7.626,7.626,9.394,21.969,5.498,40.588c-48.109,10.407-110.243,51.41-160.663,101.83
			c-50.432,50.432-91.448,112.566-101.865,160.67C128.562,413.679,114.231,411.912,106.611,404.293z M400.473,176.125
			c-0.743,1.788-1.523,3.599-2.338,5.427c-17.76,39.836-50.156,84.389-91.224,125.457c-41.067,41.068-85.622,73.465-125.456,91.224
			c-1.845,0.823-3.672,1.61-5.478,2.357c1.893-5.617,4.226-11.537,6.993-17.706c16.472-36.724,47.079-78.946,83.974-115.84
			c36.887-36.887,79.112-67.485,115.849-83.945C388.949,180.341,394.862,178.012,400.473,176.125z M187.315,454.584
			c-4.209-1.432-8.383-3.002-12.511-4.707c-3.529-4.623-5.13-11.463-4.85-20.038c6.994-2.283,14.279-5.107,21.818-8.468
			c42.596-18.99,89.849-53.242,133.054-96.447c43.205-43.206,77.458-90.457,96.448-133.055c3.353-7.523,6.171-14.789,8.451-21.768
			c8.702-0.273,15.625,1.365,20.257,4.995c1.5,3.633,2.898,7.308,4.191,11.021l-0.055,0.018
			c4.915,15.141-1.342,41.185-17.163,71.457c-17.196,32.899-44.739,69.091-77.556,101.907
			C289.054,429.846,217.452,462.672,187.315,454.584z M404.194,404.293c-40.813,40.812-94.352,61.323-147.961,61.533
			c4.414-2.016,8.645-4.1,12.624-6.172c35.255-18.348,73.773-47.554,108.458-82.239c34.587-34.585,63.74-72.973,82.095-108.089
			c2.153-4.118,4.322-8.507,6.414-13.093C465.636,312.167,443.766,364.721,404.194,404.293z M23.081,373.457L0.5,384.946
			c3.923,7.711,8.2,15.228,12.814,22.539l-0.008,0.007c22.761,36.181,53.92,67.339,90.108,90.107l0.005-0.01
			c7.308,4.61,14.831,8.891,22.539,12.814l11.49-22.581C88.564,462.947,47.949,422.331,23.081,373.457z"/>
	</g>
</g>
</svg>
