<?xml version="1.0" encoding="utf-8"?>
<!-- Generator: Adobe Illustrator 21.1.0, SVG Export Plug-In . SVG Version: 6.00 Build 0)  -->
<svg version="1.1" id="Forma_1_1_" xmlns="http://www.w3.org/2000/svg" xmlns:xlink="http://www.w3.org/1999/xlink" x="0px" y="0px"
	 width="480px" height="424px" viewBox="0 0 480 424" style="enable-background:new 0 0 480 424;" xml:space="preserve">
<g id="Forma_1">
	<g>
		<path style="fill-rule:evenodd;clip-rule:evenodd;" d="M472,279.925c4.418,0,8-3.584,8-8.004v-64.033c0-4.42-3.582-8.004-8-8.004
			H371.312l50.344-50.37c3.123-3.126,3.123-8.192,0-11.318l-43.712-43.735c-3.124-3.125-8.188-3.125-11.312,0
			c-12.499,12.505-32.765,12.505-45.264,0c-12.499-12.505-12.499-32.782,0-45.287c3.123-3.126,3.123-8.192,0-11.318L285.656,2.125
			c-3.124-3.125-8.188-3.125-11.312,0L76.688,199.883H8c-4.418,0-8,3.584-8,8.004v64.033c0,4.42,3.582,8.004,8,8.004
			c17.673,0,32,14.334,32,32.017c0,17.682-14.327,32.017-32,32.017c-4.418,0-8,3.584-8,8.004v64.033c0,4.42,3.582,8.004,8,8.004h464
			c4.418,0,8-3.584,8-8.004v-64.033c0-4.42-3.582-8.004-8-8.004c-17.673,0-32-14.334-32-32.017
			C440,294.259,454.327,279.925,472,279.925z M280,19.102l24.864,24.877c-15.411,21.581-10.418,51.576,11.152,66.995
			c16.691,11.932,39.117,11.932,55.808,0l32.864,32.881l-56,56.029h-25.376l18.344-18.354c3.123-3.126,3.123-8.192,0-11.318
			l-88-88.046c-3.124-3.125-8.188-3.125-11.312,0L124.688,199.883H99.312L280,19.102z M300.688,199.883H147.312L248,99.143
			l76.688,76.728L300.688,199.883z M424.62,319.901c3.392,20.188,19.202,36.007,39.38,39.4v48.689h-64v-32.017h-16v32.017H96v-8.004
			H80v8.004H16v-48.689c26.143-4.396,43.774-29.164,39.38-55.321c-3.392-20.188-19.201-36.007-39.38-39.4v-48.689h64v24.012h16
			v-24.012h368v48.689C437.857,268.977,420.226,293.746,424.62,319.901z M384,263.917h16V231.9h-16V263.917z M384,311.941h16
			v-32.017h-16V311.941z M384,359.966h16V327.95h-16V359.966z M80,287.929h16v-32.017H80V287.929z M80,335.954h16v-32.017H80
			V335.954z M80,383.979h16v-32.017H80V383.979z M352,255.912c-8.837,0-16-7.167-16-16.008c0-4.42-3.582-8.004-8-8.004H152
			c-4.418,0-8,3.584-8,8.004c0,8.842-7.163,16.008-16,16.008c-4.418,0-8,3.584-8,8.004v96.05c0,4.42,3.582,8.004,8,8.004
			c8.837,0,16,7.167,16,16.008c0,4.42,3.582,8.004,8,8.004h176c4.418,0,8-3.584,8-8.004c0-8.842,7.163-16.008,16-16.008
			c4.418,0,8-3.584,8-8.004v-96.05C360,259.496,356.418,255.912,352,255.912z M344,352.971
			c-11.263,2.935-20.058,11.735-22.992,23.004H158.992c-2.934-11.269-11.729-20.068-22.992-23.004v-82.058
			c11.263-2.936,20.058-11.735,22.992-23.004h162.016c2.934,11.269,11.729,20.068,22.992,23.004V352.971z"/>
	</g>
</g>
</svg>
