<?xml version="1.0" encoding="utf-8"?>
<!-- Generator: Adobe Illustrator 21.1.0, SVG Export Plug-In . SVG Version: 6.00 Build 0)  -->
<svg version="1.1" id="Forma_1_1_" xmlns="http://www.w3.org/2000/svg" xmlns:xlink="http://www.w3.org/1999/xlink" x="0px" y="0px"
	 width="612px" height="594px" viewBox="0 0 612 594" style="enable-background:new 0 0 612 594;" xml:space="preserve">
<g id="Forma_1">
	<g>
		<path style="fill-rule:evenodd;clip-rule:evenodd;" d="M365.37,297.362h-27.858v24.881h27.858V297.362z M327.401,372.613h-41.802
			c-23.386,0-42.413,19.026-42.413,42.413v11.324c0,23.387,19.027,42.413,42.413,42.413h8.462v41.92h24.88v-41.92h8.46
			c23.386,0,42.413-19.026,42.413-42.413v-11.324C369.814,391.64,350.787,372.614,327.401,372.613z M344.934,426.351
			c0,9.669-7.865,17.533-17.532,17.533h-41.802c-9.669,0-17.533-7.865-17.533-17.533v-11.324c0-9.669,7.865-17.532,17.533-17.532
			h41.802c9.669,0,17.532,7.864,17.532,17.532V426.351z M306.5,25.486c15.253,0,27.663,12.41,27.663,27.662
			c0,15.252-12.41,27.662-27.663,27.662h-12.44v85.7h-34.184v24.88h93.25v-24.88h-34.185v-62.307
			c22.988-5.602,40.103-26.368,40.103-51.055c0-28.972-23.571-52.542-52.544-52.542c-28.972,0-52.542,23.57-52.542,52.542h24.88
			C278.84,37.895,291.25,25.486,306.5,25.486z M275.491,297.362H247.63v24.881h27.861V297.362z M468.827,118.664H342.139v24.88
			h52.902l-12.345,62.444c-0.845,4.27-2.379,6.609-3.076,7.182H233.382c-0.698-0.573-2.232-2.912-3.076-7.182l-12.345-62.444h52.904
			v-24.88H144.174L0.5,281.389l106.572,106.57l36.44-36.439v242.874h325.977V351.521l36.44,36.439L612.5,281.389L468.827,118.664z
			 M471.914,318.76h-27.307v250.753H168.393V318.76h-27.305l-34.016,34.014l-72.444-72.446l120.77-136.783H192.6l13.299,67.269
			c3.321,16.801,13.8,27.239,27.348,27.239h146.511c13.547,0,24.026-10.437,27.346-27.239l13.299-67.269h37.201l120.77,136.783
			l-72.443,72.446L471.914,318.76z"/>
	</g>
</g>
</svg>
