<?xml version="1.0" encoding="UTF-8" standalone="no"?>
<!-- Created with Inkscape (http://www.inkscape.org/) -->

<svg
   xmlns:dc="http://purl.org/dc/elements/1.1/"
   xmlns:cc="http://creativecommons.org/ns#"
   xmlns:rdf="http://www.w3.org/1999/02/22-rdf-syntax-ns#"
   xmlns:svg="http://www.w3.org/2000/svg"
   xmlns="http://www.w3.org/2000/svg"
   xmlns:sodipodi="http://sodipodi.sourceforge.net/DTD/sodipodi-0.dtd"
   xmlns:inkscape="http://www.inkscape.org/namespaces/inkscape"
   width="2048"
   height="2048"
   id="svg2"
   version="1.1"
   inkscape:version="0.48.4 r9939"
   sodipodi:docname="Originuum Communication - Símbolo Logotipo - 1.0.0.svg"
   inkscape:export-filename="./Originuum Communication - Logo Symbol - 1.0.0 - 32x32.png"
   inkscape:export-xdpi="1.41"
   inkscape:export-ydpi="1.41">
  <sodipodi:namedview
     id="base"
     pagecolor="#ffffff"
     bordercolor="#666666"
     borderopacity="1.0"
     inkscape:pageopacity="0.0"
     inkscape:pageshadow="2"
     inkscape:zoom="0.125"
     inkscape:cx="643.83268"
     inkscape:cy="605.15289"
     inkscape:document-units="px"
     inkscape:current-layer="layer1"
     showgrid="false"
     inkscape:snap-page="true"
     inkscape:snap-bbox="true"
     inkscape:bbox-paths="true"
     inkscape:bbox-nodes="true"
     inkscape:snap-bbox-midpoints="true"
     inkscape:snap-bbox-edge-midpoints="true"
     inkscape:object-paths="true"
     inkscape:snap-intersection-paths="true"
     inkscape:object-nodes="true"
     inkscape:snap-smooth-nodes="true"
     inkscape:snap-midpoints="true"
     inkscape:snap-object-midpoints="true"
     inkscape:snap-center="true"
     showguides="true"
     inkscape:guide-bbox="true"
     inkscape:snap-global="true"
     fit-margin-top="0"
     fit-margin-left="0"
     fit-margin-right="0"
     fit-margin-bottom="0"
     inkscape:window-width="1323"
     inkscape:window-height="744"
     inkscape:window-x="43"
     inkscape:window-y="24"
     inkscape:window-maximized="1"
     inkscape:snap-nodes="false">
    <sodipodi:guide
       id="guide2992"
       position="0.0,0"
       orientation="2048.0,0" />
    <sodipodi:guide
       id="guide2994"
       position="1024.0,0"
       orientation="2048.0,0" />
    <sodipodi:guide
       id="guide2996"
       position="2048.0,0"
       orientation="2048.0,0" />
    <sodipodi:guide
       id="guide2998"
       position="0,0.0"
       orientation="0,2048.0" />
    <sodipodi:guide
       id="guide3000"
       position="0,1024.0"
       orientation="0,2048.0" />
    <sodipodi:guide
       id="guide3002"
       position="0,2048.0"
       orientation="0,2048.0" />
  </sodipodi:namedview>
  <defs
     id="defs4" />
  <metadata
     id="metadata7">
    <rdf:RDF>
      <cc:Work
         rdf:about="">
        <dc:format>image/svg+xml</dc:format>
        <dc:type
           rdf:resource="http://purl.org/dc/dcmitype/StillImage" />
        <dc:title></dc:title>
        <dc:creator>
          <cc:Agent>
            <dc:title>Maicon Fonseca Zanco, Originuum</dc:title>
          </cc:Agent>
        </dc:creator>
        <dc:rights>
          <cc:Agent>
            <dc:title>Maicon Fonseca Zanco, Originuum</dc:title>
          </cc:Agent>
        </dc:rights>
        <dc:publisher>
          <cc:Agent>
            <dc:title>Maicon Fonseca Zanco, Originuum</dc:title>
          </cc:Agent>
        </dc:publisher>
      </cc:Work>
    </rdf:RDF>
  </metadata>
  <g
     inkscape:label="Camada 1"
     inkscape:groupmode="layer"
     id="layer1"
     transform="translate(-76.28125,1206.3751)">
    <path
       inkscape:connector-curvature="0"
       id="path2985"
       d="m 1160.4658,-983.98932 c -532.30816,0 -963.81546,358.94978 -963.81546,801.66214 0,182.083355 73.00155,349.95623 195.98315,484.54319 C 312.27973,404.7364 191.02007,477.55159 76.281225,557.2337 237.38012,544.21942 402.88213,513.66162 543.76573,433.60619 c 167.13468,115.87123 382.10052,185.63294 616.70007,185.63294 532.3081,0 963.8155,-358.85394 963.8155,-801.56631 0,-442.71236 -431.5074,-801.66214 -963.8155,-801.66214 z"
       style="color:#000000;fill:#ffffff;fill-opacity:1;fill-rule:nonzero;stroke:none;stroke-width:22.60000038;marker:none;visibility:visible;display:inline;overflow:visible;enable-background:accumulate" />
    <path
       style="color:#000000;fill:#2eb872;fill-opacity:1;fill-rule:nonzero;stroke:none;stroke-width:1;marker:none;visibility:visible;display:inline;overflow:visible;enable-background:accumulate"
       d="m 1349.7877,-600.12113 -783.83681,288.84754 0,257.796905 66.98886,24.72551 0,163.590835 c 0,47.14179 37.95994,85.10173 85.10173,85.10173 47.14179,0 85.10173,-37.95994 85.10173,-85.10173 l 0,-100.914565 546.64449,201.445775 0,-835.492 z m 268.243,67.46804 a 40.910994,40.910994 0 0 0 -12.4586,2.68339 c -3.5825,1.36623 -8.0717,2.98935 -13.417,5.27094 a 40.910994,40.910994 0 0 0 -14.1836,65.07216 c 142.9719,157.46991 143.1216,396.963285 0.1917,554.407105 a 40.910994,40.910994 0 0 0 14.1836,64.976325 c 4.2206,1.79885 8.6359,3.73948 13.4169,5.55845 a 40.910994,40.910994 0 0 0 45.1385,-11.02106 c 170.4045,-191.435785 170.2177,-481.92862 -0.1917,-673.3387 a 40.910994,40.910994 0 0 0 -32.6798,-13.60861 z m -120.5608,77.91408 a 31.814904,31.814904 0 0 0 -9.5836,2.01255 c -2.7859,1.06246 -6.2892,2.34663 -10.446,4.12091 a 31.814904,31.814904 0 0 0 -11.1169,50.60103 c 111.1837,122.45827 111.3428,308.724945 0.1917,431.162935 a 31.814904,31.814904 0 0 0 11.021,50.60103 c 3.2822,1.39892 6.7281,2.80222 10.4461,4.21675 a 31.814904,31.814904 0 0 0 35.0757,-8.52934 c 132.517,-148.87221 132.425,-374.791725 -0.096,-523.643975 a 31.814904,31.814904 0 0 0 -25.4923,-10.54189 z"
       id="rect2990"
       inkscape:connector-curvature="0" />
  </g>
</svg>
