<?xml version="1.0" encoding="UTF-8" standalone="no"?>
<!-- Created with Inkscape (http://www.inkscape.org/) -->

<svg
   xmlns:dc="http://purl.org/dc/elements/1.1/"
   xmlns:cc="http://creativecommons.org/ns#"
   xmlns:rdf="http://www.w3.org/1999/02/22-rdf-syntax-ns#"
   xmlns:svg="http://www.w3.org/2000/svg"
   xmlns="http://www.w3.org/2000/svg"
   xmlns:sodipodi="http://sodipodi.sourceforge.net/DTD/sodipodi-0.dtd"
   xmlns:inkscape="http://www.inkscape.org/namespaces/inkscape"
   version="1.1"
   id="svg4643"
   width="297mm"
   height="210mm"
   viewBox="0 0 1121.22 793.70082"
   sodipodi:docname="BEAR_SAFETY2.svg"
   inkscape:export-filename="C:\Users\PNB-IT\Documents\code\pnb_main\static\img\icons\BEAR_SAFETY5.png"
   inkscape:export-xdpi="95.114388"
   inkscape:export-ydpi="95.114388"
   inkscape:version="0.92.4 (5da689c313, 2019-01-14)">
  <metadata
     id="metadata4649">
    <rdf:RDF>
      <cc:Work
         rdf:about="">
        <dc:format>image/svg+xml</dc:format>
        <dc:type
           rdf:resource="http://purl.org/dc/dcmitype/StillImage" />
        <dc:title></dc:title>
      </cc:Work>
    </rdf:RDF>
  </metadata>
  <defs
     id="defs4647" />
  <sodipodi:namedview
     pagecolor="#000000"
     bordercolor="#666666"
     borderopacity="1"
     objecttolerance="10"
     gridtolerance="10"
     guidetolerance="10"
     inkscape:pageopacity="0"
     inkscape:pageshadow="2"
     inkscape:window-width="2560"
     inkscape:window-height="1494"
     id="namedview4645"
     showgrid="false"
     inkscape:pagecheckerboard="false"
     fit-margin-top="0"
     fit-margin-left="0"
     fit-margin-right="0"
     fit-margin-bottom="0"
     units="mm"
     viewbox-width="800.22"
     inkscape:zoom="0.66018849"
     inkscape:cx="562.17694"
     inkscape:cy="218.51406"
     inkscape:window-x="-11"
     inkscape:window-y="-11"
     inkscape:window-maximized="1"
     inkscape:current-layer="svg4643" />
  <g
     id="g4653"
     transform="translate(-546.89741,-231.90387)" />
  <path
     style="fill:#d2cda3;stroke-width:2.23239994"
     d="m 750.81005,697.14944 c -28.63313,-2.62669 -40.57171,-5.62993 -52.975,-13.32626 -12.33093,-7.65132 -13.5147,-7.73689 -27.2648,-1.97 -23.90047,10.02392 -60.84448,10.006 -69.15331,-0.0332 -4.9066,-5.92878 -5.27761,-14.91737 -0.81321,-19.70574 22.95656,-24.62244 22.30674,-23.42808 22.19239,-40.78986 -0.12114,-18.4068 -0.57647,-19.49306 -16.1632,-38.56993 -6.67454,-8.16906 -13.04516,-18.93592 -15.24583,-25.76655 -2.60455,-8.08449 -8.22494,-16.7686 -18.07156,-27.92284 -10.92124,-12.37162 -15.71216,-20.09443 -20.31708,-32.75058 -10.06077,-27.65109 -11.698,-30.91471 -15.50883,-30.91471 -6.37661,0 -61.72577,28.73465 -62.94039,32.67562 -1.89602,6.15178 -5.82903,64.00716 -5.83892,85.89167 -0.0112,26.41373 3.19903,30.71041 24.81641,33.20759 13.38216,1.54587 14.73595,2.17911 15.42499,7.21507 0.41543,3.03627 1.68491,6.46449 2.8211,7.61827 4.61227,4.68376 1.27169,9.43175 -13.40165,19.04788 -22.33093,14.63448 -31.73983,16.68629 -61.61395,13.43612 -34.12995,-3.71325 -37.47921,-4.58261 -44.63823,-11.58728 -6.21245,-6.07844 -23.6963,-37.47286 -29.40767,-52.80512 -1.58345,-4.25077 -8.18908,-19.15608 -14.67917,-33.12291 -6.49009,-13.96682 -13.73187,-30.25912 -16.09283,-36.20508 -6.25392,-15.75022 -9.62993,-17.0231 -24.69379,-9.31049 -18.44006,9.44118 -35.04223,26.93133 -46.90524,49.41396 -21.26826,40.30738 -26.51325,62.19142 -17.11051,71.39135 4.30516,4.2123 6.31269,4.49041 22.37405,3.09931 17.33021,-1.50098 17.71401,-1.42444 21.5451,4.2964 3.77172,5.63222 3.70517,6.21496 -2.01575,17.64666 -4.45529,8.90259 -7.68296,12.42459 -13.07017,14.26217 -4.12309,1.4063 -23.20051,2.43998 -45.03039,2.43998 h -37.87655 l -29.19679,-14.29879 c -19.17422,-9.3903 -30.65418,-16.40197 -33.44236,-20.42576 -3.95497,-5.70761 -4.23931,-11.26641 -4.15407,-81.20562 0.20063,-164.55361 11.17788,-212.41011 68.12634,-297.00206 54.83128,-81.44711 110.61059,-125.80983 177.86708,-141.46222 9.9775,-2.32205 31.81273,-5.17072 48.52274,-6.33041 29.36446,-2.03791 43.46232,-1.61555 143.22547,4.29088 68.93435,4.08121 77.20315,3.49953 110.58665,-7.77955 24.67517,-8.33682 32.05143,-9.91301 46.39927,-9.91475 l 17.05985,-0.002 29.08303,17.58677 c 22.46673,13.5858 32.64336,18.37905 44.73318,21.06949 8.60756,1.91555 18.81876,5.09669 22.69168,7.06925 3.87283,1.97256 13.1604,4.85022 20.63913,6.3948 7.47872,1.54456 19.60463,6.34752 26.9465,10.67322 15.63649,9.21273 29.5464,14.53457 62.49717,23.91098 23.01021,6.54773 24.60251,6.71434 36.80131,3.85102 23.78156,-5.58209 33.11616,3.52678 24.25876,23.67228 -5.05863,11.5056 -4.88103,16.27516 1.8726,50.28263 1.4471,7.28704 2.2182,21.83832 1.7134,32.33621 -0.7346,15.27761 -2.1326,21.37813 -7.00463,30.56644 -4.3731,8.24714 -6.08707,14.77931 -6.08707,23.19898 0,10.24145 1.13857,13.20215 9.0275,23.47486 15.6653,20.39899 11.2257,37.45713 -13.54122,52.02893 -15.76477,9.27528 -29.0514,9.6991 -48.52271,1.54783 -7.44764,-3.11778 -20.88373,-7.9795 -29.85783,-10.80378 -8.97409,-2.82428 -23.70017,-9.62121 -32.72456,-15.10431 -9.02449,-5.48308 -19.08784,-10.61459 -22.36302,-11.40336 -8.11935,-1.95535 -48.93101,3.01796 -56.59752,6.89698 -7.78184,3.93735 -11.09052,10.36264 -17.49795,33.97985 -2.80073,10.3233 -9.18421,28.70652 -14.18551,40.85159 -11.17584,27.13909 -13.18783,42.91858 -10.69915,83.91136 3.01566,49.67254 10.90202,74.90858 25.26138,80.83502 4.67729,1.93042 13.68105,2.86097 24.17151,2.49817 19.51914,-0.67505 25.87851,2.25099 31.01033,14.26835 6.9102,16.18164 2.84137,33.86482 -5.9922,26.04288 -3.03595,-2.68813 -5.08483,-2.33815 -15.31819,2.61707 -13.81406,6.68905 -30.81433,8.02857 -63.65611,5.01572 z M 709.1825,362.7184 c 8.37779,-22.4231 9.9105,-29.06533 9.96589,-43.18977 0.0447,-11.34217 -0.99644,-18.06515 -3.24803,-20.97784 -3.18004,-4.11374 -3.31645,-4.04756 -3.38533,1.64239 -0.10461,8.6409 -3.97592,17.25725 -7.7537,17.25725 -6.93432,0 -10.37298,-6.64051 -10.37298,-20.03148 0,-11.61929 -0.5076,-13.09143 -4.51381,-13.09143 -3.89873,0 -4.51371,1.47214 -4.51371,10.80472 0,11.44354 -3.21622,14.8868 -11.50191,12.31374 -3.32289,-1.03189 -4.22079,-4.06126 -4.76001,-16.05946 -0.51162,-11.38346 -1.44391,-14.78767 -4.04998,-14.78767 -2.60848,0 -3.53827,3.41642 -4.05221,14.88845 -0.6157,13.74358 -1.09516,14.99363 -6.23573,16.25599 -11.12867,2.73289 -12.28073,-0.95433 -12.28073,-39.30543 0,-32.35615 -0.32142,-35.16219 -3.94956,-34.47992 -3.58187,0.67356 -4.00639,4.90243 -4.56044,45.42988 l -0.61096,44.68719 h -5.88607 c -3.60947,0 -9.43381,-3.13592 -15.05814,-8.10758 -13.07035,-11.5536 -12.94483,-5.91028 0.31848,14.32015 6.20026,9.45717 16.18134,26.86216 22.18006,38.67776 l 10.90685,21.48289 26.73076,-0.61575 26.73076,-0.61575 z m -243.24656,-31.46676 0.62013,-35.88315 h -12.46871 c -10.44452,0 -12.46869,0.63728 -12.46869,3.92564 0,2.15911 2.03118,5.62727 4.51374,7.70705 4.06122,3.40233 4.51374,6.51404 4.51374,31.03746 0,14.99078 0.72369,27.96407 1.6082,28.82948 0.8845,0.86545 4.18517,1.27948 7.33484,0.92009 l 5.72663,-0.65342 z m -3.85706,-60.25097 c 5.9764,-3.12949 5.88105,-14.43061 -0.14837,-17.58786 -9.53158,-4.99111 -18.4882,5.5909 -12.41195,14.66439 3.86722,5.77483 6.11564,6.29817 12.56032,2.92347 z"
     id="path4667"
     inkscape:connector-curvature="0"
     inkscape:export-xdpi="95.114388"
     inkscape:export-ydpi="95.114388" />
  <path
     style="fill:#fce82d;stroke-width:2.23239994"
     d="m 751.95178,694.0025 c -31.07367,-3.00263 -40.7863,-5.60781 -56.11226,-15.0509 -10.15063,-6.2544 -11.50637,-6.54642 -18.05495,-3.88929 -22.22231,9.0168 -30.64191,11.01468 -46.57543,11.05182 -19.34253,0.0455 -27.21406,-2.94494 -30.29155,-11.50689 -1.66314,-4.62719 -1.31339,-6.8865 1.53084,-9.88992 22.28476,-23.5325 22.95915,-24.66628 23.85017,-40.09464 1.03914,-17.99316 -1.76936,-25.1375 -17.20556,-43.76834 -6.99686,-8.44493 -12.7408,-18.21352 -14.9319,-25.39423 -2.56587,-8.40914 -7.63525,-16.21775 -18.14286,-27.9466 -12.5498,-14.00838 -15.54385,-19.10158 -21.48361,-36.54602 -8.76559,-25.74389 -12.2273,-30.80042 -19.81118,-28.93807 -3.13581,0.77008 -18.20185,7.93466 -33.47996,15.9213 -22.92296,11.98296 -28.19157,15.6808 -30.14217,21.15558 -1.30007,3.64895 -3.03152,29.12422 -3.84765,56.61172 l -1.48389,49.97726 5.78217,6.57719 c 4.99581,5.68273 7.72821,6.72865 20.09149,7.6909 12.80591,0.99669 14.30928,1.61474 14.30928,5.88261 0,2.62291 0.7617,5.52116 1.69265,6.44057 0.93097,0.9194 1.69266,2.91194 1.69266,4.42784 0,4.21711 -20.39095,17.92465 -34.55117,23.22663 -12.43383,4.6555 -13.09227,4.6757 -40.54871,1.24713 -15.35033,-1.91685 -30.59247,-4.48314 -33.87148,-5.70291 -3.27898,-1.21978 -8.71942,-6.47957 -12.08988,-11.68841 -7.30655,-11.29187 -23.83685,-45.633 -27.94314,-58.05086 -1.60641,-4.85803 -6.30479,-14.86013 -10.44085,-22.22688 -4.13606,-7.36676 -9.56184,-19.291 -12.05731,-26.49833 -8.94981,-25.84845 -11.56773,-27.59188 -29.33665,-19.53699 -14.6415,6.63719 -36.28592,26.75748 -46.52439,43.24829 -22.19943,35.75602 -31.57908,73.37989 -20.89879,83.82981 4.36678,4.27259 6.41044,4.58353 21.77393,3.31287 23.9531,-1.98112 27.54009,1.9397 18.50811,20.23059 -2.9787,6.03218 -6.49358,9.6917 -10.17779,10.59646 -3.09528,0.7601 -23.13688,1.52019 -44.53692,1.68924 l -38.90918,0.30732 -27.79416,-14.18996 c -21.28916,-10.86888 -28.64361,-15.77854 -31.42365,-20.97782 -8.52345,-15.94064 -4.1038,-188.38358 6.15535,-240.16521 9.23036,-46.58904 25.70782,-84.04162 58.10874,-132.07881 24.63153,-36.51837 42.66287,-58.58552 63.85108,-78.1423 31.38938,-28.97247 58.21955,-45.47736 91.78406,-56.46201 41.96826,-13.73497 83.52783,-16.05269 180.1062,-10.04433 28.54941,1.77614 66.2215,3.25068 83.7157,3.27679 31.53454,0.047 32.03848,-0.0314 58.67874,-9.11636 19.29795,-6.58117 31.6413,-9.43187 43.79749,-10.11502 16.12033,-0.90594 17.5177,-0.59229 29.33933,6.58589 45.04764,27.35323 49.8634,29.82475 63.06507,32.36598 7.55788,1.45487 19.0571,5.06655 25.55369,8.02597 6.49658,2.95942 14.87464,5.39046 18.61784,5.40232 3.74321,0.011 10.34458,2.03839 14.66971,4.50335 20.82557,11.86902 47.00371,22.65373 72.23812,29.76029 27.54554,7.75745 27.85732,7.79139 39.95482,4.35041 21.10715,-6.00369 28.87322,0.65497 21.02094,18.02341 -5.77503,12.77385 -5.76234,19.00903 0.0942,46.26541 6.15898,28.66417 5.24538,48.16362 -3.08115,65.76032 -4.58973,9.69969 -6.13433,16.41044 -6.13433,26.65157 0,12.58183 0.74389,14.65638 9.20762,25.67943 8.04044,10.47178 9.06274,13.08721 8.06434,20.63342 -1.5075,11.39428 -7.2021,18.45079 -22.00767,27.27068 -10.50752,6.25946 -13.74894,7.13174 -23.47514,6.31718 -6.20643,-0.51976 -17.37785,-3.60993 -24.82558,-6.86703 -7.44764,-3.25712 -20.14261,-7.92131 -28.21085,-10.36487 -8.06834,-2.44356 -21.12234,-8.40279 -29.00897,-13.24274 -21.95306,-13.47234 -28.16413,-15.03492 -49.07984,-12.34742 -40.49229,5.20295 -43.85824,7.60847 -51.81089,37.02781 -5.89447,21.80512 -9.98206,33.17491 -20.64091,57.41304 -6.12647,13.93144 -6.30952,15.48891 -6.22867,52.99665 0.13203,61.25795 8.51795,94.94343 25.93059,104.16131 6.19401,3.279 11.6728,4.0225 26.1064,3.54298 20.38729,-0.67734 24.33079,1.07835 29.47663,13.12339 3.15119,7.37599 4.04954,18.76873 1.66395,21.10286 -0.75443,0.73816 -3.24517,0.19737 -5.53481,-1.20168 -3.33361,-2.03695 -5.87097,-1.6194 -12.73374,2.09543 -8.08066,4.37405 -29.26134,9.92252 -35.19985,9.22098 -1.49046,-0.17612 -14.89706,-1.49782 -29.79243,-2.93716 z M 700.5186,389.76878 c 1.18573,-1.51814 6.38804,-14.78278 11.56069,-29.47698 10.53557,-29.92929 12.69363,-52.72176 5.89143,-62.22377 -5.1287,-7.16429 -7.76639,-6.02446 -7.8056,3.37299 -0.0429,10.24126 -2.60419,14.4752 -8.13498,13.44657 -3.37711,-0.62809 -4.36364,-3.03882 -4.833,-11.81028 -0.89576,-16.73878 -2.35102,-20.95798 -7.22868,-20.95798 -3.56927,0 -4.47012,1.83622 -5.03498,10.26273 -0.45382,6.77174 -2.01021,11.07392 -4.57527,12.64748 -6.13049,3.76077 -9.51394,-1.55706 -10.78223,-16.94637 -0.84135,-10.2083 -1.98983,-13.69252 -4.5138,-13.69252 -2.52388,0 -3.67245,3.48422 -4.51372,13.69252 -1.21137,14.69915 -3.8395,19.20115 -10.48036,17.95323 -3.84496,-0.72249 -4.24026,-3.73416 -4.80941,-36.64227 l -0.62008,-35.85507 h -5.58635 -5.58627 v 42.61814 c 0,52.77096 -0.88869,54.57741 -19.21594,39.05743 -9.4347,-7.98955 -14.6371,-9.5878 -14.6371,-4.4967 0,1.0118 5.52043,10.44299 12.2676,20.95819 6.74716,10.51522 16.9673,28.5088 22.71133,39.98573 l 10.44374,20.86717 h 26.66349 c 18.67636,0 27.30929,-0.82684 28.81949,-2.76024 z M 466.45751,330.5894 v -37.64951 l -12.97701,0.66227 c -11.36884,0.58016 -13.0639,1.25944 -13.67818,5.48126 -0.44857,3.08295 0.97425,5.69635 3.94953,7.25431 4.34285,2.27412 4.65069,4.40344 4.65069,32.16822 v 29.73294 h 9.02748 9.02749 z m 0.11239,-61.92491 c 5.69763,-10.41651 -5.736,-22.00345 -15.69571,-15.90616 -4.52141,2.76799 -5.93108,13.13762 -2.35849,17.34946 4.13321,4.87283 15.07797,3.99787 18.0542,-1.4433 z"
     id="path4665"
     inkscape:connector-curvature="0"
     inkscape:export-xdpi="95.114388"
     inkscape:export-ydpi="95.114388" />
  <path
     style="fill:#d2c75b;stroke-width:2.23239994"
     d="m 751.95178,694.0025 c -31.07367,-3.00263 -40.7863,-5.60781 -56.11226,-15.0509 -10.15063,-6.2544 -11.50637,-6.54642 -18.05495,-3.88929 -22.22231,9.0168 -30.64191,11.01468 -46.57543,11.05182 -19.34253,0.0455 -27.21406,-2.94494 -30.29155,-11.50689 -1.66314,-4.62719 -1.31339,-6.8865 1.53084,-9.88992 22.28476,-23.5325 22.95915,-24.66628 23.85017,-40.09464 1.03914,-17.99316 -1.76936,-25.1375 -17.20556,-43.76834 -6.99686,-8.44493 -12.7408,-18.21352 -14.9319,-25.39423 -2.56587,-8.40914 -7.63525,-16.21775 -18.14286,-27.9466 -12.5498,-14.00838 -15.54385,-19.10158 -21.48361,-36.54602 -8.76559,-25.74389 -12.2273,-30.80042 -19.81118,-28.93807 -3.13581,0.77008 -18.20185,7.93466 -33.47996,15.9213 -22.92296,11.98296 -28.19157,15.6808 -30.14217,21.15558 -1.30007,3.64895 -3.03152,29.12422 -3.84765,56.61172 l -1.48389,49.97726 5.78217,6.57719 c 4.99581,5.68273 7.72821,6.72865 20.09149,7.6909 12.80591,0.99669 14.30928,1.61474 14.30928,5.88261 0,2.62291 0.7617,5.52116 1.69265,6.44057 0.93097,0.9194 1.69266,2.91194 1.69266,4.42784 0,4.21711 -20.39095,17.92465 -34.55117,23.22663 -12.43383,4.6555 -13.09227,4.6757 -40.54871,1.24713 -15.35033,-1.91685 -30.59247,-4.48314 -33.87148,-5.70291 -3.27898,-1.21978 -8.71942,-6.47957 -12.08988,-11.68841 -7.30655,-11.29187 -23.83685,-45.633 -27.94314,-58.05086 -1.60641,-4.85803 -6.30479,-14.86013 -10.44085,-22.22688 -4.13606,-7.36676 -9.56184,-19.291 -12.05731,-26.49833 -8.94981,-25.84845 -11.56773,-27.59188 -29.33665,-19.53699 -14.6415,6.63719 -36.28592,26.75748 -46.52439,43.24829 -22.19943,35.75602 -31.57908,73.37989 -20.89879,83.82981 4.36678,4.27259 6.41044,4.58353 21.77393,3.31287 23.9531,-1.98112 27.54009,1.9397 18.50811,20.23059 -2.9787,6.03218 -6.49358,9.6917 -10.17779,10.59646 -3.09528,0.7601 -23.13688,1.52019 -44.53692,1.68924 l -38.90918,0.30732 -27.79416,-14.18996 c -21.28916,-10.86888 -28.64361,-15.77854 -31.42365,-20.97782 -8.52345,-15.94064 -4.1038,-188.38358 6.15535,-240.16521 9.23036,-46.58904 25.70782,-84.04162 58.10874,-132.07881 24.63153,-36.51837 42.66287,-58.58552 63.85108,-78.1423 31.38938,-28.97247 58.21955,-45.47736 91.78406,-56.46201 41.96826,-13.73497 83.52783,-16.05269 180.1062,-10.04433 28.54941,1.77614 66.2215,3.25068 83.7157,3.27679 31.53454,0.047 32.03848,-0.0314 58.67874,-9.11636 19.29795,-6.58117 31.6413,-9.43187 43.79749,-10.11502 16.12033,-0.90594 17.5177,-0.59229 29.33933,6.58589 45.04764,27.35323 49.8634,29.82475 63.06507,32.36598 7.55788,1.45487 19.0571,5.06655 25.55369,8.02597 6.49658,2.95942 14.87464,5.39046 18.61784,5.40232 3.74321,0.011 10.34458,2.03839 14.66971,4.50335 20.82557,11.86902 47.00371,22.65373 72.23812,29.76029 27.54554,7.75745 27.85732,7.79139 39.95482,4.35041 21.10715,-6.00369 28.87322,0.65497 21.02094,18.02341 -5.77503,12.77385 -5.76234,19.00903 0.0942,46.26541 6.15898,28.66417 5.24538,48.16362 -3.08115,65.76032 -4.58973,9.69969 -6.13433,16.41044 -6.13433,26.65157 0,12.58183 0.74389,14.65638 9.20762,25.67943 8.04044,10.47178 9.06274,13.08721 8.06434,20.63342 -1.5075,11.39428 -7.2021,18.45079 -22.00767,27.27068 -10.50752,6.25946 -13.74894,7.13174 -23.47514,6.31718 -6.20643,-0.51976 -17.37785,-3.60993 -24.82558,-6.86703 -7.44764,-3.25712 -20.14261,-7.92846 -28.21085,-10.38077 -8.06834,-2.45231 -21.77886,-8.71647 -30.4678,-13.92037 -8.68894,-5.20386 -19.6066,-10.64384 -24.26138,-12.08884 -4.65477,-1.44498 -8.46328,-3.12596 -8.46328,-3.73554 0,-3.16838 16.90673,3.06485 33.85313,12.48114 10.55085,5.86258 25.27693,12.36524 32.72457,14.45033 7.44773,2.08508 18.28954,6.12729 24.09307,8.98268 5.80353,2.8554 15.21184,6.21344 20.90745,7.46233 9.45267,2.07268 11.51397,1.69865 23.63622,-4.28867 24.92796,-12.3122 29.35866,-26.34649 14.37803,-45.54286 -7.11407,-9.11602 -8.51617,-12.77076 -9.22924,-24.05563 -0.71476,-11.31348 0.20333,-15.45627 6.12987,-27.65974 6.13469,-12.63206 6.97086,-16.66281 6.97238,-33.61282 0,-11.5396 -1.94053,-27.90066 -4.84381,-40.81722 l -4.84559,-21.55767 5.25823,-15.11187 c 4.46761,-12.83954 4.77198,-15.41293 2.02449,-17.11405 -4.37864,-2.71108 -8.2135,-2.52677 -20.16029,0.96895 -9.26998,2.71248 -11.92759,2.49891 -30.46768,-2.44866 -27.34985,-7.2985 -57.76038,-18.94138 -73.12735,-27.99726 -6.94861,-4.09486 -17.06771,-8.15655 -22.48692,-9.02598 -5.41921,-0.86943 -14.50918,-3.59593 -20.19987,-6.05891 -5.6907,-2.46297 -16.26871,-5.82985 -23.50677,-7.48196 -15.43021,-3.52198 -23.30023,-7.25497 -50.42459,-23.91789 -22.41224,-13.76824 -33.90549,-17.67547 -45.89275,-15.6016 -4.45716,0.77113 -22.51247,6.02265 -40.12298,11.67009 l -32.0191,10.26807 -60.5126,-3.0063 c -101.53968,-5.04453 -164.9431,-5.45777 -190.70531,-1.24292 -51.70268,8.45884 -90.0105,28.40232 -131.18042,68.29402 -42.31847,41.00457 -87.3285,108.91786 -105.06442,158.52621 -16.1491,45.16993 -21.3093,93.49729 -21.55997,201.91808 -0.17558,75.90801 0.0284,80.03614 4.17614,84.52972 2.39836,2.59839 15.72712,10.65663 29.61947,17.90718 l 25.25892,13.18285 h 38.54468 c 22.15675,0 40.74884,-0.98692 43.72886,-2.32137 2.85129,-1.2767 6.88687,-6.24714 8.96799,-11.04539 3.27843,-7.55875 3.3534,-9.14511 0.56135,-11.87694 -2.43282,-2.38037 -5.01544,-2.64984 -10.53954,-1.0997 -12.67502,3.55672 -22.21637,2.42829 -30.2668,-3.57962 -6.74515,-5.03382 -7.54785,-6.7811 -7.54785,-16.42985 0,-23.15887 24.275,-74.06169 45.26774,-94.92302 15.40934,-15.31286 34.12559,-26.49694 44.39088,-26.52615 8.82715,-0.0252 11.57401,3.61711 19.96866,26.47761 3.34488,9.10881 8.94313,21.52989 12.44058,27.60242 3.49746,6.07254 9.02777,17.99678 12.28957,26.49833 9.41146,24.5299 23.18227,50.65261 30.14039,57.17511 5.38909,5.05172 9.93152,6.49462 28.71754,9.12192 33.20756,4.64432 40.63279,4.21541 56.16895,-3.24413 7.44768,-3.57593 15.91219,-8.52249 18.81003,-10.99232 4.79243,-4.08461 5.03168,-5.19365 2.64607,-12.26621 -2.57529,-7.63492 -2.84604,-7.77556 -14.96827,-7.77556 -10.4225,0 -13.19972,-0.90181 -17.82924,-5.7894 -8.15803,-8.61279 -8.88006,-17.13974 -5.95246,-70.29597 2.58598,-46.95282 2.84751,-48.66395 8.28692,-54.21904 7.98463,-8.15439 57.70194,-33.10193 65.96797,-33.10193 8.75112,0 10.01654,1.75428 17.52261,24.29014 8.22744,24.70197 10.09283,28.04659 24.83543,44.52979 7.9958,8.93985 14.29513,18.75043 17.45641,27.18655 2.72042,7.25955 9.20432,18.31427 14.40868,24.56605 15.87429,19.06892 17.78578,24.93534 16.9564,52.03844 -0.2638,8.61984 -1.702,11.78213 -8.77872,19.30205 -4.65478,4.94633 -10.70531,11.84105 -13.44547,15.32171 l -4.98228,6.32831 4.69007,4.92563 c 4.36443,4.58374 6.27691,4.8721 27.55094,4.15404 19.25292,-0.64978 25.03492,-1.75051 36.6359,-6.97437 l 13.77493,-6.2028 11.05059,6.85839 c 15.33918,9.51983 28.26079,12.79805 61.92525,15.71039 31.99998,2.76838 47.59447,0.89103 59.22967,-7.13037 3.45849,-2.38422 8.23637,-4.03028 10.61758,-3.65775 2.38121,0.37253 4.37561,-0.0682 4.43198,-0.97888 0.47517,-7.67276 -0.66733,-11.04529 -5.74019,-16.94409 -5.69499,-6.622 -6.33757,-6.7942 -25.38985,-6.80224 -15.63702,-0.009 -21.04462,-0.90161 -27.03378,-4.47435 -16.74388,-9.9882 -25.23262,-46.44264 -25.18045,-108.13528 l 0.0313,-36.43519 9.69601,-23.18603 c 5.33282,-12.75233 12.60894,-33.61976 16.16918,-46.37207 4.65844,-16.68618 8.16125,-24.84448 12.49486,-29.102 7.85947,-7.72141 27.68673,-13.2662 44.34342,-12.40085 l 13.1252,0.68188 -15.79809,1.83449 c -37.40909,4.34397 -41.91244,7.6711 -49.78076,36.77828 -5.89438,21.80512 -9.98197,33.17491 -20.64092,57.41304 -6.12647,13.93144 -6.30951,15.48891 -6.22867,52.99665 0.13204,61.25795 8.51805,94.94343 25.9306,104.16131 6.194,3.279 11.67289,4.0225 26.1064,3.54298 20.38738,-0.67734 24.33078,1.07835 29.47672,13.12339 3.15119,7.37599 4.04944,18.76873 1.66394,21.10286 -0.75443,0.73816 -3.24516,0.19737 -5.53489,-1.20168 -3.33361,-2.03695 -5.87098,-1.6194 -12.73365,2.09543 -8.08067,4.37405 -29.26134,9.92252 -35.19994,9.22098 -1.49046,-0.17604 -14.89707,-1.49782 -29.79243,-2.93716 z M 438.24662,405.6008 c -33.17555,-4.74718 -59.28193,-24.0212 -74.16485,-54.75502 -6.60361,-13.6367 -7.08254,-16.26823 -7.08254,-38.91583 0,-22.59729 0.4872,-25.29045 6.99039,-38.6434 10.24798,-21.04199 24.95946,-35.83202 45.54173,-45.78495 16.88971,-8.1673 17.66323,-8.31579 43.31533,-8.31579 25.03064,0 26.75388,0.30603 41.37184,7.34721 19.90103,9.58592 35.33018,24.90785 45.64439,45.32704 l 8.2336,16.30027 -0.75997,26.23806 c -0.68617,23.68717 -1.38191,27.41877 -7.1564,38.38248 -20.47438,38.87382 -59.19106,58.93603 -101.93352,52.81993 z m 28.21089,-75.0114 v -37.64951 l -12.97701,0.66227 c -11.36884,0.58016 -13.0639,1.25944 -13.67818,5.48126 -0.44857,3.08295 0.97425,5.69635 3.94953,7.25431 4.34285,2.27412 4.65069,4.40344 4.65069,32.16822 v 29.73294 h 9.02748 9.02749 z m 0.11239,-61.92491 c 5.69763,-10.41651 -5.736,-22.00345 -15.69571,-15.90616 -4.52141,2.76799 -5.93108,13.13762 -2.35849,17.34946 4.13321,4.87283 15.07797,3.99787 18.0542,-1.4433 z M 621.38726,380.3838 c -6.89118,-14.02197 -18.16412,-33.95244 -25.05101,-44.28992 -13.28993,-19.9488 -15.8994,-30.94506 -9.4054,-39.6345 3.3613,-4.49772 16.48838,-5.82006 25.65901,-2.58476 l 5.07795,1.79149 v -33.88449 c 9e-5,-42.43108 0.62258,-43.69991 21.44037,-43.69991 18.44561,0 21.44028,3.43685 21.44028,24.60601 v 14.79058 l 7.33481,1.56169 c 4.03417,0.85895 9.33814,2.92527 11.78662,4.59183 2.44839,1.6666 7.01857,3.04479 10.1559,3.0627 3.13734,0.0177 8.24317,1.44886 11.34638,3.17989 3.10321,1.73105 8.70484,4.54943 12.44805,6.2631 3.7432,1.71369 10.14884,6.84105 14.23465,11.39417 l 7.4287,8.27836 -0.90532,25.7255 c -0.83617,23.76072 -1.69601,27.91798 -11.25811,54.43202 l -10.35289,28.70652 -39.42519,0.60211 -39.42528,0.60211 -12.52944,-25.4945 z m 79.13134,9.38498 c 1.18573,-1.51814 6.38804,-14.78278 11.56069,-29.47698 10.53557,-29.92929 12.69363,-52.72176 5.89143,-62.22377 -5.1287,-7.16429 -7.76639,-6.02446 -7.8056,3.37299 -0.0429,10.24126 -2.60419,14.4752 -8.13498,13.44657 -3.37711,-0.62809 -4.36364,-3.03882 -4.833,-11.81028 -0.89576,-16.73878 -2.35102,-20.95798 -7.22868,-20.95798 -3.56927,0 -4.47012,1.83622 -5.03498,10.26273 -0.45382,6.77174 -2.01021,11.07392 -4.57527,12.64748 -6.13049,3.76077 -9.51394,-1.55706 -10.78223,-16.94637 -0.84135,-10.2083 -1.98983,-13.69252 -4.5138,-13.69252 -2.52388,0 -3.67245,3.48422 -4.51372,13.69252 -1.21137,14.69915 -3.8395,19.20115 -10.48036,17.95323 -3.84496,-0.72249 -4.24026,-3.73416 -4.80941,-36.64227 l -0.62008,-35.85507 h -5.58635 -5.58627 v 42.61814 c 0,52.77096 -0.88869,54.57741 -19.21594,39.05743 -9.4347,-7.98955 -14.6371,-9.5878 -14.6371,-4.4967 0,1.0118 5.52043,10.44299 12.2676,20.95819 6.74716,10.51522 16.9673,28.5088 22.71133,39.98573 l 10.44374,20.86717 h 26.66349 c 18.67636,0 27.30929,-0.82684 28.81949,-2.76024 z"
     id="path4663"
     inkscape:connector-curvature="0"
     inkscape:export-xdpi="95.114388"
     inkscape:export-ydpi="95.114388" />
  <path
     style="fill:#a0a0a0;stroke-width:2.23239994"
     d="m 433.0023,403.55303 c -27.38055,-5.65821 -54.74266,-26.84639 -66.99142,-51.8756 -8.53906,-17.44875 -10.61563,-49.27231 -4.41688,-67.6888 8.41906,-25.01303 26.14985,-44.83349 50.62993,-56.59691 11.55729,-5.55363 14.57028,-5.99772 40.69235,-5.99772 27.93138,0 28.35449,0.0762 42.70459,7.68677 85.86772,45.54008 58.77283,170.16166 -38.19085,175.65733 -8.06832,0.45729 -19.06079,-0.076 -24.42772,-1.18507 z m 33.45521,-72.96363 v -37.64951 l -12.97701,0.66227 c -11.36884,0.58016 -13.0639,1.25944 -13.67818,5.48126 -0.44857,3.08295 0.97425,5.69635 3.94953,7.25431 4.34285,2.27412 4.65069,4.40344 4.65069,32.16822 v 29.73294 h 9.02748 9.02749 z m 0.11239,-61.92491 c 5.69763,-10.41651 -5.736,-22.00345 -15.69571,-15.90616 -4.52141,2.76799 -5.93108,13.13762 -2.35849,17.34946 4.13321,4.87283 15.07797,3.99787 18.0542,-1.4433 z m 156.92181,111.58116 c -6.10637,-12.77568 -17.02403,-32.18749 -24.26138,-43.13737 -10.14357,-15.34723 -13.15861,-21.82552 -13.15861,-28.27389 0,-14.20776 11.32172,-19.65863 25.64776,-12.3482 3.55542,1.81428 6.85606,3.29869 7.33489,3.29869 0.47875,0 0.87039,-15.96432 0.87039,-35.47627 0,-20.23187 1.00394,-37.31165 2.33628,-39.74748 1.93659,-3.54043 4.80994,-4.27123 16.79336,-4.27123 9.08729,0 15.13523,1.02525 16.28291,2.76024 1.00421,1.51814 2.33369,10.15414 2.9543,19.19115 l 1.12847,16.43088 7.77103,1.96044 c 4.27403,1.07824 9.83189,3.37279 12.35076,5.09901 2.51879,1.72618 7.7713,3.13854 11.67218,3.13854 3.90088,0 9.51457,1.8507 12.47485,4.11263 2.96028,2.26195 7.60487,4.79371 10.32126,5.62613 2.71649,0.83242 7.9606,4.88066 11.6536,8.99606 5.40501,6.02312 7.02598,10.32773 8.31124,22.06985 2.03691,18.61054 0.40888,28.24425 -9.15045,54.14767 -4.25795,11.53781 -8.82178,25.20101 -10.14188,30.36266 l -2.40015,9.38483 -38.84398,-0.0479 -38.84407,-0.0479 -11.10267,-23.22848 z m 77.02689,9.52313 c 1.18573,-1.51814 6.38804,-14.78278 11.56069,-29.47698 10.53557,-29.92929 12.69363,-52.72176 5.89143,-62.22377 -5.1287,-7.16429 -7.76639,-6.02446 -7.8056,3.37299 -0.0429,10.24126 -2.60419,14.4752 -8.13498,13.44657 -3.37711,-0.62809 -4.36364,-3.03882 -4.833,-11.81028 -0.89576,-16.73878 -2.35102,-20.95798 -7.22868,-20.95798 -3.56927,0 -4.47012,1.83622 -5.03498,10.26273 -0.45382,6.77174 -2.01021,11.07392 -4.57527,12.64748 -6.13049,3.76077 -9.51394,-1.55706 -10.78223,-16.94637 -0.84135,-10.2083 -1.98983,-13.69252 -4.5138,-13.69252 -2.52388,0 -3.67245,3.48422 -4.51372,13.69252 -1.21137,14.69915 -3.8395,19.20115 -10.48036,17.95323 -3.84496,-0.72249 -4.24026,-3.73416 -4.80941,-36.64227 l -0.62008,-35.85507 h -5.58635 -5.58627 v 42.61814 c 0,52.77096 -0.88869,54.57741 -19.21594,39.05743 -9.4347,-7.98955 -14.6371,-9.5878 -14.6371,-4.4967 0,1.0118 5.52043,10.44299 12.2676,20.95819 6.74716,10.51522 16.9673,28.5088 22.71133,39.98573 l 10.44374,20.86717 h 26.66349 c 18.67636,0 27.30929,-0.82684 28.81949,-2.76024 z"
     id="path4661"
     inkscape:connector-curvature="0"
     inkscape:export-xdpi="95.114388"
     inkscape:export-ydpi="95.114388" />
  <path
     style="fill:#5c5c5c;stroke-width:2.23239994"
     d="m 433.0023,403.55303 c -27.38055,-5.65821 -54.74266,-26.84639 -66.99142,-51.8756 -8.53906,-17.44875 -10.61563,-49.27231 -4.41688,-67.6888 8.41906,-25.01303 26.14985,-44.83349 50.62993,-56.59691 11.55729,-5.55363 14.57028,-5.99772 40.69235,-5.99772 27.93138,0 28.35449,0.0762 42.70459,7.68677 85.86772,45.54008 58.77283,170.16166 -38.19085,175.65733 -8.06832,0.45729 -19.06079,-0.076 -24.42772,-1.18507 z m 34.58364,-72.85344 V 292.0562 l -12.03178,-0.67366 c -6.93099,-0.38809 -13.38928,0.42866 -15.23389,1.92652 -4.68456,3.80399 -3.9342,12.56165 1.31165,15.30859 4.15278,2.17456 4.51374,4.62356 4.51374,30.62438 0,15.54343 0.72484,28.97 1.61077,29.83683 0.88594,0.8668 5.71001,1.28084 10.72015,0.92007 l 9.10936,-0.65594 z m -1.12843,-59.62123 c 2.48256,-2.42901 4.51374,-6.40376 4.51374,-8.83278 0,-5.84263 -7.78584,-13.24916 -13.92774,-13.24916 -11.361,0 -17.23632,14.00907 -9.41962,22.46011 4.90188,5.29969 13.2009,5.13306 18.83362,-0.37817 z M 623.4918,380.24565 c -6.10637,-12.77568 -17.02403,-32.18749 -24.26129,-43.13737 -10.14375,-15.34723 -13.15879,-21.82552 -13.15879,-28.27389 0,-14.20776 11.32172,-19.65863 25.64776,-12.3482 3.55542,1.81428 6.85606,3.29869 7.33489,3.29869 0.47875,0 0.87039,-15.96432 0.87039,-35.47627 0,-20.23187 1.00394,-37.31165 2.33628,-39.74748 1.93659,-3.54043 4.80994,-4.27123 16.79336,-4.27123 9.08729,0 15.13523,1.02525 16.28291,2.76024 1.00421,1.51814 2.33369,10.15414 2.9543,19.19115 l 1.12847,16.43088 7.77103,1.96044 c 4.27403,1.07824 9.83189,3.37279 12.35076,5.09901 2.51879,1.72618 7.7713,3.13854 11.67218,3.13854 3.90088,0 9.51457,1.8507 12.47485,4.11263 2.96028,2.26195 7.60487,4.79371 10.32126,5.62613 2.71649,0.83242 7.9606,4.88066 11.6536,8.99606 5.40501,6.02312 7.02598,10.32773 8.31124,22.06985 2.03691,18.61054 0.40888,28.24425 -9.15045,54.14767 -4.25795,11.53781 -8.82178,25.20101 -10.14188,30.36266 l -2.40015,9.38483 -38.84398,-0.0479 -38.84407,-0.0479 -11.10267,-23.22848 z m 89.19014,-16.34856 c 9.37521,-25.20883 11.05898,-32.13944 11.05898,-45.52224 0,-12.71554 -0.92604,-16.93806 -4.76081,-21.70794 -6.37116,-7.92499 -9.67654,-6.27863 -11.03737,5.49763 -0.77623,6.71752 -2.18503,9.76541 -4.51371,9.76541 -2.52388,0 -3.67246,-3.48423 -4.51372,-13.69253 -1.2112,-14.69631 -3.83718,-19.19678 -10.48045,-17.96147 -3.26322,0.60681 -4.34238,3.11911 -4.88205,11.36563 -0.46069,7.04077 -1.85985,11.02484 -4.17728,11.89493 -5.05687,1.89865 -7.46881,-3.29864 -7.50812,-16.17837 -0.0366,-11.94726 -3.90302,-17.84195 -10.1618,-15.49203 -2.49663,0.9374 -3.42329,4.71231 -3.44858,14.04826 -0.0384,14.29775 -2.31108,19.57343 -7.57896,17.59558 -2.99011,-1.12269 -3.65413,-6.87787 -4.17728,-36.20493 l -0.62194,-34.87005 -7.28773,-0.68851 -7.28765,-0.68852 -0.6114,44.66999 c -0.42318,30.91818 -1.40103,44.92703 -3.17647,45.50495 -1.41086,0.45924 -7.36563,-3.23023 -13.23303,-8.19884 -18.78687,-15.90927 -22.38106,-7.04127 -6.56519,16.19839 5.92171,8.70123 15.92995,25.75729 22.24045,37.90236 6.31059,12.14507 12.29877,23.35317 13.30718,24.90688 1.36619,2.10494 9.03681,2.66776 30.09572,2.20819 l 28.26222,-0.61675 z"
     id="path4659"
     inkscape:connector-curvature="0"
     inkscape:export-xdpi="95.114388"
     inkscape:export-ydpi="95.114388" />
  <path
     style="fill:#5f581a;stroke-width:2.23239994"
     d="m 433.0023,403.55303 c -27.38055,-5.65821 -54.74266,-26.84639 -66.99142,-51.8756 -8.53906,-17.44875 -10.61563,-49.27231 -4.41688,-67.6888 8.41906,-25.01303 26.14985,-44.83349 50.62993,-56.59691 11.55729,-5.55363 14.57028,-5.99772 40.69235,-5.99772 27.93138,0 28.35449,0.0762 42.70459,7.68677 85.86772,45.54008 58.77283,170.16166 -38.19085,175.65733 -8.06832,0.45729 -19.06079,-0.076 -24.42772,-1.18507 z m 37.45917,-70.3548 c 0.42607,-26.41331 -0.18687,-39.30267 -1.96899,-41.40364 -3.25005,-3.83158 -27.10057,-4.14075 -30.92293,-0.40085 -4.32489,4.23161 -3.26558,14.63774 1.80549,17.73637 4.12453,2.52025 4.51375,5.14957 4.51375,30.4918 0,19.18084 0.86637,28.58138 2.80933,30.48243 1.64564,1.61016 7.02106,2.47912 12.97701,2.09778 l 10.16769,-0.65095 z m -2.77295,-60.91541 c 3.04678,-2.98106 5.5396,-7.49781 5.5396,-10.03724 0,-6.093 -9.76232,-15.45736 -16.11426,-15.45736 -6.89023,0 -15.48194,8.40636 -15.48194,15.14791 0,7.14472 8.29337,15.76681 15.16566,15.76681 2.94325,0 7.84416,-2.43906 10.89094,-5.42012 z M 623.4918,380.24565 c -6.10637,-12.77568 -17.02403,-32.18749 -24.26129,-43.13737 -10.14375,-15.34723 -13.15879,-21.82552 -13.15879,-28.27389 0,-14.20776 11.32172,-19.65863 25.64776,-12.3482 3.55542,1.81428 6.85606,3.29869 7.33489,3.29869 0.47875,0 0.87039,-15.96432 0.87039,-35.47627 0,-20.23187 1.00394,-37.31165 2.33628,-39.74748 1.93659,-3.54043 4.80994,-4.27123 16.79336,-4.27123 9.08729,0 15.13523,1.02525 16.28291,2.76024 1.00421,1.51814 2.33369,10.15414 2.9543,19.19115 l 1.12847,16.43088 7.77103,1.96044 c 4.27403,1.07824 9.83189,3.37279 12.35076,5.09901 2.51879,1.72618 7.7713,3.13854 11.67218,3.13854 3.90088,0 9.51457,1.8507 12.47485,4.11263 2.96028,2.26195 7.60487,4.79371 10.32126,5.62613 2.71649,0.83242 7.9606,4.88066 11.6536,8.99606 5.40501,6.02312 7.02598,10.32773 8.31124,22.06985 2.03691,18.61054 0.40888,28.24425 -9.15045,54.14767 -4.25795,11.53781 -8.82178,25.20101 -10.14188,30.36266 l -2.40015,9.38483 -38.84398,-0.0479 -38.84407,-0.0479 z m 91.74573,-14.21496 c 9.46294,-26.33273 10.71558,-31.95581 10.73649,-48.19807 0.0223,-17.39302 -0.33304,-18.73657 -6.57332,-24.84218 -3.62832,-3.55011 -7.71582,-6.45472 -9.08327,-6.45472 -3.40543,0 -7.41842,11.02114 -6.22929,17.10765 0.53449,2.73586 0.097,4.97428 -0.97205,4.97428 -1.06916,0 -1.95946,-5.7137 -1.97849,-12.69711 -0.042,-15.58153 -2.04389,-18.95365 -11.24981,-18.95365 -8.5687,0 -11.10052,3.30513 -11.55854,15.08931 -0.26595,6.84167 -0.70994,5.67051 -1.96929,-5.19537 -1.72389,-14.87296 -4.06419,-17.90123 -13.8774,-17.95686 -7.34875,-0.0417 -8.70467,3.1458 -8.70467,20.46218 0,8.76122 -0.77229,12.7546 -2.197,11.36061 -1.20834,-1.18226 -2.47778,-18.02527 -2.8211,-37.42889 l -0.62409,-35.27929 -7.79944,-0.72586 c -12.83727,-1.19471 -13.64084,1.66962 -13.64084,48.62408 0,22.8435 -0.56289,41.53363 -1.25086,41.53363 -0.68796,0 -4.49638,-3.00398 -8.46328,-6.67551 -7.59299,-7.02772 -15.49936,-10.17266 -19.4969,-7.75532 -5.00934,3.02913 -1.9458,12.4289 10.20307,31.30609 6.92351,10.75797 16.72941,28.00627 21.79083,38.32958 5.06134,10.32331 10.20772,20.03885 11.43634,21.59013 1.6626,2.09931 10.08014,2.66392 32.92191,2.20819 l 30.68818,-0.61229 z"
     id="path4657"
     inkscape:connector-curvature="0"
     inkscape:export-xdpi="95.114388"
     inkscape:export-ydpi="95.114388" />
  <path
     style="fill:#090806;stroke-width:2.23239994"
     d="m 422.62608,396.84312 c -25.50001,-8.82049 -42.17371,-23.72625 -54.11084,-48.37338 -6.37984,-13.17273 -7.00226,-16.42068 -7.00226,-36.53979 0,-20.16104 0.61064,-23.33055 7.01968,-36.4352 10.28484,-21.02961 22.88192,-33.72473 43.22609,-43.5625 16.64011,-8.04661 18.03822,-8.33006 41.08793,-8.33006 22.27545,0 24.83527,0.46895 38.50778,7.05474 18.64968,8.98317 34.32375,24.32318 43.49803,42.57091 6.84312,13.61117 7.21019,15.63602 7.21019,39.77087 0,23.76126 -0.43533,26.27092 -6.63657,38.25455 -9.15232,17.68653 -26.04861,33.83092 -44.02688,42.06762 -19.86674,9.10191 -48.41537,10.56404 -68.77315,3.52224 z m 47.21674,-66.14353 v -40.85158 l -14.3025,-0.66241 c -16.80514,-0.77835 -20.67902,1.50346 -20.67902,12.18047 0,5.80795 1.09359,7.94487 4.51374,8.81995 4.22655,1.08142 4.51375,3.01202 4.51375,30.33995 0,16.05177 0.72268,29.89214 1.60597,30.75636 0.88327,0.86424 6.72292,1.27828 12.97701,0.92008 l 11.37105,-0.65124 z m -1.83811,-57.79795 c 6.55679,-6.02693 6.68246,-14.37231 0.31628,-21.00266 -9.77032,-10.17569 -26.68907,-3.61678 -26.68907,10.3466 0,13.76465 15.9706,20.21763 26.37279,10.65606 z m 122.6153,36.6361 c 0.0179,-2.32781 1.06549,-5.72291 2.32546,-7.54467 1.67306,-2.41899 1.88237,-1.52569 0.77632,3.31229 -1.85619,8.11938 -3.14788,9.88191 -3.10178,4.23238 z m 26.62471,-2.42853 c 1.6292,-0.63787 3.5758,-0.55944 4.32567,0.17423 0.74996,0.73376 -0.583,1.25566 -2.96206,1.15979 -2.62921,-0.10599 -3.16396,-0.62921 -1.36361,-1.33411 z m 107.76967,-8.88524 c -1.22478,-3.14712 -0.96553,-3.40075 1.26346,-1.23615 1.54236,1.49791 2.23577,3.2797 1.54093,3.95959 -0.69485,0.67987 -1.95688,-0.54567 -2.80439,-2.72344 z M 652.3346,279.91113 c 0,-11.53781 0.38039,-16.25782 0.84529,-10.48892 0.46489,5.76891 0.46489,15.20894 0,20.97784 -0.4649,5.76891 -0.84529,1.0489 -0.84529,-10.48892 z m 50.41352,3.65704 c -0.83492,-2.12884 0.3819,-2.67841 4.30565,-1.94452 7.48972,1.40086 9.19958,4.91207 2.39211,4.91207 -3.04362,0 -6.05768,-1.33539 -6.69776,-2.96755 z m -26.13972,-5.15545 c -0.14401,-2.6459 -1.85771,-6.37223 -3.80833,-8.28073 -5.03257,-4.92402 -1.63456,-4.30412 5.18756,0.94637 3.15601,2.42901 4.66023,4.41639 3.34254,4.41639 -1.31768,0 -2.86022,1.73895 -3.42785,3.86433 -0.80133,3.0003 -1.09069,2.78869 -1.29392,-0.94636 z m -49.91298,-51.70497 c 0,-1.10081 2.0312,-2.00146 4.51372,-2.00146 2.4826,0 4.51371,0.38096 4.51371,0.84655 0,0.4656 -2.03111,1.36626 -4.51371,2.00147 -2.48252,0.6352 -4.51372,0.25425 -4.51372,-0.84656 z"
     id="path4655"
     inkscape:connector-curvature="0"
     inkscape:export-xdpi="95.114388"
     inkscape:export-ydpi="95.114388" />
  <path
     style="fill:#000000;fill-opacity:1;stroke-width:0.13388351"
     d="m 643.32059,384.14473 c -9.38115,-18.48694 -11.15898,-21.89839 -15.09746,-28.97034 -5.35267,-9.6113 -10.25305,-17.85086 -14.91357,-25.07589 -6.50583,-10.08576 -9.53379,-15.7836 -9.88605,-18.60303 -0.0874,-0.69958 -0.0685,-0.77944 0.26234,-1.11032 0.3043,-0.3043 0.42896,-0.34347 0.85116,-0.26746 1.50222,0.27047 3.91197,1.93597 8.52765,5.89388 0.95727,0.82085 2.25259,1.88785 2.87849,2.37111 2.98072,2.30142 6.95924,4.52719 9.43879,5.28052 1.16299,0.35333 1.33381,0.36793 4.90549,0.41904 l 3.70053,0.053 0.0789,-2.18649 c 0.0434,-1.20258 0.17171,-9.62708 0.28516,-18.72112 0.63322,-50.75943 0.9036,-59.74925 1.95432,-64.97826 0.59071,-2.93975 1.30994,-3.9511 3.02463,-4.25314 1.9904,-0.3506 2.71805,0.88257 3.17719,5.38453 0.37556,3.68235 0.48875,8.96971 0.6159,28.76939 0.1363,21.22518 0.24233,24.82419 0.88353,29.98991 0.6696,5.39463 1.83829,8.33112 3.81279,9.58019 1.54117,0.97495 4.14237,0.96958 7.88619,-0.0163 4.81004,-1.2666 5.30744,-2.57892 5.95922,-15.72257 0.35569,-7.17294 0.7579,-10.64524 1.48946,-12.8587 0.61359,-1.85655 1.68597,-2.71418 3.01812,-2.41373 0.76808,0.17323 1.26857,0.61847 1.70945,1.52074 0.95885,1.9623 1.3991,5.1501 1.81598,13.14921 0.51191,9.82254 1.10952,13.07322 2.7258,14.82667 0.68548,0.74367 1.59416,1.18594 3.33207,1.62181 6.09983,1.52984 9.10175,-0.77216 10.01391,-7.67911 0.11663,-0.88315 0.25859,-3.62336 0.33293,-6.42641 0.0713,-2.68771 0.18673,-5.2079 0.25657,-5.60043 0.36571,-2.05549 0.95105,-3.01012 2.12299,-3.46235 0.77386,-0.29862 3.16354,-0.33393 3.95254,-0.0584 0.73063,0.25514 1.34922,0.84836 1.67547,1.60676 0.56039,1.30266 0.69888,2.82066 0.82804,9.07628 0.0671,3.25218 0.1863,6.59592 0.2648,7.43053 0.42031,4.46883 1.09744,7.17554 2.45619,9.81824 0.55494,1.07935 0.90892,1.56203 1.82637,2.49041 1.65837,1.67814 3.27894,2.38406 5.55616,2.42027 0.86876,0.0138 1.18214,-0.0398 1.65909,-0.28364 2.15669,-1.10275 4.22564,-4.63928 5.4279,-9.27815 0.77253,-2.98074 0.95701,-4.42694 1.13183,-8.8727 0.13918,-3.53977 0.29557,-3.8282 1.43288,-2.64262 1.05007,1.09465 2.21784,2.73482 2.75047,3.86314 0.91395,1.9361 1.5917,5.19025 2.01868,9.69257 0.27884,2.94021 0.23221,15.77055 -0.0681,18.74369 -0.81516,8.0699 -2.65237,15.01011 -7.49587,28.31636 -1.98676,5.45809 -11.90305,31.98744 -11.99543,32.09171 -0.0777,0.0877 -6.99203,0.26651 -35.09342,0.90729 -6.36951,0.14524 -13.09378,0.30388 -14.94284,0.35254 l -3.36191,0.0885 z"
     id="path4738"
     inkscape:connector-curvature="0"
     transform="translate(-0.6498368)"
     inkscape:export-xdpi="95.114388"
     inkscape:export-ydpi="95.114388" />
  <path
     style="fill:#000000;fill-opacity:1;stroke-width:0.26776701"
     d="m 454.42065,367.42925 c -0.84413,-0.21977 -1.2967,-0.5128 -1.51753,-0.98258 -0.81579,-1.73543 -1.4246,-12.77977 -1.43913,-26.10728 -0.0134,-12.31441 -0.40036,-23.25503 -0.92806,-26.24117 -0.61182,-3.46211 -1.30603,-4.77259 -3.91678,-7.39378 -2.90641,-2.91804 -4.09423,-5.04996 -4.10711,-7.37151 -0.0111,-2.00097 0.41937,-2.58439 2.37775,-3.22258 1.14427,-0.37289 3.01971,-0.46187 11.73784,-0.5569 l 10.37597,-0.11309 0.005,2.90252 c 0.009,5.56096 -1.13343,68.50631 -1.24559,68.62451 -0.22376,0.23582 -5.90143,0.79223 -7.9971,0.78372 -1.17818,-0.005 -2.68342,-0.14963 -3.34499,-0.32186 z"
     id="path4740"
     inkscape:connector-curvature="0"
     transform="translate(-0.6498368)"
     inkscape:export-xdpi="95.114388"
     inkscape:export-ydpi="95.114388" />
  <path
     style="fill:#ffffff;fill-opacity:1;stroke-width:0.13388351"
     d="m 455.77461,367.57849 c -1.98021,-0.2089 -2.6559,-0.58246 -2.95779,-1.63526 -0.39011,-1.36049 -0.72862,-5.08958 -1.01103,-11.13766 -0.0756,-1.61999 -0.19552,-8.24723 -0.26639,-14.72719 -0.19631,-17.95047 -0.46912,-24.02984 -1.22561,-27.31223 -0.5524,-2.39686 -1.19119,-3.49224 -3.41181,-5.85048 -3.42629,-3.63862 -4.44887,-5.54064 -4.30272,-8.00312 0.0734,-1.23648 0.33299,-1.76605 1.0764,-2.19577 1.52813,-0.88331 2.85838,-0.98505 14.46601,-1.10632 l 8.83952,-0.0924 -0.0911,7.28518 c -0.15394,12.30823 -0.91608,54.41989 -1.10394,60.99829 -0.0745,2.60742 -0.12149,3.11773 -0.2934,3.1837 -0.53187,0.2041 -6.64954,0.75637 -7.99434,0.72169 -0.36818,-0.009 -1.14388,-0.0673 -1.72378,-0.12848 z"
     id="path4750"
     inkscape:connector-curvature="0"
     transform="translate(-0.6498368)"
     inkscape:export-xdpi="95.114388"
     inkscape:export-ydpi="95.114388" />
  <path
     style="fill:#ffffff;fill-opacity:1;stroke-width:0.13388351"
     d="m 449.09119,344.73083 c -0.0425,-14.30326 -0.12718,-24.58001 -0.216,-26.20769 -0.28091,-5.14782 -0.76762,-8.10786 -1.57796,-9.59672 -0.56029,-1.02945 -1.28796,-1.69553 -2.90196,-2.65634 -3.26725,-1.945 -4.47984,-4.45051 -3.77152,-7.79287 0.76864,-3.62703 2.5769,-4.25095 14.06309,-4.85236 2.13544,-0.11181 5.61687,-0.29402 7.7365,-0.40491 2.11964,-0.11088 4.0325,-0.20161 4.25081,-0.20161 h 0.39691 v 1.13801 1.13801 l -7.59789,0.003 c -10.04268,0.004 -13.1354,0.17184 -14.99862,0.81288 -1.40329,0.4828 -2.05815,1.25703 -2.21167,2.6148 -0.25088,2.21881 1.34202,5.22565 4.29137,8.10063 0.87861,0.85645 1.88561,1.99061 2.23778,2.52035 0.6122,0.92088 1.29977,2.62327 1.46236,3.62076 0.042,0.25773 0.10055,0.58909 0.13009,0.73636 0.0502,0.25031 0.17082,1.0986 0.28637,2.01385 0.0275,0.21783 0.11426,1.48051 0.19281,2.80596 0.0786,1.32545 0.17276,2.77139 0.20935,3.2132 0.0366,0.44182 0.0985,5.56286 0.13759,11.3801 0.14473,21.54537 0.67209,32.31451 1.64887,33.6717 0.52932,0.73547 3.46389,1.30822 5.91081,1.15365 1.3505,-0.0853 7.11926,-0.7308 7.19335,-0.8049 0.0241,-0.0241 0.25239,-12.05654 0.50725,-26.73871 0.25486,-14.68216 0.48084,-27.59856 0.50218,-28.7031 0.0213,-1.10454 0.0521,11.17091 0.0684,27.27876 l 0.0296,29.28702 h -8.95499 -8.95499 z"
     id="path4752"
     inkscape:connector-curvature="0"
     transform="translate(-0.6498368)"
     inkscape:export-xdpi="95.114388"
     inkscape:export-ydpi="95.114388" />
  <path
     style="fill:#ffffff;fill-opacity:1;stroke-width:0.13388351"
     d="m 453.01329,369.99544 c -2.70314,-0.16307 -4.23474,-0.5269 -4.60648,-1.09425 -0.90264,-1.37759 -1.54665,-14.43688 -1.55343,-31.50048 -0.005,-12.44166 -0.22623,-19.11012 -0.74838,-22.55156 -0.51702,-3.40768 -1.37131,-4.86475 -3.60057,-6.14111 -1.26595,-0.72481 -2.65066,-2.0539 -3.26116,-3.13016 -1.26075,-2.2226 -1.65307,-5.1881 -1.01812,-7.69601 0.50491,-1.99429 1.98673,-4.14398 3.37878,-4.90163 2.17396,-1.18322 8.14726,-1.85074 14.00433,-1.565 1.55502,0.0759 4.90586,0.25636 7.4463,0.40111 2.54043,0.14475 4.72441,0.26355 4.85327,0.26399 0.2226,7.7e-4 0.2343,1.92967 0.2343,38.6262 0,37.28876 -0.008,38.62539 -0.24412,38.62539 -0.13426,0 -2.31824,0.14629 -4.85328,0.32509 -5.80025,0.4091 -7.76256,0.4753 -10.03144,0.33842 z m 14.19165,-39.34794 c 0,-20.68735 -0.0501,-37.64436 -0.11143,-37.68223 -0.12314,-0.0761 -14.25198,0.62788 -17.22648,0.85833 -5.80054,0.4494 -7.87197,1.17432 -8.84556,3.09561 -0.43895,0.86623 -0.77508,2.87424 -0.65473,3.91125 0.28135,2.42409 1.5156,4.10987 4.08604,5.58082 2.62937,1.50467 3.40904,2.92655 3.93339,7.17327 0.46003,3.72576 0.50244,5.98492 0.56964,30.34298 l 0.0671,24.33333 h 9.091 9.091 z"
     id="path4754"
     inkscape:connector-curvature="0"
     transform="translate(-0.6498368)"
     inkscape:export-xdpi="95.114388"
     inkscape:export-ydpi="95.114388" />
  <path
     style="fill:#ffffff;fill-opacity:1;stroke-width:0.13388351"
     d="m 455.52306,272.93284 c -1.41739,-0.35804 -2.732,-1.40836 -4.23827,-3.38622 -1.83243,-2.40612 -2.69544,-4.32727 -2.97742,-6.628 -0.54485,-4.44557 2.27595,-8.88406 6.53278,-10.27926 1.04492,-0.34247 1.37606,-0.38822 2.79212,-0.38572 1.91086,0.003 3.13605,0.30216 4.80986,1.17297 2.93815,1.52859 4.62466,4.79166 4.62792,8.95409 0.002,3.11135 -0.96981,5.64677 -2.84576,7.42119 -1.53202,1.4491 -5.1954,3.07093 -7.22158,3.19708 -0.53737,0.0335 -1.20321,0.004 -1.47965,-0.0661 z"
     id="path4756"
     inkscape:connector-curvature="0"
     transform="translate(-0.6498368)"
     inkscape:export-xdpi="95.114388"
     inkscape:export-ydpi="95.114388" />
  <path
     style="fill:#ffffff;fill-opacity:1;stroke-width:0.13388351"
     d="m 456.82897,273.07804 c 1.6522,-0.12349 2.85432,-0.51731 5.164,-1.69177 1.46248,-0.74365 1.82854,-0.99814 2.57701,-1.79156 1.00843,-1.06899 1.81004,-2.56969 2.2559,-4.22332 0.41637,-1.54422 0.41491,-4.62449 -0.003,-6.15864 -0.59517,-2.18532 -1.7438,-4.04391 -3.16426,-5.12004 -1.66693,-1.26286 -3.73318,-1.93848 -5.9595,-1.94863 -1.69554,-0.008 -2.70969,0.22878 -4.27815,0.99769 -0.90593,0.44411 -1.36071,0.78474 -2.27811,1.70633 -1.28933,1.2952 -1.98513,2.39245 -2.51305,3.963 -0.32619,0.9704 -0.36037,1.25981 -0.36365,3.07932 -0.003,1.91226 0.0165,2.06585 0.4176,3.2132 1.13498,3.24678 4.0036,6.83203 6.17467,7.71723 l 0.63161,0.25752 -0.66942,-0.0827 c -2.32506,-0.28733 -4.8904,-1.77371 -6.03348,-3.49584 -1.0528,-1.58611 -1.53094,-3.5427 -1.53094,-6.26479 0,-4.33902 1.40606,-8.1043 3.74031,-10.01615 0.78159,-0.64016 2.24397,-1.3491 3.57286,-1.73208 1.47799,-0.42595 3.94501,-0.42561 5.44398,7.4e-4 6.7472,1.91911 10.40451,9.31217 7.80088,15.76906 -0.91617,2.27207 -2.09678,3.54176 -4.29118,4.61496 -1.96703,0.962 -3.14776,1.21885 -5.82393,1.26691 -1.8529,0.0333 -1.99321,0.0235 -0.87025,-0.0604 z"
     id="path4758"
     inkscape:connector-curvature="0"
     transform="translate(-0.6498368)"
     inkscape:export-xdpi="95.114388"
     inkscape:export-ydpi="95.114388" />
  <path
     style="fill:#ffffff;fill-opacity:1;stroke-width:0.13388351"
     d="m 454.55295,274.99788 c -2.1586,-0.4786 -4.01865,-1.48312 -5.66718,-3.06055 -4.1739,-3.99387 -5.28946,-10.01469 -2.83374,-15.29401 1.67507,-3.60106 4.60161,-6.11001 8.36704,-7.17315 1.37925,-0.38941 4.03835,-0.47008 5.31677,-0.16128 6.30455,1.52286 12.59928,8.90164 11.74932,13.77273 -0.56164,3.21877 -3.05042,7.08178 -6.01386,9.33454 -1.1273,0.85695 -3.52272,2.03367 -4.89359,2.4039 -1.43734,0.38819 -4.64849,0.48296 -6.02476,0.17782 z m 6.33814,-2.06587 c 2.33966,-0.60587 4.29169,-1.67457 5.44894,-2.98319 0.76843,-0.86894 1.6944,-2.75212 2.08617,-4.24272 0.4178,-1.58963 0.41607,-4.01623 -0.004,-5.61076 -1.26914,-4.8174 -5.19595,-8.36336 -9.95315,-8.9878 -2.72034,-0.35708 -5.98947,0.63343 -7.88698,2.38966 -2.26664,2.09787 -3.60925,6.20705 -3.4204,10.46841 0.23636,5.33314 2.68089,8.20833 7.79293,9.16584 1.51983,0.28467 4.44673,0.18634 5.93649,-0.19944 z"
     id="path4760"
     inkscape:connector-curvature="0"
     transform="translate(-0.6498368)"
     inkscape:export-xdpi="95.114388"
     inkscape:export-ydpi="95.114388" />
  <path
     style="fill:#ffffff;fill-opacity:1;stroke-width:0.13388351"
     d="m 644.16096,385.66872 c -7.05142,-13.98419 -11.58841,-22.7386 -14.82999,-28.61544 -5.64248,-10.22955 -9.98252,-17.56778 -15.99486,-27.04447 -7.17441,-11.30834 -9.84007,-16.40744 -9.84007,-18.82293 0,-1.15646 0.76906,-1.27551 2.50222,-0.38736 1.44498,0.74047 2.85108,1.78908 6.68258,4.98356 1.62756,1.35697 3.52536,2.87239 4.21733,3.3676 2.74971,1.96786 5.9057,3.6859 8.16644,4.44561 1.35199,0.45433 1.05646,0.42963 6.83697,0.57147 l 2.09743,0.0515 0.0798,-1.22162 c 0.0765,-1.17018 0.18762,-8.32492 0.47853,-30.80988 0.44306,-34.24505 0.76827,-46.05516 1.41203,-51.27738 0.63161,-5.12376 1.45644,-6.67153 3.65046,-6.85001 1.70035,-0.13832 2.31244,0.96244 2.76679,4.97564 0.36828,3.253 0.47414,7.74246 0.67246,28.51719 0.18793,19.68709 0.29465,24.58151 0.61014,27.98165 0.71239,7.67766 1.97986,11.16491 4.51085,12.41091 0.81152,0.39952 1.02625,0.44415 2.35553,0.48965 1.6657,0.057 2.84566,-0.0978 5.0314,-0.66031 4.90438,-1.26207 5.43211,-2.53535 6.09972,-14.7171 0.56776,-10.35974 1.04433,-13.6313 2.22261,-15.25786 1.08744,-1.50118 2.81911,-1.42499 3.73662,0.16439 1.07847,1.86817 1.49751,4.65244 2.00967,13.35299 0.30159,5.12333 0.457,7.0264 0.74223,9.08861 0.55752,4.03101 1.5028,5.95269 3.34241,6.79489 1.9993,0.91531 5.35286,1.35975 7.02321,0.93078 2.31187,-0.59373 3.81913,-2.41388 4.61089,-5.56807 0.47518,-1.89298 0.59039,-3.16161 0.81255,-8.94765 0.13545,-3.52778 0.26819,-5.55043 0.40214,-6.12802 0.55314,-2.38508 1.61938,-3.09114 4.49368,-2.97569 1.13945,0.0458 1.36362,0.0964 1.84869,0.41738 1.57258,1.04069 1.76135,2.16995 2.03018,12.14476 0.22623,8.39399 0.76223,11.57636 2.57068,15.26272 0.60819,1.23973 0.84085,1.55649 1.96986,2.68182 1.84968,1.84365 3.17901,2.4237 5.6149,2.45006 1.04004,0.0113 1.23524,-0.0269 1.78518,-0.34921 3.1381,-1.83906 5.8182,-8.35243 6.26494,-15.22559 0.33524,-5.15763 0.39095,-5.80041 0.51326,-5.92273 0.25997,-0.25997 0.7158,0.0781 1.66281,1.23339 2.21873,2.7066 2.9764,4.68916 3.71635,9.72444 0.4626,3.14792 0.56847,6.06431 0.49277,13.57471 -0.0764,7.58076 -0.1632,8.85918 -0.89712,13.21302 -1.1976,7.10459 -3.20081,13.57773 -9.21082,29.76359 -1.89527,5.10426 -6.50188,17.41417 -9.22449,24.64993 l -0.33323,0.88561 -1.96207,0.0882 c -1.80059,0.0809 -16.70608,0.44329 -38.91392,0.94597 -4.85997,0.11001 -9.64965,0.23074 -10.64373,0.26828 l -1.80743,0.0683 z"
     id="path4762"
     inkscape:connector-curvature="0"
     transform="translate(-0.6498368)"
     inkscape:export-xdpi="95.114388"
     inkscape:export-ydpi="95.114388" />
  <path
     style="fill:#ffffff;fill-opacity:1;stroke-width:0.13388351"
     d="m 640.19999,381.46826 c -5.4943,-11.0094 -8.27246,-16.39952 -11.23833,-21.80425 -6.04199,-11.01042 -11.53258,-20.36426 -17.0864,-29.1086 -5.91909,-9.31944 -10.40534,-16.89908 -11.28808,-19.07152 -0.37075,-0.91241 -0.34189,-1.62671 0.10363,-2.56466 0.8778,-1.84806 3.73036,-1.24637 8.16057,1.72129 1.77104,1.18636 3.46903,2.50217 6.827,5.29036 5.46089,4.5343 8.0369,6.37715 10.14431,7.25717 1.30385,0.54446 2.57086,0.66872 3.4388,0.33725 2.47277,-0.94436 3.75158,-5.33076 4.35499,-14.93785 0.39358,-6.26635 0.43637,-9.85967 0.49779,-41.80512 l 0.0638,-33.16964 h 5.54482 5.54483 v 0.90677 c 0,1.68568 0.66289,39.1437 0.80255,45.34998 0.45679,20.29844 1.0499,24.63585 3.53241,25.83247 0.9651,0.46519 2.72325,0.68719 3.97312,0.50168 2.58757,-0.38405 4.33679,-2.15553 5.5275,-5.59785 0.99288,-2.87038 1.60271,-6.46581 2.16599,-12.77023 0.90105,-10.08472 1.98843,-13.38835 4.40672,-13.38835 2.35285,0 3.44368,2.94036 4.29639,11.58092 0.51948,5.26397 0.73438,7.09062 1.07262,9.11727 1.05361,6.31289 2.78694,9.91054 5.2231,10.84092 0.44294,0.16916 0.86118,0.21033 1.66435,0.16384 0.92327,-0.0534 1.23235,-0.14119 2.2184,-0.6298 3.43273,-1.70098 4.90758,-5.43962 5.55046,-14.06995 0.31027,-4.16523 0.82661,-6.63606 1.64059,-7.85074 0.65703,-0.98046 1.34231,-1.30006 2.92577,-1.36451 3.33328,-0.13567 4.83187,1.39333 5.94828,6.06899 0.64859,2.71639 1.06575,6.48911 1.53959,13.92388 0.29955,4.70004 0.5369,6.81853 0.94183,8.40632 0.72831,2.85577 2.02328,4.09825 4.54188,4.35779 4.31371,0.44453 6.6079,-2.28392 7.35989,-8.75303 0.0767,-0.65974 0.19914,-2.82621 0.2721,-4.81438 0.18504,-5.04194 0.60652,-6.9049 1.73412,-7.66483 0.96228,-0.64851 1.99842,-0.18377 3.78371,1.69711 2.28948,2.41207 3.53195,4.47348 4.53213,7.51937 2.61304,7.95758 1.87951,20.94533 -2.08595,36.93361 -2.16488,8.72854 -4.66881,16.54136 -9.55833,29.82418 -4.32206,11.74128 -7.4108,19.21773 -8.3115,20.11843 -1.29923,1.29924 -5.41851,1.97674 -14.72937,2.42257 -1.58318,0.0758 -11.34328,0.17133 -21.68913,0.21227 l -18.81063,0.0745 z m 13.16766,8.85654 c 2.28271,-0.0419 5.11435,-0.103 6.29252,-0.13572 1.17818,-0.0327 3.76882,-0.0928 5.75699,-0.13353 1.98817,-0.0407 4.63907,-0.10135 5.89088,-0.13472 1.25181,-0.0334 3.84245,-0.0938 5.75699,-0.13438 1.91453,-0.0405 4.47505,-0.0998 5.69005,-0.13163 1.21499,-0.0319 5.52269,-0.12521 9.57267,-0.20745 4.04997,-0.0822 7.42966,-0.1694 7.51041,-0.1937 0.11542,-0.0347 1.17315,-2.61214 1.31923,-3.21461 0.0179,-0.0736 0.0934,-0.28451 0.1678,-0.4686 0.0744,-0.18409 0.57172,-1.50953 1.10508,-2.94543 0.53336,-1.4359 1.15023,-3.09271 1.37082,-3.6818 0.2206,-0.58909 0.48566,-1.297 0.58904,-1.57313 0.10338,-0.27614 0.27154,-0.72799 0.37369,-1.00413 0.10215,-0.27613 0.28969,-0.77317 0.41674,-1.10454 0.12706,-0.33136 0.30698,-0.81334 0.39982,-1.07106 0.28402,-0.78842 0.74902,-2.04639 0.96504,-2.61073 0.11274,-0.29455 0.28857,-0.76147 0.39072,-1.0376 0.19559,-0.52871 0.28218,-0.75541 1.04795,-2.74371 0.26214,-0.68065 0.47662,-1.32475 0.47662,-1.43135 0,-0.1066 0.0556,-0.22819 0.12358,-0.2702 0.068,-0.042 0.16402,-0.26049 0.21344,-0.48551 0.0494,-0.22503 0.17419,-0.57076 0.27725,-0.7683 0.10306,-0.19754 0.18775,-0.45254 0.1882,-0.56668 4.1e-4,-0.11413 0.0526,-0.26475 0.11583,-0.33471 0.0633,-0.07 0.2813,-0.60917 0.48455,-1.19825 0.20326,-0.58909 0.44603,-1.25181 0.53949,-1.47272 0.0935,-0.22091 0.39536,-1.03425 0.67086,-1.80743 0.27551,-0.77318 0.58347,-1.59562 0.68435,-1.82766 0.10088,-0.23204 0.18379,-0.50315 0.18424,-0.60248 4.1e-4,-0.0993 0.0837,-0.33947 0.18505,-0.53366 0.14509,-0.27806 0.5999,-1.50067 0.69044,-1.85601 0.009,-0.0368 0.057,-0.15731 0.10585,-0.26776 0.0488,-0.11046 0.23249,-0.62256 0.40813,-1.13801 0.17563,-0.51545 0.66043,-1.93127 1.07731,-3.14626 2.76555,-8.06001 4.46255,-15.02755 4.95647,-20.3503 0.0444,-0.47863 0.10867,-1.17148 0.14279,-1.53966 0.32962,-3.5566 0.42514,-11.03117 0.19676,-15.3966 -0.41742,-7.9787 -1.34666,-11.99196 -3.38136,-14.60364 -1.03384,-1.32701 -2.32402,-2.63918 -2.52916,-2.57226 -0.44374,0.14478 -0.55032,0.8012 -0.65889,4.05817 -0.0593,1.78027 -0.13922,3.38151 -0.17751,3.55831 -0.0383,0.1768 -0.10419,0.6227 -0.14645,0.99088 -0.18811,1.63909 -0.8788,4.43319 -1.53739,6.21941 -1.16281,3.1537 -2.81698,5.60427 -4.41856,6.54586 -0.54488,0.32035 -0.7295,0.35416 -1.87624,0.34368 -2.09417,-0.0192 -3.68795,-0.67789 -5.26784,-2.1773 -1.7781,-1.68753 -3.05785,-4.34346 -3.78362,-7.85233 -0.22864,-1.10545 -0.46248,-2.72269 -0.65818,-4.55204 -0.0315,-0.29455 -0.11778,-3.30693 -0.19171,-6.69418 -0.0739,-3.38725 -0.19486,-6.6105 -0.26872,-7.16277 -0.37876,-2.83206 -1.05459,-4.05154 -2.45454,-4.429 -0.72946,-0.19668 -2.94488,-0.1954 -3.67747,0.002 -1.33295,0.35938 -2.13338,1.61986 -2.38604,3.75747 -0.0479,0.405 -0.11454,0.783 -0.14815,0.84 -0.0336,0.057 -0.11484,2.37653 -0.18053,5.15451 -0.15555,6.57816 -0.3791,8.10719 -1.54283,10.55236 -0.70547,1.48232 -1.7422,2.53487 -2.96577,3.01104 -1.66493,0.64794 -4.91117,0.41943 -7.24437,-0.50994 -1.20298,-0.47917 -2.27081,-1.52975 -2.69173,-2.64823 -0.93512,-2.48479 -1.37138,-5.67664 -1.68341,-12.31629 -0.25833,-5.49689 -0.57451,-9.1648 -0.9455,-10.96847 -0.10715,-0.52094 -0.22995,-1.12565 -0.27288,-1.34379 -0.12737,-0.64709 -0.60825,-1.84465 -0.94692,-2.35813 -0.4276,-0.6483 -1.19613,-1.06093 -1.97601,-1.06093 -2.20378,0 -3.15904,2.40659 -3.74655,9.43879 -0.11074,1.32545 -0.23479,3.19312 -0.27566,4.15039 -0.46951,10.99489 -0.94523,14.0301 -2.47146,15.76837 -0.23805,0.27114 -0.80422,0.67316 -1.25815,0.89339 -0.87411,0.4241 -2.7491,1.00235 -3.71934,1.14706 -0.31971,0.0477 -0.6142,0.10704 -0.65442,0.13189 -0.0402,0.0249 -0.65712,0.11032 -1.3709,0.18991 -3.61488,0.40308 -5.5878,-0.79404 -6.84556,-4.15372 -0.34682,-0.92642 -0.947,-3.49259 -1.08962,-4.65885 -0.0486,-0.39777 -0.10694,-0.8195 -0.12956,-0.93719 -0.11847,-0.61634 -0.44405,-4.39389 -0.53772,-6.23873 -0.0411,-0.80999 -0.0998,-1.8342 -0.13038,-2.27602 -0.0908,-1.31231 -0.216,-11.81077 -0.34636,-29.05272 -0.0674,-8.90994 -0.1819,-17.13374 -0.25452,-18.27509 -0.45498,-7.15036 -1.03736,-8.83439 -3.05568,-8.83581 -1.35023,-9.6e-4 -2.21845,0.59837 -2.86284,1.97619 -0.40118,0.85781 -0.83657,2.59903 -0.97873,3.91418 -0.0438,0.405 -0.10359,0.82673 -0.13292,0.93718 -0.0293,0.11046 -0.0919,0.77318 -0.13907,1.47272 -0.0472,0.69954 -0.10722,1.42251 -0.13346,1.6066 -0.0262,0.18409 -0.0856,1.02756 -0.13182,1.87437 -0.0463,0.84682 -0.10847,1.9465 -0.13826,2.44374 -0.19058,3.18183 -0.56949,18.42297 -0.59829,24.0652 -0.005,1.06772 -0.0362,3.23663 -0.0684,4.8198 -0.0322,1.58318 -0.0911,5.43902 -0.13106,8.56855 -0.13097,10.26208 -0.20354,15.53764 -0.2689,19.54699 -0.0354,2.17226 -0.0972,7.05231 -0.13738,10.84456 -0.0402,3.79225 -0.10503,7.15105 -0.14418,7.46401 l -0.0712,0.569 -0.76163,0.0146 c -2.24318,0.0429 -6.17808,-0.0475 -6.58556,-0.15127 -0.25772,-0.0656 -0.6643,-0.15293 -0.90351,-0.194 -0.6756,-0.11602 -1.67987,-0.54494 -3.70009,-1.58028 -3.10578,-1.5917 -6.26992,-3.81903 -9.44284,-6.64708 -4.67941,-4.1708 -8.02222,-6.08409 -8.91202,-5.10087 -0.31438,0.34738 -0.2247,1.71499 0.19333,2.94826 0.52177,1.53933 3.01341,6.40834 4.83016,9.43879 1.972,3.28941 3.3516,5.46659 3.5066,5.53385 0.0566,0.0245 0.10284,0.10923 0.10284,0.18819 0,0.079 0.14175,0.32999 0.31499,0.55785 0.85719,1.12741 9.37118,14.96815 9.76708,15.87783 0.0481,0.11045 0.23618,0.44181 0.41802,0.73636 0.18184,0.29454 0.41519,0.68615 0.51855,0.87024 0.10337,0.18409 0.63988,1.11793 1.19226,2.07519 1.2087,2.0947 1.28576,2.23096 3.55502,6.28672 3.85197,6.88448 8.23317,15.27324 14.1975,27.18416 0.84807,1.69363 2.16913,4.29824 2.93569,5.78803 l 1.39375,2.70871 1.36297,-0.0591 c 0.74962,-0.0325 3.23063,-0.0934 5.51335,-0.13537 z"
     id="path4764"
     inkscape:connector-curvature="0"
     transform="translate(-0.6498368)"
     inkscape:export-xdpi="95.114388"
     inkscape:export-ydpi="95.114388" />
  <path
     style="fill:#ffffff;fill-opacity:1;stroke-width:0.18933986"
     d="m 656.03326,394.20196 c -6.88217,-0.18552 -10.49163,-0.75294 -11.6522,-1.83176 -0.69953,-0.65026 -3.74518,-6.21558 -11.2582,-20.57209 -9.03768,-17.26995 -17.31256,-31.53647 -24.71716,-42.61422 -3.91694,-5.86001 -6.85966,-11.09575 -8.44255,-15.02117 -1.85474,-4.59958 -1.91914,-7.97726 -0.16792,-8.80827 0.87665,-0.416 1.73464,-0.37397 3.44977,0.16897 2.6611,0.84241 6.31062,3.18213 11.20522,7.18373 3.87403,3.16723 4.83944,3.90396 7.21785,5.5081 3.47465,2.34351 6.07055,3.47475 6.72577,2.93096 0.74999,-0.62243 1.40377,-4.38523 1.87454,-10.78888 0.67367,-9.16347 0.9527,-19.73847 1.33889,-50.74309 0.16279,-13.06918 0.34526,-24.8152 0.4055,-26.10227 l 0.10952,-2.34012 1.63646,0.13534 c 3.83836,0.31745 12.53952,1.18435 12.61167,1.25651 0.0432,0.0432 0.21131,7.44661 0.37353,16.45199 0.58063,32.23147 0.78664,39.1195 1.35329,45.24775 0.44086,4.76775 1.19745,7.71534 2.22918,8.6846 0.93425,0.87768 3.11745,1.23497 4.34021,0.7103 1.361,-0.58399 2.48146,-2.34474 3.14768,-4.9464 0.68096,-2.65928 0.97459,-5.84429 1.16068,-12.59012 0.18204,-6.59921 0.33271,-8.4718 0.84142,-10.45748 0.57498,-2.24435 1.42863,-3.33455 3.03092,-3.8708 3.1355,-1.04938 5.92114,0.3531 7.57456,3.81354 1.30859,2.73875 1.74064,5.35469 1.98683,12.02946 0.27944,7.57665 0.82384,11.14422 2.07639,13.60709 0.93508,1.83863 2.08424,2.67719 3.66591,2.67509 1.91234,-0.003 3.18709,-0.82974 4.11672,-2.67132 1.07732,-2.13416 1.5328,-4.3929 2.05738,-10.20274 0.76641,-8.48822 1.68656,-10.30034 5.47161,-10.7756 4.28156,-0.53761 6.67626,1.68059 8.15888,7.55753 0.68445,2.71307 1.02164,5.03659 1.62106,11.17035 0.8659,8.86073 1.67567,11.79868 3.51132,12.73945 1.36803,0.70111 2.83013,-0.0726 3.77052,-1.99536 0.78946,-1.61414 1.23511,-3.49082 1.80761,-7.61199 0.78012,-5.61568 1.5711,-8.17528 2.93996,-9.51358 1.51896,-1.48507 3.49224,-0.77597 6.37847,2.29212 2.70965,2.88037 4.37152,5.69715 5.16239,8.74998 0.73905,2.8528 0.9704,5.39288 1.08543,11.91715 0.20028,11.35958 -0.55884,17.04213 -3.64087,27.2544 -1.90765,6.321 -3.92628,11.94736 -13.95995,38.90935 l -4.40383,11.83374 -10.31679,0.23531 c -16.43593,0.37489 -30.76084,0.53238 -35.87767,0.39445 z m 30.29438,-1.86585 c 9.31913,-0.39023 13.2797,-1.05554 14.67279,-2.46479 0.96586,-0.97707 3.08747,-5.9707 7.16684,-16.86865 6.6438,-17.7487 10.01541,-28.65383 12.22669,-39.54588 3.09006,-15.22061 2.84476,-27.2913 -0.6849,-33.7025 -1.98891,-3.61261 -5.27606,-6.74633 -6.6423,-6.33225 -1.55912,0.47254 -1.98075,1.98846 -2.32009,8.34147 -0.40441,7.57116 -1.08156,10.08624 -3.22312,11.97132 -1.05844,0.93167 -2.144,1.24225 -3.93934,1.12703 -4.15296,-0.26652 -5.05974,-2.24623 -5.70567,-12.45681 -1.04631,-16.53969 -2.37446,-20.25097 -7.2495,-20.25751 -1.6594,-0.002 -2.43886,0.2925 -3.19289,1.20726 -1.00143,1.21491 -1.40556,3.02688 -1.86292,8.35255 -0.73458,8.55382 -2.17198,12.14178 -5.50068,13.73042 -1.38467,0.66085 -3.10398,0.76849 -4.17287,0.26127 -2.80449,-1.33081 -4.56964,-6.79125 -5.5635,-17.21047 -0.87395,-9.16221 -1.56876,-12.13997 -3.15826,-13.53557 -1.22446,-1.0751 -2.95128,-0.62021 -3.78801,0.99786 -0.99277,1.91981 -1.56015,4.85699 -2.14762,11.11766 -1.15713,12.3318 -2.5745,16.73148 -5.96639,18.52041 -0.83384,0.43977 -1.16113,0.49862 -2.74543,0.49364 -3.49633,-0.011 -4.48515,-0.9927 -5.19661,-5.15926 -0.78895,-4.62033 -1.04865,-12.08639 -1.61475,-46.42124 -0.10387,-6.30029 -0.24229,-13.60644 -0.30759,-16.2359 l -0.11872,-4.78083 h -5.65882 -5.65881 l -0.002,31.57242 c -0.002,31.38026 -0.12592,39.95815 -0.66803,46.18433 -0.75986,8.72739 -2.28934,12.36903 -5.19494,12.36903 -2.24748,0 -5.1347,-1.79078 -11.93308,-7.40142 -4.2304,-3.49131 -5.43272,-4.42722 -7.25474,-5.64722 -1.93746,-1.2973 -4.73798,-2.63656 -5.81525,-2.78097 -1.77781,-0.23831 -2.83456,0.73148 -2.83456,2.60131 0,1.39788 2.62943,6.03814 10.98283,19.38184 11.7103,18.70602 17.78226,29.59337 28.82776,51.68979 l 5.58416,11.17105 17.96336,-0.0456 c 9.87985,-0.0251 20.09344,-0.13479 22.69686,-0.2438 z"
     id="path4766"
     inkscape:connector-curvature="0"
     transform="translate(-0.6498368)"
     inkscape:export-xdpi="95.114388"
     inkscape:export-ydpi="95.114388" />
</svg>
